SplineFontDB: 3.0
FontName: Pontano
FullName: Pontano Sans
FamilyName: Pontano Sans
Weight: Book
Copyright: Copyright (c) 2011 by vernon adams. All rights reserved.
Version: 1.0
ItalicAngle: 0
UnderlinePosition: -205
UnderlineWidth: 102
Ascent: 1638
Descent: 410
sfntRevision: 0x00010000
LayerCount: 2
Layer: 0 1 "Back"  1
Layer: 1 1 "Fore"  0
NeedsXUIDChange: 1
XUID: [1021 14 500265001 29744]
FSType: 0
OS2Version: 4
OS2_WeightWidthSlopeOnly: 0
OS2_UseTypoMetrics: 1
CreationTime: 1330640882
ModificationTime: 1331021240
PfmFamily: 81
TTFWeight: 400
TTFWidth: 5
LineGap: 0
VLineGap: 0
Panose: 0 0 0 0 0 0 0 0 0 0
OS2TypoAscent: 395
OS2TypoAOffset: 1
OS2TypoDescent: -163
OS2TypoDOffset: 1
OS2TypoLinegap: 0
OS2WinAscent: 8
OS2WinAOffset: 1
OS2WinDescent: 49
OS2WinDOffset: 1
HheadAscent: 8
HheadAOffset: 1
HheadDescent: -49
HheadDOffset: 1
OS2SubXSize: 1434
OS2SubYSize: 1331
OS2SubXOff: 0
OS2SubYOff: 287
OS2SupXSize: 1434
OS2SupYSize: 1331
OS2SupXOff: 0
OS2SupYOff: 977
OS2StrikeYSize: 102
OS2StrikeYPos: 512
OS2Vendor: 'newt'
OS2CodePages: 00000093.00000000
OS2UnicodeRanges: 800000ef.4000004b.00000000.00000000
Lookup: 4 0 1 "'liga' Standard Ligatures in Latin lookup 0"  {"'liga' Standard Ligatures in Latin lookup 0 subtable"  } ['liga' ('latn' <'latn' > ) ]
Lookup: 258 0 0 "'kern' Horizontal Kerning in Latin lookup 0"  {"'kern' Horizontal Kerning in Latin lookup 0 per glyph data 0"  "'kern' Horizontal Kerning in Latin lookup 0 kerning class 1"  } ['kern' ('DFLT' <'dflt' > 'latn' <'latn' > ) ]
MarkAttachClasses: 1
DEI: 91125
KernClass2: 26 22 "'kern' Horizontal Kerning in Latin lookup 0 kerning class 1" 
 81 A Agrave Aacute Acircumflex Atilde Adieresis Aring Amacron Abreve Aogonek uni0202
 75 D O Q Eth Ograve Oacute Ocircumflex Otilde Odieresis Oslash uni020C uni020E
 1 F
 1 K
 1 L
 1 P
 28 R Racute Rcommaaccent Rcaron
 9 T uni021A
 1 V
 1 W
 18 Y Yacute Ydieresis
 1 a
 69 b o p ograve oacute ocircumflex otilde odieresis oslash thorn uni020F
 1 c
 1 d
 1 e
 1 f

StartChar: .notdef
Encoding: 65536 -1 0
Width: 1024
Flags: HW
LayerCount: 2
Fore
SplineSet
102 0 m 1,0,-1
 102 1092 l 1,1,-1
 922 1092 l 1,2,-1
 922 0 l 1,3,-1
 102 0 l 1,0,-1
204 102 m 1,4,-1
 820 102 l 1,5,-1
 820 990 l 1,6,-1
 204 990 l 1,7,-1
 204 102 l 1,4,-1
EndSplineSet
EndChar

StartChar: exclam
Encoding: 33 33 5
Width: 428
GlyphClass: 2
Flags: HW
LayerCount: 2
Fore
SplineSet
191 305 m 1,0,-1
 138 1464 l 1,1,-1
 307 1464 l 1,2,-1
 250 305 l 1,3,-1
 191 305 l 1,0,-1
138 197 m 1,4,-1
 302 197 l 1,5,-1
 302 0 l 1,6,-1
 138 0 l 1,7,-1
 138 197 l 1,4,-1
EndSplineSet
EndChar

StartChar: quotedbl
Encoding: 34 34 6
Width: 510
GlyphClass: 2
Flags: HW
LayerCount: 2
Fore
SplineSet
457 1464 m 1,0,-1
 406 1000 l 1,1,-1
 355 1000 l 1,2,-1
 303 1464 l 1,3,-1
 457 1464 l 1,0,-1
53 1464 m 1,4,-1
 207 1464 l 1,5,-1
 156 1000 l 1,6,-1
 105 1000 l 1,7,-1
 53 1464 l 1,4,-1
EndSplineSet
EndChar

StartChar: numbersign
Encoding: 35 35 7
Width: 1221
GlyphClass: 2
Flags: HW
LayerCount: 2
Fore
SplineSet
278 1 m 1,0,-1
 144 0 l 1,1,-1
 255 551 l 1,2,-1
 51 551 l 1,3,-1
 80 649 l 1,4,-1
 275 649 l 1,5,-1
 326 901 l 1,6,-1
 120 901 l 1,7,-1
 149 999 l 1,8,-1
 346 999 l 1,9,-1
 440 1463 l 1,10,-1
 579 1464 l 1,11,-1
 483 999 l 1,12,-1
 808 999 l 1,13,-1
 902 1463 l 1,14,-1
 1041 1464 l 1,15,-1
 945 999 l 1,16,-1
 1175 999 l 1,17,-1
 1146 901 l 1,18,-1
 925 901 l 1,19,-1
 873 649 l 1,20,-1
 1106 649 l 1,21,-1
 1077 551 l 1,22,-1
 853 551 l 1,23,-1
 740 1 l 1,24,-1
 606 0 l 1,25,-1
 717 551 l 1,26,-1
 391 551 l 1,27,-1
 278 1 l 1,0,-1
463 901 m 1,28,-1
 411 649 l 1,29,-1
 737 649 l 1,30,-1
 788 901 l 1,31,-1
 463 901 l 1,28,-1
EndSplineSet
EndChar

StartChar: dollar
Encoding: 36 36 8
Width: 1323
GlyphClass: 2
Flags: HW
LayerCount: 2
Fore
SplineSet
642 871 m 1,0,1
 459 930 459 930 400 986 c 0,2,3
 337 1045 337 1045 337 1141.5 c 128,-1,4
 337 1238 337 1238 421 1296 c 128,-1,5
 505 1354 505 1354 642 1362 c 1,6,-1
 642 871 l 1,0,1
731 103 m 1,7,-1
 731 692 l 1,8,9
 945 618 945 618 1005 546 c 0,10,11
 1058 483 1058 483 1058 399.5 c 128,-1,12
 1058 316 1058 316 1031 261.5 c 0,13,14
 1004 206 1004 206 957 174 c 0,15,16
 869 113 869 113 734 103 c 1,17,-1
 731 103 l 1,7,-1
642 -201 m 1,18,-1
 731 -201 l 1,19,-1
 731 -23 l 1,20,21
 954 -11 954 -11 1082.5 98 c 128,-1,22
 1211 207 1211 207 1211 393 c 0,23,24
 1211 551 1211 551 1120 639 c 0,25,26
 1036 720 1036 720 876 786 c 0,27,28
 833 804 833 804 798 817 c 128,-1,29
 763 830 763 830 750.5 835 c 128,-1,30
 738 840 738 840 731 842 c 1,31,-1
 731 1363 l 1,32,33
 858 1354 858 1354 942.5 1294 c 128,-1,34
 1027 1234 1027 1234 1074 1148 c 1,35,-1
 1178 1224 l 1,36,37
 1097 1348 1097 1348 989 1410 c 128,-1,38
 881 1472 881 1472 731 1480 c 1,39,-1
 731 1674 l 1,40,-1
 642 1674 l 1,41,-1
 642 1481 l 1,42,43
 458 1474 458 1474 326 1386 c 0,44,45
 184 1292 184 1292 184 1116 c 0,46,47
 184 944 184 944 352 842 c 0,48,49
 426 798 426 798 606 735 c 0,50,51
 630 726 630 726 642 723 c 1,52,-1
 642 102 l 1,53,54
 305 119 305 119 221 426 c 1,55,-1
 98 373 l 1,56,57
 117 270 117 270 173.5 191.5 c 0,58,59
 230 112 230 112 308 68 c 0,60,61
 456 -16 456 -16 642 -24 c 1,62,-1
 642 -201 l 1,18,-1
EndSplineSet
EndChar

StartChar: percent
Encoding: 37 37 9
Width: 1677
GlyphClass: 2
Flags: HW
LayerCount: 2
Fore
SplineSet
268 -14 m 1,0,-1
 1503 1415 l 1,1,-1
 1426 1481 l 1,2,-1
 190 52 l 1,3,-1
 268 -14 l 1,0,-1
188 1414 m 0,4,5
 260 1466 260 1466 356.5 1466 c 0,6,7
 454 1466 454 1466 524 1414 c 0,8,9
 660 1314 660 1314 660 1120 c 0,10,11
 660 924 660 924 524 825 c 0,12,13
 454 774 454 774 357 774 c 0,14,15
 212 774 212 774 131 876 c 128,-1,16
 50 978 50 978 50 1118 c 0,17,18
 50 1314 50 1314 188 1414 c 0,4,5
357 1374 m 0,19,20
 264 1374 264 1374 212.5 1300 c 128,-1,21
 161 1226 161 1226 161 1122.5 c 128,-1,22
 161 1019 161 1019 213 943.5 c 128,-1,23
 265 868 265 868 356 868 c 128,-1,24
 447 868 447 868 497.5 943.5 c 128,-1,25
 548 1019 548 1019 548 1103 c 128,-1,26
 548 1187 548 1187 527.5 1243 c 128,-1,27
 507 1299 507 1299 462.5 1336.5 c 128,-1,28
 418 1374 418 1374 357 1374 c 0,19,20
1336 692 m 0,29,30
 1420 692 1420 692 1492 640 c 0,31,32
 1628 541 1628 541 1628 346 c 0,33,34
 1628 149 1628 149 1492 51 c 0,35,36
 1422 0 1422 0 1324.5 0 c 0,37,38
 1228 0 1228 0 1156 51 c 0,39,40
 1020 148 1020 148 1019 344 c 0,41,42
 1019 480 1019 480 1095 582 c 0,43,44
 1176 692 1176 692 1336 692 c 0,29,30
1325 599 m 0,45,46
 1232 599 1232 599 1180.5 525 c 128,-1,47
 1129 451 1129 451 1129 367 c 128,-1,48
 1129 283 1129 283 1150.5 226 c 128,-1,49
 1172 169 1172 169 1217.5 131 c 128,-1,50
 1263 93 1263 93 1325 93 c 0,51,52
 1415 93 1415 93 1466 169 c 128,-1,53
 1517 245 1517 245 1517 329 c 128,-1,54
 1517 413 1517 413 1496.5 468.5 c 128,-1,55
 1476 524 1476 524 1431 561.5 c 128,-1,56
 1386 599 1386 599 1325 599 c 0,45,46
EndSplineSet
EndChar

StartChar: ampersand
Encoding: 38 38 10
Width: 1430
GlyphClass: 2
Flags: HW
LayerCount: 2
Fore
SplineSet
925.5 1005.5 m 128,-1,1
 1010 1093 1010 1093 1010 1218 c 128,-1,2
 1010 1343 1010 1343 915 1417 c 128,-1,3
 820 1491 820 1491 675.5 1491 c 128,-1,4
 531 1491 531 1491 428 1415.5 c 128,-1,5
 325 1340 325 1340 325 1210 c 0,6,7
 325 1122 325 1122 364 1043 c 128,-1,8
 403 964 403 964 484 873 c 1,9,10
 305 802 305 802 201.5 686 c 128,-1,11
 98 570 98 570 98 399.5 c 128,-1,12
 98 229 98 229 233.5 102 c 128,-1,13
 369 -25 369 -25 582 -25 c 0,14,15
 880 -25 880 -25 1088 195 c 1,16,17
 1104 179 1104 179 1141 141 c 0,18,19
 1178 102 1178 102 1200 80 c 0,20,21
 1256 24 1256 24 1320 -28 c 1,22,-1
 1393 57 l 1,23,24
 1321 119 1321 119 1259 187.5 c 128,-1,25
 1197 256 1197 256 1169 285 c 1,26,27
 1276 490 1276 490 1311 782 c 1,28,-1
 1181 801 l 1,29,30
 1151 596 1151 596 1126.5 512 c 128,-1,31
 1102 428 1102 428 1074 381 c 1,32,-1
 677 836 l 1,33,0
 841 918 841 918 925.5 1005.5 c 128,-1,1
609 917 m 1,34,35
 459 1079 459 1079 459 1209 c 0,36,37
 459 1284 459 1284 525 1329 c 128,-1,38
 591 1374 591 1374 676 1374 c 128,-1,39
 761 1374 761 1374 821.5 1328.5 c 128,-1,40
 882 1283 882 1283 882 1205 c 0,41,42
 882 1088 882 1088 750 996 c 0,43,44
 694 956 694 956 609 917 c 1,34,35
557 785 m 1,45,-1
 1002 283 l 1,46,47
 924 190 924 190 818 141.5 c 128,-1,48
 712 93 712 93 612 93 c 128,-1,49
 512 93 512 93 441 121 c 128,-1,50
 370 149 370 149 328 196 c 0,51,52
 244 290 244 290 244 410.5 c 128,-1,53
 244 531 244 531 316.5 617.5 c 128,-1,54
 389 704 389 704 557 785 c 1,45,-1
EndSplineSet
EndChar

StartChar: quotesingle
Encoding: 39 39 11
Width: 280
GlyphClass: 2
Flags: HW
LayerCount: 2
Fore
SplineSet
173 1000 m 1,0,-1
 122 1000 l 1,1,-1
 70 1464 l 1,2,-1
 224 1464 l 1,3,-1
 173 1000 l 1,0,-1
EndSplineSet
EndChar

StartChar: parenleft
Encoding: 40 40 12
Width: 602
GlyphClass: 2
Flags: HW
LayerCount: 2
Fore
SplineSet
523 1587 m 1,0,-1
 560 1482 l 1,1,2
 185 1376 185 1376 185 702 c 0,3,4
 185 28 185 28 560 -73 c 1,5,-1
 523 -180 l 1,6,7
 294 -125 294 -125 164 94 c 128,-1,8
 34 313 34 313 34 703 c 128,-1,9
 34 1093 34 1093 164.5 1313 c 128,-1,10
 295 1533 295 1533 523 1587 c 1,0,-1
EndSplineSet
EndChar

StartChar: parenright
Encoding: 41 41 13
Width: 602
GlyphClass: 2
Flags: HW
LayerCount: 2
Fore
SplineSet
79 -180 m 1,0,-1
 42 -75 l 1,1,2
 417 32 417 32 417 706 c 0,3,4
 417 1380 417 1380 42 1480 c 1,5,-1
 79 1587 l 1,6,7
 308 1532 308 1532 438 1313 c 128,-1,8
 568 1094 568 1094 568 704 c 128,-1,9
 568 314 568 314 437.5 94 c 128,-1,10
 307 -126 307 -126 79 -180 c 1,0,-1
EndSplineSet
EndChar

StartChar: asterisk
Encoding: 42 42 14
Width: 826
GlyphClass: 2
Flags: HW
LayerCount: 2
Fore
SplineSet
463 762 m 1,0,-1
 363 762 l 1,1,-1
 373 1049 l 1,2,-1
 108 894 l 1,3,-1
 61 982 l 1,4,-1
 336 1112 l 1,5,-1
 60 1242 l 1,6,-1
 107 1330 l 1,7,-1
 373 1175 l 1,8,-1
 363 1463 l 1,9,-1
 463 1463 l 1,10,-1
 453 1176 l 1,11,-1
 718 1331 l 1,12,-1
 765 1243 l 1,13,-1
 490 1113 l 1,14,-1
 766 983 l 1,15,-1
 719 895 l 1,16,-1
 453 1050 l 1,17,-1
 463 762 l 1,0,-1
EndSplineSet
EndChar

StartChar: plus
Encoding: 43 43 15
Width: 860
GlyphClass: 2
Flags: HW
LayerCount: 2
Fore
SplineSet
72 673 m 1,0,-1
 72 773 l 1,1,-1
 376 773 l 1,2,-1
 376 1100 l 1,3,-1
 478 1100 l 1,4,-1
 478 773 l 1,5,-1
 778 773 l 1,6,-1
 778 673 l 1,7,-1
 478 673 l 1,8,-1
 478 350 l 1,9,-1
 376 350 l 1,10,-1
 376 673 l 1,11,-1
 72 673 l 1,0,-1
EndSplineSet
EndChar

StartChar: comma
Encoding: 44 44 16
Width: 445
GlyphClass: 2
Flags: HW
LayerCount: 2
Fore
SplineSet
100 219 m 1,0,-1
 300 219 l 1,1,-1
 300 134 l 1,2,3
 295 -19 295 -19 281 -78 c 0,4,5
 254 -192 254 -192 163 -254 c 1,6,-1
 114 -192 l 1,7,8
 141 -171 141 -171 166.5 -117.5 c 128,-1,9
 192 -64 192 -64 194 16 c 1,10,-1
 100 29 l 1,11,-1
 100 219 l 1,0,-1
EndSplineSet
EndChar

StartChar: hyphen
Encoding: 45 45 17
Width: 724
GlyphClass: 2
Flags: HW
LayerCount: 2
Fore
SplineSet
100 400 m 1,0,-1
 100 511 l 1,1,-1
 600 511 l 1,2,-1
 600 400 l 1,3,-1
 100 400 l 1,0,-1
EndSplineSet
EndChar

StartChar: period
Encoding: 46 46 18
Width: 434
GlyphClass: 2
Flags: HW
LayerCount: 2
Fore
SplineSet
135 215 m 1,0,-1
 299 215 l 1,1,-1
 299 0 l 1,2,-1
 135 0 l 1,3,-1
 135 215 l 1,0,-1
EndSplineSet
EndChar

StartChar: slash
Encoding: 47 47 19
Width: 592
GlyphClass: 2
Flags: HW
LayerCount: 2
Fore
SplineSet
152 -35 m 1,0,-1
 43 -8 l 1,1,-1
 458 1534 l 1,2,-1
 575 1507 l 1,3,-1
 152 -35 l 1,0,-1
EndSplineSet
EndChar

StartChar: zero
Encoding: 48 48 20
Width: 1246
GlyphClass: 2
Flags: HW
LayerCount: 2
Fore
SplineSet
623 -25 m 128,-1,1
 748 -25 748 -25 846 30 c 128,-1,2
 944 85 944 85 1006 185 c 0,3,4
 1132 388 1132 388 1132 724 c 0,5,6
 1132 1062 1132 1062 1006 1272 c 0,7,8
 944 1376 944 1376 846 1433.5 c 128,-1,9
 748 1491 748 1491 623 1491 c 128,-1,10
 498 1491 498 1491 400.5 1433.5 c 0,11,12
 302 1376 302 1376 240 1272 c 0,13,14
 114 1063 114 1063 114 724 c 0,15,16
 114 388 114 388 240 185 c 0,17,18
 302 85 302 85 400 30 c 128,-1,0
 498 -25 498 -25 623 -25 c 128,-1,1
623 1374 m 128,-1,20
 737 1374 737 1374 818 1290 c 0,21,22
 977 1124 977 1124 977 724 c 0,23,24
 977 336 977 336 821 176 c 0,25,26
 740 93 740 93 623 93 c 128,-1,27
 506 93 506 93 425 176 c 0,28,29
 269 336 269 336 269 724 c 0,30,31
 269 1124 269 1124 428 1290 c 0,32,19
 509 1374 509 1374 623 1374 c 128,-1,20
EndSplineSet
EndChar

StartChar: one
Encoding: 49 49 21
Width: 592
GlyphClass: 2
Flags: HW
LayerCount: 2
Fore
SplineSet
288 1328 m 1,0,-1
 288 0 l 1,1,-1
 434 0 l 1,2,-1
 434 1464 l 1,3,-1
 305 1464 l 1,4,-1
 58 1364 l 1,5,-1
 102 1248 l 1,6,-1
 288 1328 l 1,0,-1
EndSplineSet
EndChar

StartChar: two
Encoding: 50 50 22
Width: 1137
GlyphClass: 2
Flags: HW
LayerCount: 2
Fore
SplineSet
185 1089 m 1,0,1
 312 1374 312 1374 574 1374 c 0,2,3
 701 1374 701 1374 790.5 1290.5 c 128,-1,4
 880 1207 880 1207 880 1062 c 0,5,6
 880 892 880 892 728 744 c 0,7,8
 660 678 660 678 578 613.5 c 128,-1,9
 496 549 496 549 413.5 482 c 0,10,11
 331 416 331 416 262 346 c 0,12,13
 106 189 106 189 100 0 c 1,14,-1
 1019 0 l 1,15,-1
 1019 112 l 1,16,-1
 280 112 l 1,17,18
 340 230 340 230 502 364 c 0,19,20
 570 420 570 420 646.5 480 c 128,-1,21
 723 540 723 540 792 603 c 128,-1,22
 861 666 861 666 917 734 c 0,23,24
 1040 882 1040 882 1040 1060 c 0,25,26
 1040 1169 1040 1169 1000.5 1254 c 0,27,28
 961 1340 961 1340 893 1390 c 0,29,30
 756 1492 756 1492 573 1491.5 c 128,-1,31
 390 1491 390 1491 264 1406.5 c 128,-1,32
 138 1322 138 1322 56 1141 c 1,33,-1
 185 1089 l 1,0,1
EndSplineSet
EndChar

StartChar: three
Encoding: 51 51 23
Width: 1092
GlyphClass: 2
Flags: HW
LayerCount: 2
Fore
SplineSet
926 1152 m 0,0,1
 926 1304 926 1304 821.5 1397.5 c 128,-1,2
 717 1491 717 1491 535 1491 c 0,3,4
 274 1491 274 1491 123 1256 c 1,5,-1
 229 1192 l 1,6,7
 347 1374 347 1374 542 1374 c 0,8,9
 659 1374 659 1374 721 1305 c 128,-1,10
 783 1236 783 1236 783 1140 c 0,11,12
 784 1028 784 1028 716 952 c 0,13,14
 638 864 638 864 441 864 c 1,15,-1
 441 751 l 1,16,17
 640 751 640 751 744 667 c 128,-1,18
 848 583 848 583 848 396 c 0,19,20
 848 273 848 273 764.5 183 c 128,-1,21
 681 93 681 93 533 93 c 0,22,23
 297 93 297 93 213 358 c 1,24,-1
 89 316 l 1,25,26
 152 62 152 62 400 -6 c 0,27,28
 470 -25 470 -25 560.5 -25 c 128,-1,29
 651 -25 651 -25 738.5 12.5 c 128,-1,30
 826 50 826 50 882 112 c 0,31,32
 998 240 998 240 997.5 393.5 c 128,-1,33
 997 547 997 547 919.5 660 c 128,-1,34
 842 773 842 773 684 818 c 1,35,36
 805 857 805 857 865.5 948 c 128,-1,37
 926 1039 926 1039 926 1152 c 0,0,1
EndSplineSet
EndChar

StartChar: four
Encoding: 52 52 24
Width: 1206
GlyphClass: 2
Flags: HW
LayerCount: 2
Fore
SplineSet
131 464 m 1,0,-1
 673 1464 l 1,1,-1
 877 1464 l 1,2,-1
 877 467 l 1,3,-1
 1132 467 l 1,4,-1
 1132 357 l 1,5,-1
 878 357 l 1,6,-1
 878 0 l 1,7,-1
 738 0 l 1,8,-1
 738 357 l 1,9,-1
 131 357 l 1,10,-1
 131 464 l 1,0,-1
738 1332 m 1,11,-1
 292 467 l 1,12,-1
 738 467 l 1,13,-1
 738 1332 l 1,11,-1
EndSplineSet
EndChar

StartChar: five
Encoding: 53 53 25
Width: 1163
GlyphClass: 2
Flags: HW
LayerCount: 2
Fore
SplineSet
348 858 m 1,0,1
 474 928 474 928 599.5 928 c 128,-1,2
 725 928 725 928 816 889.5 c 0,3,4
 908 851 908 851 962 785 c 0,5,6
 1072 651 1072 651 1072 448.5 c 128,-1,7
 1072 246 1072 246 941 110.5 c 128,-1,8
 810 -25 810 -25 583 -25 c 0,9,10
 415 -25 415 -25 290 57 c 128,-1,11
 165 139 165 139 99 309 c 1,12,-1
 223 359 l 1,13,14
 280 234 280 234 372.5 163.5 c 128,-1,15
 465 93 465 93 574 93 c 0,16,17
 737 93 737 93 830 198 c 128,-1,18
 923 303 923 303 923 453 c 0,19,20
 924 594 924 594 844 698 c 0,21,22
 760 808 760 808 599.5 808 c 128,-1,23
 439 808 439 808 276 685 c 1,24,-1
 185 744 l 1,25,-1
 281 1464 l 1,26,-1
 982 1464 l 1,27,-1
 982 1337 l 1,28,-1
 412 1337 l 1,29,-1
 343 856 l 1,30,-1
 348 858 l 1,0,1
EndSplineSet
EndChar

StartChar: six
Encoding: 54 54 26
Width: 1202
GlyphClass: 2
Flags: HW
LayerCount: 2
Fore
SplineSet
290 828 m 1,0,1
 454 946 454 946 622 946 c 0,2,3
 812 946 812 946 945 830 c 0,4,5
 1009 774 1009 774 1046 684.5 c 128,-1,6
 1083 595 1083 595 1083 501.5 c 128,-1,7
 1083 408 1083 408 1064 335 c 128,-1,8
 1045 262 1045 262 1006 196.5 c 0,9,10
 968 131 968 131 914 82 c 0,11,12
 797 -25 797 -25 623 -25 c 0,13,14
 373 -25 373 -25 248.5 165 c 128,-1,15
 124 355 124 355 124 712 c 128,-1,16
 124 1069 124 1069 267 1280 c 128,-1,17
 410 1491 410 1491 641 1491 c 0,18,19
 791 1491 791 1491 963 1396 c 1,20,-1
 922 1285 l 1,21,22
 768 1374 768 1374 643 1374 c 0,23,24
 488 1374 488 1374 397 1237 c 128,-1,25
 306 1100 306 1100 290 828 c 1,0,1
846 742.5 m 128,-1,27
 760 827 760 827 608.5 827 c 128,-1,28
 457 827 457 827 284 698 c 1,29,30
 283 674 283 674 283 599.5 c 128,-1,31
 283 525 283 525 292 454.5 c 128,-1,32
 301 384 301 384 325 316 c 0,33,34
 348 248 348 248 386 200 c 0,35,36
 470 93 470 93 611.5 93 c 128,-1,37
 753 93 753 93 842.5 197.5 c 128,-1,38
 932 302 932 302 932 480 c 128,-1,26
 932 658 932 658 846 742.5 c 128,-1,27
EndSplineSet
EndChar

StartChar: seven
Encoding: 55 55 27
Width: 948
GlyphClass: 2
Flags: HW
LayerCount: 2
Fore
SplineSet
148 1352 m 1,0,-1
 136 1464 l 1,1,-1
 874 1464 l 1,2,-1
 874 1351 l 1,3,-1
 317 -1 l 1,4,-1
 159 1 l 1,5,-1
 722 1352 l 1,6,-1
 148 1352 l 1,0,-1
EndSplineSet
EndChar

StartChar: eight
Encoding: 56 56 28
Width: 1160
GlyphClass: 2
Flags: HW
LayerCount: 2
Fore
SplineSet
501 716 m 1,0,1
 388 648 388 648 326 554 c 128,-1,2
 264 460 264 460 264 356.5 c 128,-1,3
 264 253 264 253 350.5 173 c 128,-1,4
 437 93 437 93 584 93 c 0,5,6
 766 92 766 92 864 218 c 0,7,8
 914 282 914 282 914 348 c 128,-1,9
 914 414 914 414 901.5 453 c 128,-1,10
 889 492 889 492 870 521.5 c 128,-1,11
 851 551 851 551 818 577 c 128,-1,12
 785 603 785 603 754.5 621.5 c 128,-1,13
 724 640 724 640 676 658 c 0,14,15
 610 684 610 684 501 716 c 1,0,1
106 351 m 0,16,17
 106 589 106 589 398 759 c 1,18,19
 304 802 304 802 241 864 c 0,20,21
 127 975 127 975 127 1088.5 c 128,-1,22
 127 1202 127 1202 166 1279 c 128,-1,23
 205 1356 205 1356 272 1401 c 0,24,25
 406 1491 406 1491 594 1491 c 0,26,27
 785 1491 785 1491 913 1399 c 0,28,29
 1049 1301 1049 1301 1049 1099 c 0,30,31
 1049 1030 1049 1030 1018.5 967.5 c 0,32,33
 988 904 988 904 941 862 c 0,34,35
 850 780 850 780 768 751 c 1,36,37
 951 662 951 662 1011 564 c 0,38,39
 1062 480 1062 480 1062 384 c 128,-1,40
 1062 288 1062 288 1029 218 c 128,-1,41
 996 148 996 148 935 94 c 0,42,43
 802 -24 802 -24 581.5 -24.5 c 128,-1,44
 361 -25 361 -25 233.5 86 c 128,-1,45
 106 197 106 197 106 351 c 0,16,17
659 792 m 1,46,47
 899 912 899 912 899 1101 c 0,48,49
 899 1236 899 1236 812.5 1305 c 128,-1,50
 726 1374 726 1374 594 1374 c 0,51,52
 470 1374 470 1374 379 1314 c 0,53,54
 278 1247 278 1247 278 1104 c 0,55,56
 278 1010 278 1010 332 953 c 0,57,58
 375 908 375 908 411 889 c 128,-1,59
 447 870 447 870 468.5 860 c 128,-1,60
 490 850 490 850 529 836 c 0,61,62
 569 822 569 822 659 792 c 1,46,47
EndSplineSet
EndChar

StartChar: nine
Encoding: 57 57 29
Width: 1197
GlyphClass: 2
Flags: HW
LayerCount: 2
Fore
SplineSet
912 643 m 1,0,1
 751 525 751 525 591 525 c 0,2,3
 396 525 396 525 260 641 c 0,4,5
 194 697 194 697 156.5 786.5 c 128,-1,6
 119 876 119 876 119 970 c 128,-1,7
 119 1064 119 1064 135.5 1135.5 c 128,-1,8
 152 1207 152 1207 189 1272.5 c 128,-1,9
 226 1338 226 1338 280 1386 c 0,10,11
 396 1492 396 1492 587 1492 c 0,12,13
 836 1492 836 1492 954.5 1309.5 c 128,-1,14
 1073 1127 1073 1127 1073 759 c 128,-1,15
 1073 391 1073 391 931.5 183 c 128,-1,16
 790 -25 790 -25 555 -25 c 0,17,18
 405 -25 405 -25 227 69 c 1,19,-1
 268 180 l 1,20,21
 427 93 427 93 550 93 c 0,22,23
 706 93 706 93 801 232.5 c 128,-1,24
 896 372 896 372 912 643 c 1,0,1
593 644 m 0,25,26
 752 644 752 644 918 773 c 1,27,28
 919 797 919 797 919 871 c 128,-1,29
 919 945 919 945 909.5 1015 c 128,-1,30
 900 1085 900 1085 876 1152.5 c 128,-1,31
 852 1220 852 1220 814 1268 c 0,32,33
 731 1374 731 1374 589.5 1374 c 128,-1,34
 448 1374 448 1374 359 1270 c 128,-1,35
 270 1166 270 1166 270 991 c 0,36,37
 270 732 270 732 467 664 c 0,38,39
 524 644 524 644 593 644 c 0,25,26
EndSplineSet
EndChar

StartChar: colon
Encoding: 58 58 30
Width: 482
GlyphClass: 2
Flags: HW
LayerCount: 2
Fore
SplineSet
332 387 m 1,0,-1
 332 171 l 1,1,-1
 159 171 l 1,2,-1
 159 387 l 1,3,-1
 332 387 l 1,0,-1
159 1024 m 1,4,-1
 332 1024 l 1,5,-1
 332 808 l 1,6,-1
 159 808 l 1,7,-1
 159 1024 l 1,4,-1
EndSplineSet
EndChar

StartChar: semicolon
Encoding: 59 59 31
Width: 478
GlyphClass: 2
Flags: HW
LayerCount: 2
Fore
SplineSet
150 219 m 1,0,-1
 350 219 l 1,1,-1
 350 134 l 1,2,3
 345 -19 345 -19 331 -78 c 0,4,5
 303 -192 303 -192 213 -254 c 1,6,-1
 164 -192 l 1,7,8
 191 -171 191 -171 216.5 -117.5 c 128,-1,9
 242 -64 242 -64 244 16 c 1,10,-1
 150 29 l 1,11,-1
 150 219 l 1,0,-1
332 1024 m 1,12,-1
 332 808 l 1,13,-1
 159 808 l 1,14,-1
 159 1024 l 1,15,-1
 332 1024 l 1,12,-1
EndSplineSet
EndChar

StartChar: less
Encoding: 60 60 32
Width: 1051
GlyphClass: 2
Flags: HW
LayerCount: 2
Fore
SplineSet
998 241 m 1,0,-1
 998 103 l 1,1,-1
 49 469 l 1,2,-1
 49 595 l 1,3,-1
 998 950 l 1,4,-1
 998 798 l 1,5,-1
 211 525 l 1,6,-1
 998 241 l 1,0,-1
EndSplineSet
EndChar

StartChar: equal
Encoding: 61 61 33
Width: 820
GlyphClass: 2
Flags: HW
LayerCount: 2
Fore
SplineSet
135 550 m 1,0,-1
 135 650 l 1,1,-1
 685 650 l 1,2,-1
 685 550 l 1,3,-1
 135 550 l 1,0,-1
135 300 m 1,4,-1
 135 400 l 1,5,-1
 685 400 l 1,6,-1
 685 300 l 1,7,-1
 135 300 l 1,4,-1
EndSplineSet
EndChar

StartChar: greater
Encoding: 62 62 34
Width: 1051
GlyphClass: 2
Flags: HW
LayerCount: 2
Fore
SplineSet
53 812 m 1,0,-1
 53 950 l 1,1,-1
 1002 584 l 1,2,-1
 1002 458 l 1,3,-1
 53 103 l 1,4,-1
 53 255 l 1,5,-1
 840 528 l 1,6,-1
 53 812 l 1,0,-1
EndSplineSet
EndChar

StartChar: question
Encoding: 63 63 35
Width: 1010
GlyphClass: 2
Flags: HW
LayerCount: 2
Fore
SplineSet
780 1192 m 0,0,1
 796 1144 796 1144 795.5 1081.5 c 128,-1,2
 795 1019 795 1019 773 960 c 128,-1,3
 751 901 751 901 708 843 c 0,4,5
 666 785 666 785 616 726 c 0,6,7
 474 557 474 557 366 358 c 1,8,-1
 515 358 l 1,9,10
 604 510 604 510 756 693 c 0,11,12
 884 848 884 848 912.5 931.5 c 128,-1,13
 941 1015 941 1015 941 1084 c 128,-1,14
 941 1153 941 1153 926 1209 c 128,-1,15
 911 1265 911 1265 876.5 1316.5 c 128,-1,16
 842 1368 842 1368 792 1406 c 0,17,18
 681 1491 681 1491 497 1491 c 0,19,20
 187 1491 187 1491 35 1250 c 1,21,-1
 134 1177 l 1,22,23
 264 1374 264 1374 488 1374 c 0,24,25
 721 1374 721 1374 780 1192 c 0,0,1
350 0 m 1,26,-1
 514 0 l 1,27,-1
 514 215 l 1,28,-1
 350 215 l 1,29,-1
 350 0 l 1,26,-1
EndSplineSet
EndChar

StartChar: at
Encoding: 64 64 36
Width: 1704
GlyphClass: 2
Flags: HW
LayerCount: 2
Fore
SplineSet
1091 252 m 1,0,1
 1022 149 1022 149 944 108 c 128,-1,2
 866 67 866 67 763.5 67 c 128,-1,3
 661 67 661 67 587 119 c 128,-1,4
 513 171 513 171 479 250.5 c 128,-1,5
 445 330 445 330 445 425 c 128,-1,6
 445 520 445 520 476 612.5 c 128,-1,7
 507 705 507 705 560.5 778 c 128,-1,8
 614 851 614 851 694.5 895.5 c 128,-1,9
 775 940 775 940 866 940 c 0,10,11
 1002 940 1002 940 1145 844 c 1,12,-1
 1170 917 l 1,13,-1
 1268 917 l 1,14,-1
 1176 326 l 1,15,16
 1176 279 1176 279 1206 242 c 128,-1,17
 1236 205 1236 205 1276 205 c 0,18,19
 1355 205 1355 205 1414 311.5 c 128,-1,20
 1473 418 1473 418 1473 574.5 c 128,-1,21
 1473 731 1473 731 1424 835 c 128,-1,22
 1375 939 1375 939 1293 1007 c 0,23,24
 1119 1151 1119 1151 886 1151 c 0,25,26
 548 1152 548 1152 354 850 c 0,27,28
 240 674 240 674 240 467 c 0,29,30
 240 227 240 227 382 60 c 0,31,32
 452 -23 452 -23 569.5 -71.5 c 128,-1,33
 687 -120 687 -120 855.5 -120 c 128,-1,34
 1024 -120 1024 -120 1248 -30 c 1,35,-1
 1288 -105 l 1,36,37
 1053 -223 1053 -223 842 -223 c 0,38,39
 419 -224 419 -224 226 74 c 0,40,41
 114 247 114 247 114 476 c 0,42,43
 114 716 114 716 244 914 c 0,44,45
 386 1130 386 1130 615 1212 c 0,46,47
 740 1256 740 1256 881 1256 c 128,-1,48
 1022 1256 1022 1256 1151 1207.5 c 128,-1,49
 1280 1159 1280 1159 1377 1074 c 128,-1,50
 1474 989 1474 989 1532.5 864 c 128,-1,51
 1591 739 1591 739 1591 596 c 0,52,53
 1591 365 1591 365 1497 238.5 c 128,-1,54
 1403 112 1403 112 1258 112 c 0,55,56
 1207 112 1207 112 1159 145.5 c 128,-1,57
 1111 179 1111 179 1091 252 c 1,0,1
1123 763 m 1,58,59
 1000 846 1000 846 873 846 c 128,-1,60
 746 846 746 846 658 723.5 c 128,-1,61
 570 601 570 601 570 422 c 0,62,63
 570 314 570 314 623.5 238.5 c 128,-1,64
 677 163 677 163 779 163 c 0,65,66
 845 163 845 163 898 197.5 c 128,-1,67
 951 232 951 232 983 269 c 0,68,69
 1057 355 1057 355 1079 504 c 1,70,-1
 1123 763 l 1,58,59
EndSplineSet
EndChar

StartChar: A
Encoding: 65 65 37
Width: 1218
GlyphClass: 2
Flags: HW
LayerCount: 2
Fore
SplineSet
26 0 m 1,0,-1
 512 1464 l 1,1,-1
 704 1464 l 1,2,-1
 1192 0 l 1,3,-1
 1042 0 l 1,4,-1
 908 399 l 1,5,-1
 300 399 l 1,6,-1
 172 0 l 1,7,-1
 26 0 l 1,0,-1
603 1362 m 1,8,9
 588 1316 588 1316 553.5 1203.5 c 128,-1,10
 519 1091 519 1091 503 1040 c 2,11,-1
 334 508 l 1,12,-1
 874 508 l 1,13,-1
 704 1041 l 2,14,15
 646 1221 646 1221 603 1362 c 1,8,9
EndSplineSet
EndChar

StartChar: B
Encoding: 66 66 38
Width: 1295
GlyphClass: 2
Flags: HW
LayerCount: 2
Fore
SplineSet
293 1352 m 1,0,-1
 293 837 l 1,1,-1
 521 837 l 2,2,3
 711 837 711 837 764.5 844 c 128,-1,4
 818 851 818 851 853 858 c 128,-1,5
 888 865 888 865 909.5 875 c 128,-1,6
 931 885 931 885 953 899.5 c 128,-1,7
 975 914 975 914 988 933 c 0,8,9
 1002 952 1002 952 1012 977 c 0,10,11
 1032 1023 1032 1023 1031.5 1081.5 c 128,-1,12
 1031 1140 1031 1140 1023.5 1172.5 c 128,-1,13
 1016 1205 1016 1205 1003.5 1229.5 c 128,-1,14
 991 1254 991 1254 969.5 1273 c 128,-1,15
 948 1292 948 1292 926.5 1305 c 128,-1,16
 905 1318 905 1318 872.5 1327 c 128,-1,17
 840 1336 840 1336 812.5 1341 c 0,18,19
 786 1346 786 1346 744 1348 c 0,20,21
 686 1352 686 1352 594 1352 c 2,22,-1
 293 1352 l 1,0,-1
294 730 m 1,23,-1
 294 112 l 1,24,-1
 608 112 l 2,25,26
 801 112 801 112 883 140 c 0,27,28
 976 172 976 172 1017 228 c 0,29,30
 1069 299 1069 299 1069 415 c 0,31,32
 1069 566 1069 566 1002 632 c 0,33,34
 952 681 952 681 906 695.5 c 128,-1,35
 860 710 860 710 829.5 716 c 128,-1,36
 799 722 799 722 754 725 c 0,37,38
 679 730 679 730 589 730 c 2,39,-1
 294 730 l 1,23,-1
148 0 m 1,40,-1
 148 1464 l 1,41,-1
 587 1464 l 2,42,43
 822 1464 822 1464 944 1420 c 0,44,45
 1054 1380 1054 1380 1108 1309 c 0,46,47
 1170 1226 1170 1226 1170 1095 c 0,48,49
 1170 837 1170 837 899 790 c 1,50,51
 1056 759 1056 759 1135 660 c 128,-1,52
 1214 561 1214 561 1214 425.5 c 128,-1,53
 1214 290 1214 290 1176 210 c 128,-1,54
 1138 130 1138 130 1053 83.5 c 128,-1,55
 968 37 968 37 849 18.5 c 128,-1,56
 730 0 730 0 551 0 c 2,57,-1
 148 0 l 1,40,-1
EndSplineSet
EndChar

StartChar: C
Encoding: 67 67 39
Width: 1350
GlyphClass: 2
Flags: HW
LayerCount: 2
Fore
SplineSet
738 1491 m 0,0,1
 937 1491 937 1491 1076.5 1392.5 c 128,-1,2
 1216 1294 1216 1294 1269 1102 c 1,3,-1
 1135 1071 l 1,4,5
 1099 1211 1099 1211 999 1292.5 c 128,-1,6
 899 1374 899 1374 733 1374 c 0,7,8
 484 1374 484 1374 375.5 1212 c 128,-1,9
 267 1050 267 1050 267 738 c 0,10,11
 268 334 268 334 414 196 c 0,12,13
 524 93 524 93 736 93 c 0,14,15
 1047 93 1047 93 1149 377 c 1,16,-1
 1274 338 l 1,17,18
 1214 157 1214 157 1070.5 66 c 128,-1,19
 927 -25 927 -25 728 -25 c 0,20,21
 418 -25 418 -25 266 156.5 c 128,-1,22
 114 338 114 338 114 731 c 128,-1,23
 114 1124 114 1124 277 1307.5 c 128,-1,24
 440 1491 440 1491 738 1491 c 0,0,1
EndSplineSet
EndChar

StartChar: D
Encoding: 68 68 40
Width: 1400
GlyphClass: 2
Flags: HW
LayerCount: 2
Fore
SplineSet
653 1352 m 2,0,-1
 294 1352 l 1,1,-1
 294 112 l 1,2,-1
 597 112 l 2,3,4
 752 112 752 112 856 146 c 128,-1,5
 960 180 960 180 1024.5 257 c 128,-1,6
 1089 334 1089 334 1116.5 449.5 c 128,-1,7
 1144 565 1144 565 1144 712.5 c 128,-1,8
 1144 860 1144 860 1130 953 c 128,-1,9
 1116 1046 1116 1046 1082 1123.5 c 128,-1,10
 1048 1201 1048 1201 992 1250 c 0,11,12
 875 1352 875 1352 653 1352 c 2,0,-1
148 1464 m 1,13,-1
 652 1464 l 2,14,15
 968 1464 968 1464 1124 1304 c 0,16,17
 1288 1137 1288 1137 1287 738 c 0,18,19
 1288 219 1288 219 1008 73 c 0,20,21
 868 0 868 0 645 0 c 2,22,-1
 148 0 l 1,23,-1
 148 1464 l 1,13,-1
EndSplineSet
EndChar

StartChar: E
Encoding: 69 69 41
Width: 1143
GlyphClass: 2
Flags: HW
LayerCount: 2
Fore
SplineSet
1128 0 m 1,0,-1
 148 0 l 1,1,-1
 148 1464 l 1,2,-1
 1117 1464 l 1,3,-1
 1117 1352 l 1,4,-1
 294 1352 l 1,5,-1
 294 838 l 1,6,-1
 1010 838 l 1,7,-1
 1010 723 l 1,8,-1
 294 723 l 1,9,-1
 294 112 l 1,10,-1
 1128 112 l 1,11,-1
 1128 0 l 1,0,-1
EndSplineSet
EndChar

StartChar: F
Encoding: 70 70 42
Width: 1094
GlyphClass: 2
Flags: HW
LayerCount: 2
Fore
SplineSet
1117 1352 m 1,0,-1
 294 1352 l 1,1,-1
 294 830 l 1,2,-1
 1009 830 l 1,3,-1
 1009 716 l 1,4,-1
 294 716 l 1,5,-1
 294 0 l 1,6,-1
 148 0 l 1,7,-1
 148 1464 l 1,8,-1
 1117 1464 l 1,9,-1
 1117 1352 l 1,0,-1
EndSplineSet
EndChar

StartChar: G
Encoding: 71 71 43
Width: 1374
GlyphClass: 2
Flags: HW
LayerCount: 2
Fore
SplineSet
479 1448 m 0,0,1
 591 1492 591 1492 749.5 1491.5 c 128,-1,2
 908 1491 908 1491 1041 1404.5 c 128,-1,3
 1174 1318 1174 1318 1236 1150 c 1,4,-1
 1114 1096 l 1,5,6
 1011 1374 1011 1374 734 1374 c 0,7,8
 489 1374 489 1374 378 1212 c 128,-1,9
 267 1050 267 1050 267 721 c 0,10,11
 267 245 267 245 506 134 c 0,12,13
 594 93 594 93 689 93 c 128,-1,14
 784 93 784 93 849.5 114.5 c 128,-1,15
 915 136 915 136 973 177.5 c 128,-1,16
 1031 219 1031 219 1067.5 288.5 c 128,-1,17
 1104 358 1104 358 1104 444 c 2,18,-1
 1104 664 l 1,19,-1
 732 664 l 1,20,-1
 732 789 l 1,21,-1
 1248 789 l 1,22,-1
 1248 581 l 1,23,-1
 1238 0 l 1,24,-1
 1145 0 l 1,25,-1
 1113 191 l 1,26,27
 1056 95 1056 95 945.5 35 c 128,-1,28
 835 -25 835 -25 701 -25 c 0,29,30
 114 -25 114 -25 114 722 c 0,31,32
 114 1306 114 1306 479 1448 c 0,0,1
EndSplineSet
EndChar

StartChar: H
Encoding: 72 72 44
Width: 1457
GlyphClass: 2
Flags: HW
LayerCount: 2
Fore
SplineSet
1164 836 m 1,0,-1
 1164 1464 l 1,1,-1
 1309 1464 l 1,2,-1
 1309 0 l 1,3,-1
 1164 0 l 1,4,-1
 1164 720 l 1,5,-1
 294 720 l 1,6,-1
 294 0 l 1,7,-1
 148 0 l 1,8,-1
 148 1464 l 1,9,-1
 294 1464 l 1,10,-1
 294 836 l 1,11,-1
 1164 836 l 1,0,-1
EndSplineSet
EndChar

StartChar: I
Encoding: 73 73 45
Width: 464
GlyphClass: 2
Flags: HW
LayerCount: 2
Fore
SplineSet
309 0 m 1,0,-1
 163 0 l 1,1,-1
 163 1464 l 1,2,-1
 309 1464 l 1,3,-1
 309 0 l 1,0,-1
EndSplineSet
EndChar

StartChar: J
Encoding: 74 74 46
Width: 954
GlyphClass: 2
Flags: HW
LayerCount: 2
Fore
SplineSet
21 334 m 1,0,-1
 151 369 l 1,1,2
 182 231 182 231 242 162 c 128,-1,3
 302 93 302 93 417 93 c 0,4,5
 534 93 534 93 590 159 c 0,6,7
 646 226 646 226 657 302 c 0,8,9
 673 413 673 413 673 541 c 2,10,-1
 673 1464 l 1,11,-1
 818 1464 l 1,12,-1
 818 544 l 2,13,14
 818 250 818 250 725.5 112.5 c 128,-1,15
 633 -25 633 -25 405 -25 c 0,16,17
 92 -25 92 -25 21 334 c 1,0,-1
EndSplineSet
EndChar

StartChar: K
Encoding: 75 75 47
Width: 1252
GlyphClass: 2
Flags: HW
LayerCount: 2
Fore
SplineSet
1180 1464 m 1,0,-1
 665 926 l 1,1,-1
 1244 0 l 1,2,-1
 1077 0 l 1,3,-1
 562 828 l 1,4,-1
 294 553 l 1,5,-1
 294 0 l 1,6,-1
 148 0 l 1,7,-1
 148 1464 l 1,8,-1
 294 1464 l 1,9,-1
 294 726 l 1,10,-1
 1003 1464 l 1,11,-1
 1180 1464 l 1,0,-1
EndSplineSet
EndChar

StartChar: L
Encoding: 76 76 48
Width: 1020
GlyphClass: 2
Flags: HW
LayerCount: 2
Fore
SplineSet
1041 0 m 1,0,-1
 148 0 l 1,1,-1
 148 1464 l 1,2,-1
 294 1464 l 1,3,-1
 294 112 l 1,4,-1
 1041 112 l 1,5,-1
 1041 0 l 1,0,-1
EndSplineSet
EndChar

StartChar: M
Encoding: 77 77 49
Width: 1645
GlyphClass: 2
Flags: HW
LayerCount: 2
Fore
SplineSet
148 0 m 1,0,-1
 148 1464 l 1,1,-1
 359 1464 l 1,2,-1
 826 405 l 1,3,-1
 1306 1464 l 1,4,-1
 1497 1464 l 1,5,-1
 1497 0 l 1,6,-1
 1363 0 l 1,7,-1
 1363 1277 l 1,8,-1
 888 250 l 1,9,-1
 753 250 l 1,10,-1
 287 1282 l 1,11,-1
 287 0 l 1,12,-1
 148 0 l 1,0,-1
EndSplineSet
EndChar

StartChar: N
Encoding: 78 78 50
Width: 1491
GlyphClass: 2
Flags: HW
LayerCount: 2
Fore
SplineSet
148 0 m 1,0,-1
 148 1464 l 1,1,-1
 311 1464 l 1,2,-1
 1214 221 l 1,3,4
 1214 1464 l 1,5,-1
 1343 1464 l 1,6,-1
 1343 0 l 1,7,-1
 1211 0 l 1,8,-1
 281 1290 l 1,9,10
 281 0 l 1,11,-1
 148 0 l 1,0,-1
EndSplineSet
EndChar

StartChar: O
Encoding: 79 79 51
Width: 1449
GlyphClass: 2
Flags: HW
LayerCount: 2
Fore
SplineSet
467.5 1449.5 m 128,-1,1
 578 1491 578 1491 723.5 1491 c 128,-1,2
 869 1491 869 1491 979.5 1449 c 128,-1,3
 1090 1407 1090 1407 1171 1319 c 0,4,5
 1335 1141 1335 1141 1335 741 c 128,-1,6
 1335 341 1335 341 1180 158 c 128,-1,7
 1025 -25 1025 -25 722 -25 c 0,8,9
 266 -25 266 -25 154 387 c 0,10,11
 114 535 114 535 114 737.5 c 128,-1,12
 114 940 114 940 155.5 1085.5 c 128,-1,13
 197 1231 197 1231 277 1319.5 c 128,-1,0
 357 1408 357 1408 467.5 1449.5 c 128,-1,1
722 1374 m 0,14,15
 618 1374 618 1374 539.5 1345 c 128,-1,16
 461 1316 461 1316 409.5 1263.5 c 128,-1,17
 358 1211 358 1211 326 1131 c 0,18,19
 267 983 267 983 267 741 c 0,20,21
 267 404 267 404 371 248.5 c 128,-1,22
 475 93 475 93 723.5 93 c 128,-1,23
 972 93 972 93 1076 247 c 128,-1,24
 1180 401 1180 401 1180 740 c 0,25,26
 1180 1118 1180 1118 1036 1264 c 0,27,28
 926 1374 926 1374 722 1374 c 0,14,15
EndSplineSet
EndChar

StartChar: P
Encoding: 80 80 52
Width: 1253
GlyphClass: 2
Flags: HW
LayerCount: 2
Fore
SplineSet
148 0 m 1,0,-1
 148 1464 l 1,1,-1
 579 1464 l 2,2,3
 937 1464 937 1464 1084 1374.5 c 128,-1,4
 1231 1285 1231 1285 1231 1063 c 0,5,6
 1231 866 1231 866 1129 766 c 0,7,8
 1034 673 1034 673 791 647 c 0,9,10
 679 635 679 635 520 635 c 2,11,-1
 298 635 l 1,12,-1
 298 0 l 1,13,-1
 148 0 l 1,0,-1
304 1352 m 1,14,-1
 304 748 l 1,15,-1
 576 748 l 2,16,17
 848 748 848 748 964 809 c 0,18,19
 1028 843 1028 843 1055.5 902.5 c 128,-1,20
 1083 962 1083 962 1083 1046.5 c 128,-1,21
 1083 1131 1083 1131 1064 1182.5 c 128,-1,22
 1045 1234 1045 1234 1008.5 1267.5 c 0,23,24
 972 1302 972 1302 906 1320 c 0,25,26
 790 1352 790 1352 556 1352 c 2,27,-1
 304 1352 l 1,14,-1
EndSplineSet
EndChar

StartChar: Q
Encoding: 81 81 53
Width: 1449
GlyphClass: 2
Flags: HW
LayerCount: 2
Fore
SplineSet
1266 -345 m 1,0,-1
 1016 30 l 1,1,2
 896 -25 896 -25 735.5 -25 c 128,-1,3
 575 -25 575 -25 465 17 c 128,-1,4
 355 59 355 59 275 149 c 0,5,6
 114 330 114 330 114 740 c 0,7,8
 114 1318 114 1318 468 1450 c 0,9,10
 578 1492 578 1492 723.5 1491.5 c 128,-1,11
 869 1491 869 1491 979.5 1449 c 128,-1,12
 1090 1407 1090 1407 1171 1319 c 0,13,14
 1335 1141 1335 1141 1335 741 c 0,15,16
 1335 274 1335 274 1116 94 c 1,17,-1
 1374 -263 l 1,18,-1
 1266 -345 l 1,0,-1
722 1374 m 0,19,20
 618 1374 618 1374 539.5 1345 c 128,-1,21
 461 1316 461 1316 409.5 1263.5 c 128,-1,22
 358 1211 358 1211 326 1131 c 0,23,24
 267 983 267 983 267 741 c 0,25,26
 267 404 267 404 371 248.5 c 128,-1,27
 475 93 475 93 723.5 93 c 128,-1,28
 972 93 972 93 1076 247 c 128,-1,29
 1180 401 1180 401 1180 740 c 0,30,31
 1180 1118 1180 1118 1036 1264 c 0,32,33
 926 1374 926 1374 722 1374 c 0,19,20
EndSplineSet
EndChar

StartChar: R
Encoding: 82 82 54
Width: 1286
GlyphClass: 2
Flags: HW
LayerCount: 2
Fore
SplineSet
1214 1075 m 0,0,1
 1214 925 1214 925 1136.5 831.5 c 128,-1,2
 1059 738 1059 738 898 695 c 1,3,-1
 1238 0 l 1,4,-1
 1082 0 l 1,5,-1
 750 673 l 1,6,-1
 293 673 l 1,7,-1
 293 0 l 1,8,-1
 148 0 l 1,9,-1
 148 1464 l 1,10,-1
 677 1464 l 2,11,12
 962 1464 962 1464 1088 1369.5 c 128,-1,13
 1214 1275 1214 1275 1214 1075 c 0,0,1
293 1352 m 1,14,-1
 293 786 l 1,15,-1
 644 786 l 2,16,17
 884 786 884 786 980 862 c 0,18,19
 1066 930 1066 930 1065 1073 c 0,20,21
 1066 1229 1066 1229 972 1291 c 0,22,23
 914 1330 914 1330 852 1339 c 0,24,25
 763 1352 763 1352 668 1352 c 2,26,-1
 293 1352 l 1,14,-1
EndSplineSet
EndChar

StartChar: S
Encoding: 83 83 55
Width: 1216
GlyphClass: 2
Flags: HW
LayerCount: 2
Fore
SplineSet
168 426 m 1,0,1
 257 93 257 93 630 93 c 0,2,3
 774 93 774 93 883 155 c 0,4,5
 939 187 939 187 972 247 c 128,-1,6
 1005 307 1005 307 1005 368 c 128,-1,7
 1005 429 1005 429 994 463 c 128,-1,8
 983 497 983 497 971 521.5 c 128,-1,9
 959 546 959 546 923 572 c 128,-1,10
 887 598 887 598 866 612.5 c 128,-1,11
 845 627 845 627 785 651 c 0,12,13
 635 711 635 711 565 731 c 1,14,15
 388 794 388 794 318 833 c 0,16,17
 131 939 131 939 131 1125 c 0,18,19
 131 1216 131 1216 172 1288 c 0,20,21
 212 1360 212 1360 282 1404 c 0,22,23
 422 1492 422 1492 608.5 1491.5 c 128,-1,24
 795 1491 795 1491 917.5 1432 c 128,-1,25
 1040 1373 1040 1373 1127 1240 c 1,26,-1
 1019 1160 l 1,27,28
 960 1265 960 1265 860 1319.5 c 128,-1,29
 760 1374 760 1374 649 1374 c 128,-1,30
 538 1374 538 1374 460.5 1351 c 128,-1,31
 383 1328 383 1328 333.5 1273.5 c 128,-1,32
 284 1219 284 1219 284 1153.5 c 128,-1,33
 284 1088 284 1088 305 1048 c 128,-1,34
 326 1008 326 1008 355.5 982.5 c 128,-1,35
 385 957 385 957 434.5 932.5 c 128,-1,36
 484 908 484 908 523.5 894.5 c 128,-1,37
 563 881 563 881 622 861.5 c 128,-1,38
 681 842 681 842 730.5 822.5 c 128,-1,39
 780 803 780 803 823 785.5 c 128,-1,40
 866 768 866 768 918 742 c 128,-1,41
 970 716 970 716 1002 693.5 c 128,-1,42
 1034 671 1034 671 1067 639 c 128,-1,43
 1100 607 1100 607 1118 572 c 0,44,45
 1158 491 1158 491 1158 393 c 0,46,47
 1158 196 1158 196 1010.5 85.5 c 128,-1,48
 863 -25 863 -25 615 -25 c 0,49,50
 368 -25 368 -25 205 101 c 0,51,52
 76 200 76 200 45 373 c 1,53,-1
 168 426 l 1,0,1
EndSplineSet
EndChar

StartChar: T
Encoding: 84 84 56
Width: 1119
GlyphClass: 2
Flags: HW
LayerCount: 2
Fore
SplineSet
9 1352 m 1,0,-1
 9 1464 l 1,1,-1
 1110 1464 l 1,2,-1
 1110 1352 l 1,3,-1
 636 1352 l 1,4,-1
 636 0 l 1,5,-1
 483 0 l 1,6,-1
 483 1352 l 1,7,-1
 9 1352 l 1,0,-1
EndSplineSet
EndChar

StartChar: U
Encoding: 85 85 57
Width: 1346
GlyphClass: 2
Flags: HW
LayerCount: 2
Fore
SplineSet
123 574 m 2,0,-1
 123 1464 l 1,1,-1
 283 1464 l 1,2,-1
 283 598 l 2,3,4
 283 406 283 406 318 316.5 c 128,-1,5
 353 227 353 227 396 185 c 128,-1,6
 439 143 439 143 509.5 118 c 128,-1,7
 580 93 580 93 676 93 c 128,-1,8
 772 93 772 93 842 118 c 128,-1,9
 912 143 912 143 954.5 185 c 0,10,11
 996 228 996 228 1022 294 c 0,12,13
 1066 407 1066 407 1066 598 c 2,14,-1
 1066 1464 l 1,15,-1
 1223 1464 l 1,16,-1
 1223 581 l 2,17,18
 1223 268 1223 268 1088 121.5 c 128,-1,19
 953 -25 953 -25 673.5 -25 c 128,-1,20
 394 -25 394 -25 258.5 118.5 c 128,-1,21
 123 262 123 262 123 574 c 2,0,-1
EndSplineSet
EndChar

StartChar: V
Encoding: 86 86 58
Width: 1164
GlyphClass: 2
Flags: HW
LayerCount: 2
Fore
SplineSet
513 0 m 1,0,-1
 12 1464 l 1,1,-1
 167 1464 l 1,2,-1
 460 596 l 2,3,4
 485 525 485 525 586 216 c 1,5,6
 636 366 636 366 716 596 c 1,7,-1
 1004 1464 l 1,8,-1
 1152 1464 l 1,9,-1
 651 0 l 1,10,-1
 513 0 l 1,0,-1
EndSplineSet
EndChar

StartChar: W
Encoding: 87 87 59
Width: 1797
GlyphClass: 2
Flags: HW
LayerCount: 2
Fore
SplineSet
907 1187 m 1,0,-1
 540 0 l 1,1,-1
 427 0 l 1,2,-1
 12 1464 l 1,3,-1
 164 1464 l 1,4,5
 367 730 367 730 422.5 504 c 128,-1,6
 478 278 478 278 490 234 c 1,7,-1
 865 1464 l 1,8,-1
 969 1464 l 1,9,10
 1020 1275 1020 1275 1139 854 c 128,-1,11
 1258 433 1258 433 1316 217 c 1,12,13
 1364 394 1364 394 1474 818.5 c 128,-1,14
 1584 1243 1584 1243 1646 1464 c 1,15,-1
 1785 1464 l 1,16,-1
 1370 0 l 1,17,-1
 1244 0 l 1,18,19
 921 1134 921 1134 907 1187 c 1,0,-1
EndSplineSet
EndChar

StartChar: X
Encoding: 88 88 60
Width: 1245
GlyphClass: 2
Flags: HW
LayerCount: 2
Fore
SplineSet
626 889 m 1,0,-1
 1029 1464 l 1,1,-1
 1195 1464 l 1,2,-1
 706 767 l 1,3,-1
 1239 0 l 1,4,-1
 1066 0 l 1,5,-1
 620 641 l 1,6,-1
 173 0 l 1,7,-1
 6 0 l 1,8,-1
 540 763 l 1,9,-1
 51 1464 l 1,10,-1
 226 1464 l 1,11,-1
 626 889 l 1,0,-1
EndSplineSet
EndChar

StartChar: Y
Encoding: 89 89 61
Width: 1162
GlyphClass: 2
Flags: HW
LayerCount: 2
Fore
SplineSet
508 549 m 1,0,-1
 -4 1464 l 1,1,-1
 154 1464 l 1,2,-1
 582 682 l 1,3,-1
 1009 1464 l 1,4,-1
 1166 1464 l 1,5,-1
 654 548 l 1,6,-1
 654 0 l 1,7,-1
 508 0 l 1,8,-1
 508 549 l 1,0,-1
EndSplineSet
EndChar

StartChar: Z
Encoding: 90 90 62
Width: 1176
GlyphClass: 2
Flags: HW
LayerCount: 2
Fore
SplineSet
130 1352 m 1,0,-1
 130 1464 l 1,1,-1
 1136 1464 l 1,2,-1
 1136 1383 l 1,3,-1
 234 112 l 1,4,-1
 1141 112 l 1,5,-1
 1134 0 l 1,6,-1
 47 0 l 1,7,-1
 47 98 l 1,8,-1
 943 1352 l 1,9,-1
 130 1352 l 1,0,-1
EndSplineSet
EndChar

StartChar: bracketleft
Encoding: 91 91 63
Width: 708
GlyphClass: 2
Flags: HW
LayerCount: 2
Fore
SplineSet
132 -52 m 1,0,-1
 132 1480 l 1,1,-1
 590 1480 l 1,2,-1
 590 1374 l 1,3,-1
 277 1374 l 1,4,-1
 277 55 l 1,5,-1
 590 55 l 1,6,-1
 590 -52 l 1,7,-1
 132 -52 l 1,0,-1
EndSplineSet
EndChar

StartChar: backslash
Encoding: 92 92 64
Width: 632
GlyphClass: 2
Flags: HW
LayerCount: 2
Fore
SplineSet
588 -5 m 1,0,-1
 443 -5 l 1,1,-1
 46 1464 l 1,2,-1
 191 1464 l 1,3,-1
 588 -5 l 1,0,-1
EndSplineSet
EndChar

StartChar: bracketright
Encoding: 93 93 65
Width: 707
GlyphClass: 2
Flags: HW
LayerCount: 2
Fore
SplineSet
119 1374 m 1,0,-1
 119 1480 l 1,1,-1
 576 1480 l 1,2,-1
 576 -52 l 1,3,-1
 119 -52 l 1,4,-1
 119 55 l 1,5,-1
 431 55 l 1,6,-1
 431 1374 l 1,7,-1
 119 1374 l 1,0,-1
EndSplineSet
EndChar

StartChar: asciicircum
Encoding: 94 94 66
Width: 1053
GlyphClass: 2
Flags: HW
LayerCount: 2
Fore
SplineSet
241 100 m 1,0,-1
 103 100 l 1,1,-1
 469 999 l 1,2,-1
 595 999 l 1,3,-1
 950 100 l 1,4,-1
 798 100 l 1,5,-1
 525 837 l 1,6,-1
 241 100 l 1,0,-1
EndSplineSet
EndChar

StartChar: underscore
Encoding: 95 95 67
Width: 870
GlyphClass: 2
Flags: HW
LayerCount: 2
Fore
SplineSet
99 -1 m 1,0,-1
 750 -1 l 1,1,-1
 750 -99 l 1,2,-1
 99 -99 l 1,3,-1
 99 -1 l 1,0,-1
EndSplineSet
EndChar

StartChar: grave
Encoding: 96 96 68
Width: 496
GlyphClass: 2
Flags: HW
LayerCount: 2
Fore
SplineSet
47 1492 m 1,0,-1
 242 1492 l 1,1,-1
 447 1173 l 1,2,-1
 353 1172 l 1,3,-1
 47 1492 l 1,0,-1
EndSplineSet
EndChar

StartChar: a
Encoding: 97 97 69
Width: 1019
GlyphClass: 2
Flags: HW
LayerCount: 2
Fore
SplineSet
746 219 m 1,0,1
 573 73 573 73 414 73 c 0,2,3
 224 73 224 73 224 265 c 0,4,5
 224 340 224 340 272 380 c 0,6,7
 326 424 326 424 398 441 c 0,8,9
 508 469 508 469 648 490 c 2,10,-1
 746 505 l 1,11,-1
 746 219 l 1,0,1
771 0 m 1,12,-1
 888 0 l 1,13,-1
 888 673 l 2,14,15
 888 1044 888 1044 512 1044 c 0,16,17
 255 1044 255 1044 132 888 c 1,18,19
 217 808 217 808 217 807 c 1,20,21
 267 871 267 871 342.5 905.5 c 128,-1,22
 418 940 418 940 504 940 c 0,23,24
 636 940 636 940 691 876.5 c 128,-1,25
 746 813 746 813 746 643 c 2,26,-1
 746 601 l 1,27,-1
 647 586 l 2,28,29
 378 546 378 546 319.5 522 c 128,-1,30
 261 498 261 498 214 472.5 c 0,31,32
 167 446 167 446 145 416 c 0,33,34
 90 340 90 340 90 228.5 c 128,-1,35
 90 117 90 117 175.5 46 c 128,-1,36
 261 -25 261 -25 389 -25 c 0,37,38
 583 -25 583 -25 754 116 c 1,39,-1
 771 0 l 1,12,-1
EndSplineSet
EndChar

StartChar: b
Encoding: 98 98 70
Width: 1078
GlyphClass: 2
Flags: HW
LayerCount: 2
Fore
SplineSet
563 940 m 0,0,1
 688 940 688 940 764 820.5 c 128,-1,2
 840 701 840 701 840 510.5 c 128,-1,3
 840 320 840 320 766.5 200 c 128,-1,4
 693 80 693 80 565 80 c 0,5,6
 263 80 263 80 263 522 c 0,7,8
 264 783 264 783 402 886 c 0,9,10
 474 940 474 940 563 940 c 0,0,1
125 0 m 1,11,-1
 238 0 l 1,12,-1
 257 161 l 1,13,14
 294 71 294 71 381.5 23 c 128,-1,15
 469 -25 469 -25 580 -25 c 0,16,17
 773 -25 773 -25 878.5 118.5 c 128,-1,18
 984 262 984 262 984 509 c 128,-1,19
 984 756 984 756 879.5 900 c 128,-1,20
 775 1044 775 1044 589 1044 c 0,21,22
 481 1044 481 1044 396 998.5 c 128,-1,23
 311 953 311 953 268 865 c 1,24,-1
 268 1474 l 1,25,-1
 125 1474 l 1,26,-1
 125 0 l 1,11,-1
EndSplineSet
EndChar

StartChar: c
Encoding: 99 99 71
Width: 981
GlyphClass: 2
Flags: HW
LayerCount: 2
Fore
SplineSet
92 509 m 0,0,1
 92 837 92 837 292 974 c 0,2,3
 394 1044 394 1044 538 1044 c 0,4,5
 752 1044 752 1044 852 883 c 0,6,7
 892 820 892 820 911 733 c 1,8,-1
 792 701 l 1,9,10
 760 823 760 823 700.5 881.5 c 128,-1,11
 641 940 641 940 544 940 c 0,12,13
 390 940 390 940 313.5 825.5 c 128,-1,14
 237 711 237 711 237 512 c 0,15,16
 237 242 237 242 363 136 c 0,17,18
 430 80 430 80 531 80 c 0,19,20
 730 80 730 80 799 316 c 1,21,-1
 908 282 l 1,22,23
 857 53 857 53 648 -8 c 0,24,25
 590 -25 590 -25 528 -25 c 0,26,27
 316 -25 316 -25 204 121 c 128,-1,28
 92 267 92 267 92 509 c 0,0,1
EndSplineSet
EndChar

StartChar: d
Encoding: 100 100 72
Width: 1066
GlyphClass: 2
Flags: HW
LayerCount: 2
Fore
SplineSet
196 118.5 m 128,-1,1
 90 262 90 262 90 507.5 c 128,-1,2
 90 753 90 753 192 898.5 c 128,-1,3
 294 1044 294 1044 482 1044 c 0,4,5
 711 1044 711 1044 792 863 c 1,6,-1
 792 1474 l 1,7,-1
 935 1474 l 1,8,-1
 935 0 l 1,9,-1
 821 0 l 1,10,-1
 802 172 l 1,11,12
 763 81 763 81 677.5 28 c 128,-1,13
 592 -25 592 -25 486 -25 c 0,14,0
 302 -25 302 -25 196 118.5 c 128,-1,1
504 80 m 0,15,16
 663 80 663 80 733 190 c 0,17,18
 798 292 798 292 798 499 c 0,19,20
 798 770 798 770 673 880 c 0,21,22
 605 940 605 940 502 940 c 0,23,24
 375 940 375 940 305 819.5 c 128,-1,25
 235 699 235 699 235 506 c 128,-1,26
 235 313 235 313 307 196.5 c 128,-1,27
 379 80 379 80 504 80 c 0,15,16
EndSplineSet
EndChar

StartChar: e
Encoding: 101 101 73
Width: 1027
GlyphClass: 2
Flags: HW
LayerCount: 2
Fore
SplineSet
537 80 m 0,0,1
 738 80 738 80 795 258 c 1,2,-1
 905 234 l 1,3,4
 872 108 872 108 769.5 42 c 128,-1,5
 667 -24 667 -24 546.5 -24.5 c 128,-1,6
 426 -25 426 -25 338 18.5 c 128,-1,7
 250 62 250 62 198 138 c 0,8,9
 92 291 92 291 92 521 c 128,-1,10
 92 751 92 751 208.5 897.5 c 128,-1,11
 325 1044 325 1044 532 1044 c 0,12,13
 834 1044 834 1044 915 754 c 0,14,15
 939 668 939 668 939 599 c 128,-1,16
 939 530 939 530 936 504 c 1,17,-1
 237 504 l 1,18,19
 238 327 238 327 306 208 c 0,20,21
 380 80 380 80 537 80 c 0,0,1
802 597 m 1,22,23
 800 940 800 940 528 940 c 0,24,25
 336 940 336 940 266 730 c 0,26,27
 246 670 246 670 240 597 c 1,28,-1
 802 597 l 1,22,23
EndSplineSet
EndChar

StartChar: f
Encoding: 102 102 74
Width: 623
GlyphClass: 2
Flags: HW
LayerCount: 2
Fore
SplineSet
573 1341 m 1,0,1
 501 1368 501 1368 468 1368 c 128,-1,2
 435 1368 435 1368 417.5 1361.5 c 128,-1,3
 400 1355 400 1355 389 1338.5 c 128,-1,4
 378 1322 378 1322 372 1306.5 c 128,-1,5
 366 1291 366 1291 363 1259 c 0,6,7
 359 1216 359 1216 359 1139 c 2,8,-1
 359 1023 l 1,9,-1
 559 1023 l 1,10,-1
 559 917 l 1,11,-1
 359 917 l 1,12,-1
 359 0 l 1,13,-1
 217 0 l 1,14,-1
 217 917 l 1,15,-1
 44 917 l 1,16,-1
 44 1023 l 1,17,-1
 217 1023 l 1,18,-1
 217 1142 l 2,19,20
 217 1314 217 1314 270 1394 c 128,-1,21
 323 1474 323 1474 451 1474 c 0,22,23
 532 1474 532 1474 607 1433 c 1,24,-1
 573 1341 l 1,0,1
EndSplineSet
EndChar

StartChar: g
Encoding: 103 103 75
Width: 1077
GlyphClass: 2
Flags: HW
LayerCount: 2
Fore
SplineSet
818 543 m 2,0,1
 818 810 818 810 672 898 c 0,2,3
 603 940 603 940 524 940 c 128,-1,4
 445 940 445 940 389 905.5 c 0,5,6
 332 871 332 871 300 812 c 0,7,8
 236 695 236 695 236 505 c 128,-1,9
 236 315 236 315 310.5 197.5 c 128,-1,10
 385 80 385 80 513 80 c 0,11,12
 672 80 672 80 750 202 c 0,13,14
 818 308 818 308 818 509 c 2,15,-1
 818 543 l 2,0,1
527 -429 m 0,16,17
 261 -429 261 -429 164 -267 c 1,18,-1
 247 -188 l 1,19,20
 329 -320 329 -320 534 -320 c 0,21,22
 677 -320 677 -320 747.5 -229 c 128,-1,23
 818 -138 818 -138 818 28 c 2,24,-1
 818 130 l 1,25,26
 701 -25 701 -25 506.5 -25 c 128,-1,27
 312 -25 312 -25 203 126.5 c 128,-1,28
 94 278 94 278 94 526 c 0,29,30
 94 841 94 841 278 976 c 0,31,32
 371 1044 371 1044 502 1044 c 0,33,34
 701 1044 701 1044 829 891 c 1,35,-1
 837 1023 l 1,36,-1
 951 1023 l 1,37,-1
 951 20 l 2,38,39
 952 -175 952 -175 846 -300 c 0,40,41
 738 -429 738 -429 527 -429 c 0,16,17
EndSplineSet
EndChar

StartChar: h
Encoding: 104 104 76
Width: 1101
GlyphClass: 2
Flags: HW
LayerCount: 2
Fore
SplineSet
602 940 m 0,0,1
 393 940 393 940 315 748 c 0,2,3
 272 641 272 641 272 483 c 2,4,-1
 272 0 l 1,5,-1
 130 0 l 1,6,-1
 130 1474 l 1,7,-1
 272 1474 l 1,8,-1
 272 862 l 1,9,10
 389 1044 389 1044 623 1044 c 0,11,12
 954 1044 954 1044 978 672 c 0,13,14
 980 632 980 632 980 583 c 2,15,-1
 980 0 l 1,16,-1
 838 0 l 1,17,-1
 838 594 l 2,18,19
 838 765 838 765 785.5 852.5 c 128,-1,20
 733 940 733 940 602 940 c 0,0,1
EndSplineSet
EndChar

StartChar: i
Encoding: 105 105 77
Width: 410
GlyphClass: 2
Flags: HW
LayerCount: 2
Fore
SplineSet
135 1242 m 1,0,-1
 135 1421 l 1,1,-1
 276 1421 l 1,2,-1
 276 1242 l 1,3,-1
 135 1242 l 1,0,-1
137 0 m 1,4,-1
 137 1023 l 1,5,-1
 279 1023 l 1,6,-1
 279 0 l 1,7,-1
 137 0 l 1,4,-1
EndSplineSet
EndChar

StartChar: j
Encoding: 106 106 78
Width: 482
GlyphClass: 2
Flags: HW
LayerCount: 2
Fore
SplineSet
214 -91 m 2,0,-1
 214 1023 l 1,1,-1
 356 1023 l 1,2,-1
 356 -12 l 2,3,4
 356 -172 356 -172 326 -229.5 c 128,-1,5
 296 -287 296 -287 252 -306 c 128,-1,6
 208 -325 208 -325 126.5 -325 c 128,-1,7
 45 -325 45 -325 -25 -284 c 1,8,-1
 -1 -177 l 1,9,10
 83 -208 83 -208 124 -208 c 0,11,12
 214 -208 214 -208 214 -91 c 2,0,-1
216 1242 m 1,13,-1
 216 1421 l 1,14,-1
 357 1421 l 1,15,-1
 357 1242 l 1,16,-1
 216 1242 l 1,13,-1
EndSplineSet
EndChar

StartChar: k
Encoding: 107 107 79
Width: 1008
GlyphClass: 2
Flags: HW
LayerCount: 2
Fore
SplineSet
797 1023 m 1,0,-1
 959 1023 l 1,1,-1
 578 651 l 1,2,-1
 1018 0 l 1,3,-1
 858 0 l 1,4,-1
 485 565 l 1,5,-1
 272 369 l 1,6,-1
 272 0 l 1,7,-1
 130 0 l 1,8,-1
 130 1474 l 1,9,-1
 271 1474 l 1,10,-1
 271 511 l 1,11,-1
 797 1023 l 1,0,-1
EndSplineSet
EndChar

StartChar: l
Encoding: 108 108 80
Width: 419
GlyphClass: 2
Flags: HW
LayerCount: 2
Fore
SplineSet
134 0 m 1,0,-1
 134 1474 l 1,1,-1
 276 1474 l 1,2,-1
 276 0 l 1,3,-1
 134 0 l 1,0,-1
EndSplineSet
EndChar

StartChar: m
Encoding: 109 109 81
Width: 1663
GlyphClass: 2
Flags: HW
LayerCount: 2
Fore
SplineSet
267 861 m 1,0,1
 374 1044 374 1044 593 1044 c 0,2,3
 707 1044 707 1044 779 988 c 128,-1,4
 851 932 851 932 879 832 c 1,5,6
 930 939 930 939 1023.5 991.5 c 128,-1,7
 1117 1044 1117 1044 1211.5 1044 c 128,-1,8
 1306 1044 1306 1044 1365.5 1015 c 128,-1,9
 1425 986 1425 986 1458.5 942.5 c 128,-1,10
 1492 899 1492 899 1512 833 c 0,11,12
 1542 730 1542 730 1542 576 c 2,13,-1
 1542 0 l 1,14,-1
 1400 0 l 1,15,-1
 1400 607 l 2,16,17
 1400 854 1400 854 1296 916 c 0,18,19
 1256 940 1256 940 1185 940 c 128,-1,20
 1114 940 1114 940 1045 888 c 128,-1,21
 976 836 976 836 940 756.5 c 128,-1,22
 904 677 904 677 904 591 c 2,23,-1
 904 0 l 1,24,-1
 762 0 l 1,25,-1
 762 607 l 2,26,27
 762 768 762 768 717 854 c 128,-1,28
 672 940 672 940 574 940 c 128,-1,29
 476 940 476 940 407 886.5 c 128,-1,30
 338 833 338 833 303 752.5 c 128,-1,31
 268 672 268 672 268 583 c 2,32,-1
 268 0 l 1,33,-1
 126 0 l 1,34,-1
 126 1023 l 1,35,-1
 263 1023 l 1,36,-1
 267 861 l 1,0,1
EndSplineSet
EndChar

StartChar: n
Encoding: 110 110 82
Width: 1086
GlyphClass: 2
Flags: HW
LayerCount: 2
Fore
SplineSet
127 0 m 1,0,-1
 127 1023 l 1,1,-1
 265 1023 l 1,2,-1
 265 830 l 1,3,4
 318 984 318 984 518 1032 c 0,5,6
 571 1044 571 1044 626.5 1044 c 128,-1,7
 682 1044 682 1044 730.5 1033 c 128,-1,8
 779 1022 779 1022 813 1000.5 c 128,-1,9
 847 979 847 979 873 953.5 c 128,-1,10
 899 928 899 928 915 891 c 128,-1,11
 931 854 931 854 941.5 820.5 c 128,-1,12
 952 787 952 787 957 742 c 0,13,14
 965 670 965 670 965 584 c 2,15,-1
 965 0 l 1,16,-1
 823 0 l 1,17,-1
 823 603 l 2,18,19
 823 774 823 774 776.5 857 c 128,-1,20
 730 940 730 940 619.5 940 c 128,-1,21
 509 940 509 940 441.5 906.5 c 0,22,23
 374 872 374 872 338 810 c 0,24,25
 270 693 270 693 269 499 c 2,26,-1
 269 0 l 1,27,-1
 127 0 l 1,0,-1
EndSplineSet
EndChar

StartChar: o
Encoding: 111 111 83
Width: 1064
GlyphClass: 2
Flags: HW
LayerCount: 2
Fore
SplineSet
213 908 m 128,-1,1
 334 1044 334 1044 532 1044 c 128,-1,2
 730 1044 730 1044 851 908.5 c 128,-1,3
 972 773 972 773 972 513.5 c 128,-1,4
 972 254 972 254 853.5 114.5 c 128,-1,5
 735 -25 735 -25 532 -25 c 128,-1,6
 329 -25 329 -25 210.5 114 c 128,-1,7
 92 253 92 253 92 512.5 c 128,-1,0
 92 772 92 772 213 908 c 128,-1,1
651.5 915 m 128,-1,9
 599 940 599 940 523.5 940 c 128,-1,10
 448 940 448 940 388 903.5 c 128,-1,11
 328 867 328 867 296 803 c 0,12,13
 236 682 236 682 236 511 c 128,-1,14
 236 340 236 340 296 218 c 0,15,16
 364 79 364 79 533 80 c 1,17,18
 722 80 722 80 791 268 c 0,19,20
 828 369 828 369 828 473 c 128,-1,21
 828 577 828 577 819.5 636 c 128,-1,22
 811 695 811 695 790 752 c 128,-1,23
 769 809 769 809 736.5 849.5 c 128,-1,8
 704 890 704 890 651.5 915 c 128,-1,9
EndSplineSet
EndChar

StartChar: p
Encoding: 112 112 84
Width: 1061
GlyphClass: 2
Flags: HW
LayerCount: 2
Fore
SplineSet
753.5 824.5 m 128,-1,1
 825 709 825 709 825 511 c 128,-1,2
 825 313 825 313 754 196.5 c 128,-1,3
 683 80 683 80 559 80 c 0,4,5
 270 80 270 80 270 519 c 0,6,7
 270 760 270 760 348 856 c 0,8,9
 417 940 417 940 549.5 940 c 128,-1,0
 682 940 682 940 753.5 824.5 c 128,-1,1
253 1023 m 1,10,-1
 131 1023 l 1,11,-1
 131 -350 l 1,12,-1
 273 -350 l 1,13,-1
 273 154 l 1,14,15
 317 68 317 68 396.5 21.5 c 128,-1,16
 476 -25 476 -25 592.5 -24.5 c 128,-1,17
 709 -24 709 -24 798 50 c 0,18,19
 969 192 969 192 969 520 c 0,20,21
 969 747 969 747 875 891 c 0,22,23
 775 1044 775 1044 568.5 1044 c 128,-1,24
 362 1044 362 1044 263 858 c 1,25,-1
 253 1023 l 1,10,-1
EndSplineSet
EndChar

StartChar: q
Encoding: 113 113 85
Width: 1057
GlyphClass: 2
Flags: HW
LayerCount: 2
Fore
SplineSet
786 155 m 1,0,1
 697 -25 697 -25 479 -25 c 0,2,3
 353 -24 353 -24 264 48 c 0,4,5
 92 188 92 188 92 518 c 0,6,7
 92 833 92 833 264 972 c 0,8,9
 354 1044 354 1044 481 1044 c 0,10,11
 716 1044 716 1044 797 862 c 1,12,-1
 812 1023 l 1,13,-1
 929 1023 l 1,14,-1
 929 -350 l 1,15,-1
 786 -350 l 1,16,-1
 786 155 l 1,0,1
308 823.5 m 128,-1,18
 237 707 237 707 237 510.5 c 128,-1,19
 237 314 237 314 306.5 197 c 128,-1,20
 376 80 376 80 498 80 c 0,21,22
 788 80 788 80 788 501 c 0,23,24
 788 754 788 754 707 854 c 0,25,26
 637 941 637 941 508 940.5 c 128,-1,17
 379 940 379 940 308 823.5 c 128,-1,18
EndSplineSet
EndChar

StartChar: r
Encoding: 114 114 86
Width: 584
GlyphClass: 2
Flags: HW
LayerCount: 2
Fore
SplineSet
260 1023 m 1,0,-1
 260 831 l 1,1,2
 288 900 288 900 341 945 c 0,3,4
 433 1023 433 1023 566 1023 c 1,5,-1
 566 895 l 1,6,7
 336 895 336 895 280 667 c 0,8,9
 264 605 264 605 264 532 c 2,10,-1
 264 0 l 1,11,-1
 122 0 l 1,12,-1
 122 1023 l 1,13,-1
 260 1023 l 1,0,-1
EndSplineSet
EndChar

StartChar: s
Encoding: 115 115 87
Width: 929
GlyphClass: 2
Flags: HW
LayerCount: 2
Fore
SplineSet
486 940 m 0,0,1
 236 940 236 940 236 759 c 0,2,3
 236 639 236 639 414 598 c 0,4,5
 448 590 448 590 501 580 c 0,6,7
 675 548 675 548 762.5 480.5 c 128,-1,8
 850 413 850 413 850 273.5 c 128,-1,9
 850 134 850 134 749 54.5 c 128,-1,10
 648 -25 648 -25 445 -25 c 0,11,12
 231 -25 231 -25 126 106 c 0,13,14
 86 156 86 156 67 225 c 1,15,-1
 175 269 l 1,16,17
 211 169 211 169 275 124.5 c 128,-1,18
 339 80 339 80 458 80 c 0,19,20
 721 80 721 80 721 259 c 0,21,22
 721 355 721 355 661 394.5 c 128,-1,23
 601 434 601 434 408 474 c 0,24,25
 224 512 224 512 160 584 c 0,26,27
 102 649 102 649 102 772.5 c 128,-1,28
 102 896 102 896 206.5 970 c 128,-1,29
 311 1044 311 1044 463.5 1044 c 128,-1,30
 616 1044 616 1044 702 999 c 128,-1,31
 788 954 788 954 841 846 c 1,32,33
 744 791 744 791 744 790 c 1,34,35
 710 870 710 870 648.5 905 c 128,-1,36
 587 940 587 940 486 940 c 0,0,1
EndSplineSet
EndChar

StartChar: t
Encoding: 116 116 88
Width: 644
GlyphClass: 2
Flags: HW
LayerCount: 2
Fore
SplineSet
594 125 m 1,0,-1
 618 32 l 1,1,2
 542 -16 542 -16 426 -16 c 0,3,4
 310 -16 310 -16 250.5 64.5 c 128,-1,5
 191 145 191 145 191 325 c 2,6,-1
 191 924 l 1,7,-1
 38 924 l 1,8,-1
 38 1023 l 1,9,-1
 200 1023 l 1,10,-1
 200 1350 l 1,11,-1
 333 1387 l 1,12,-1
 333 1023 l 1,13,-1
 557 1023 l 1,14,-1
 557 924 l 1,15,-1
 333 924 l 1,16,-1
 333 261 l 2,17,18
 333 91 333 91 471 91 c 0,19,20
 517 91 517 91 594 125 c 1,0,-1
EndSplineSet
EndChar

StartChar: u
Encoding: 117 117 89
Width: 1118
GlyphClass: 2
Flags: HW
LayerCount: 2
Fore
SplineSet
813 436 m 2,0,-1
 813 1023 l 1,1,-1
 955 1023 l 1,2,-1
 955 0 l 1,3,-1
 817 0 l 1,4,-1
 817 192 l 1,5,6
 790 118 790 118 729 68 c 0,7,8
 616 -26 616 -26 458 -25 c 0,9,10
 178 -24 178 -24 133 258 c 0,11,12
 121 334 121 334 121 436 c 2,13,-1
 121 1023 l 1,14,-1
 263 1023 l 1,15,-1
 263 406 l 2,16,17
 263 244 263 244 311 162 c 128,-1,18
 359 80 359 80 479 80 c 0,19,20
 688 80 688 80 772 258 c 0,21,22
 814 346 814 346 813 436 c 2,0,-1
EndSplineSet
EndChar

StartChar: v
Encoding: 118 118 90
Width: 952
GlyphClass: 2
Flags: HW
LayerCount: 2
Fore
SplineSet
788 1023 m 1,0,-1
 926 1023 l 1,1,-1
 532 0 l 1,2,-1
 406 0 l 1,3,-1
 23 1023 l 1,4,-1
 175 1023 l 1,5,-1
 476 151 l 1,6,-1
 788 1023 l 1,0,-1
EndSplineSet
EndChar

StartChar: w
Encoding: 119 119 91
Width: 1487
GlyphClass: 2
Flags: HW
LayerCount: 2
Fore
SplineSet
422 177 m 1,0,1
 516 459 516 459 700 1023 c 1,2,-1
 794 1023 l 1,3,4
 968 459 968 459 1056 178 c 1,5,-1
 1323 1023 l 1,6,-1
 1463 1023 l 1,7,-1
 1115 0 l 1,8,-1
 988 0 l 1,9,-1
 742 800 l 1,10,-1
 478 0 l 1,11,-1
 351 0 l 1,12,-1
 21 1023 l 1,13,-1
 173 1023 l 1,14,-1
 422 177 l 1,0,1
EndSplineSet
EndChar

StartChar: x
Encoding: 120 120 92
Width: 966
GlyphClass: 2
Flags: HW
LayerCount: 2
Fore
SplineSet
405 514 m 1,0,-1
 34 1023 l 1,1,-1
 188 1023 l 1,2,-1
 482 606 l 1,3,-1
 776 1023 l 1,4,-1
 926 1023 l 1,5,-1
 558 518 l 1,6,-1
 938 0 l 1,7,-1
 784 0 l 1,8,-1
 481 420 l 1,9,-1
 181 0 l 1,10,-1
 31 0 l 1,11,-1
 405 514 l 1,0,-1
EndSplineSet
EndChar

StartChar: y
Encoding: 121 121 93
Width: 985
GlyphClass: 2
Flags: HW
LayerCount: 2
Fore
SplineSet
426 64 m 1,0,-1
 34 1023 l 1,1,-1
 180 1023 l 1,2,3
 237 876 l 2,4,5
 294 730 294 730 374 525 c 128,-1,6
 454 320 454 320 498 211 c 1,7,8
 584 435 584 435 815 1023 c 1,9,-1
 955 1023 l 1,10,11
 886 848 886 848 756.5 527 c 128,-1,12
 627 206 627 206 587.5 106 c 128,-1,13
 548 6 548 6 521.5 -50.5 c 128,-1,14
 495 -107 495 -107 458 -164 c 0,15,16
 420 -222 420 -222 382 -252 c 0,17,18
 296 -320 296 -320 169 -320 c 0,19,20
 116 -320 116 -320 64 -306 c 1,21,-1
 79 -193 l 1,22,23
 125 -200 125 -200 167 -200 c 0,24,25
 336 -200 336 -200 403 -3 c 2,26,-1
 426 64 l 1,0,-1
EndSplineSet
EndChar

StartChar: z
Encoding: 122 122 94
Width: 878
GlyphClass: 2
Flags: HW
LayerCount: 2
Fore
SplineSet
86 919 m 1,0,-1
 86 1023 l 1,1,-1
 836 1023 l 1,2,-1
 836 928 l 1,3,-1
 227 103 l 1,4,-1
 834 103 l 1,5,-1
 834 0 l 1,6,-1
 66 0 l 1,7,-1
 66 94 l 1,8,-1
 667 919 l 1,9,-1
 86 919 l 1,0,-1
EndSplineSet
EndChar

StartChar: braceleft
Encoding: 123 123 95
Width: 644
GlyphClass: 2
Flags: HW
LayerCount: 2
Fore
SplineSet
198 350 m 2,0,-1
 198 390 l 2,1,2
 198 538 198 538 169 585 c 0,3,4
 147 621 147 621 126 633 c 0,5,6
 86 656 86 656 35 660 c 1,7,-1
 35 754 l 1,8,9
 86 758 86 758 107.5 771 c 128,-1,10
 129 784 129 784 141 793.5 c 128,-1,11
 153 803 153 803 162 818 c 128,-1,12
 171 833 171 833 177 845.5 c 128,-1,13
 183 858 183 858 187 878 c 128,-1,14
 191 898 191 898 193.5 912 c 128,-1,15
 196 926 196 926 197 948.5 c 0,16,17
 198 972 198 972 198 986 c 2,18,-1
 198 1033 l 2,19,20
 198 1241 198 1241 209 1284 c 128,-1,21
 220 1327 220 1327 234 1368.5 c 128,-1,22
 248 1410 248 1410 268.5 1430.5 c 128,-1,23
 289 1451 289 1451 319.5 1477 c 128,-1,24
 350 1503 350 1503 390 1515 c 0,25,26
 488 1544 488 1544 608 1544 c 1,27,-1
 608 1454 l 1,28,29
 501 1454 501 1454 465.5 1438.5 c 128,-1,30
 430 1423 430 1423 412.5 1413 c 128,-1,31
 395 1403 395 1403 382 1372 c 128,-1,32
 369 1341 369 1341 363 1320 c 0,33,34
 358 1300 358 1300 354 1246 c 0,35,36
 350 1177 350 1177 349 1041 c 2,37,-1
 349 1033 l 2,38,39
 349 886 349 886 315.5 807.5 c 128,-1,40
 282 729 282 729 190 707 c 1,41,42
 282 685 282 685 315.5 606.5 c 128,-1,43
 349 528 349 528 349 381 c 2,44,-1
 349 373 l 2,45,46
 349 163 349 163 364.5 88.5 c 128,-1,47
 380 14 380 14 437 -13 c 128,-1,48
 494 -40 494 -40 608 -40 c 1,49,-1
 608 -130 l 1,50,51
 398 -130 398 -130 320 -63 c 0,52,53
 290 -37 290 -37 269 -16.5 c 128,-1,54
 248 4 248 4 234 45.5 c 128,-1,55
 220 87 220 87 213 114.5 c 128,-1,56
 206 142 206 142 202 197 c 0,57,58
 198 267 198 267 198 350 c 2,0,-1
EndSplineSet
EndChar

StartChar: bar
Encoding: 124 124 96
Width: 416
GlyphClass: 2
Flags: HW
LayerCount: 2
Fore
SplineSet
281 -197 m 1,0,-1
 135 -197 l 1,1,-1
 135 1502 l 1,2,-1
 281 1502 l 1,3,-1
 281 -197 l 1,0,-1
EndSplineSet
EndChar

StartChar: braceright
Encoding: 125 125 97
Width: 644
GlyphClass: 2
Flags: HW
LayerCount: 2
Fore
SplineSet
446 350 m 2,0,-1
 446 389 l 2,1,2
 446 537 446 537 475 584 c 0,3,4
 497 620 497 620 518 632 c 0,5,6
 558 655 558 655 609 659 c 1,7,-1
 609 753 l 1,8,9
 558 757 558 757 536.5 770 c 128,-1,10
 515 783 515 783 503 792.5 c 128,-1,11
 491 802 491 802 482 817 c 128,-1,12
 473 832 473 832 467 844.5 c 128,-1,13
 461 857 461 857 457 877 c 128,-1,14
 453 897 453 897 450.5 911 c 128,-1,15
 448 925 448 925 447 947.5 c 128,-1,16
 446 970 446 970 446 984 c 2,17,-1
 446 1032 l 2,18,19
 446 1240 446 1240 435 1283 c 128,-1,20
 424 1326 424 1326 410 1367.5 c 128,-1,21
 396 1409 396 1409 375.5 1429.5 c 128,-1,22
 355 1450 355 1450 324.5 1476 c 128,-1,23
 294 1502 294 1502 254 1514 c 0,24,25
 156 1543 156 1543 36 1543 c 1,26,-1
 36 1453 l 1,27,28
 143 1453 143 1453 178.5 1437.5 c 128,-1,29
 214 1422 214 1422 231.5 1412 c 128,-1,30
 249 1402 249 1402 262 1371 c 128,-1,31
 275 1340 275 1340 281 1319 c 0,32,33
 286 1298 286 1298 290 1244 c 0,34,35
 294 1175 294 1175 295 1040 c 2,36,-1
 295 1032 l 2,37,38
 295 885 295 885 328.5 806.5 c 128,-1,39
 362 728 362 728 454 706 c 1,40,41
 362 684 362 684 328.5 605.5 c 128,-1,42
 295 527 295 527 295 380 c 2,43,-1
 295 372 l 2,44,45
 295 162 295 162 279.5 87.5 c 128,-1,46
 264 13 264 13 207 -14 c 128,-1,47
 150 -41 150 -41 36 -41 c 1,48,-1
 36 -131 l 1,49,50
 246 -131 246 -131 324 -64 c 0,51,52
 354 -38 354 -38 375 -17.5 c 128,-1,53
 396 3 396 3 410 44.5 c 128,-1,54
 424 86 424 86 431 113.5 c 128,-1,55
 438 141 438 141 442 196 c 0,56,57
 446 267 446 267 446 350 c 2,0,-1
EndSplineSet
EndChar

StartChar: asciitilde
Encoding: 126 126 98
Width: 962
GlyphClass: 2
Flags: HW
LayerCount: 2
Fore
SplineSet
466.5 762.5 m 128,-1,1
 674 700 674 700 758.5 700 c 128,-1,2
 843 700 843 700 889 754.5 c 128,-1,3
 935 809 935 809 941 946 c 1,4,-1
 822 946 l 1,5,6
 804 851 804 851 794 844 c 0,7,8
 769 826 769 826 740 826 c 128,-1,9
 711 826 711 826 503.5 886 c 128,-1,10
 296 946 296 946 252.5 946 c 128,-1,11
 209 946 209 946 194.5 945.5 c 128,-1,12
 180 945 180 945 155.5 940 c 128,-1,13
 131 935 131 935 116.5 926.5 c 128,-1,14
 102 918 102 918 83 900.5 c 128,-1,15
 64 883 64 883 53 858 c 0,16,17
 27 798 27 798 21 707 c 1,18,-1
 139 707 l 1,19,20
 153 783 153 783 170.5 804 c 128,-1,21
 188 825 188 825 223.5 825 c 128,-1,0
 259 825 259 825 466.5 762.5 c 128,-1,1
EndSplineSet
EndChar

StartChar: exclamdown
Encoding: 161 161 99
Width: 426
GlyphClass: 2
Flags: HW
LayerCount: 2
Fore
SplineSet
174 1160 m 1,0,-1
 250 1160 l 1,1,-1
 307 0 l 1,2,-1
 122 0 l 1,3,-1
 174 1160 l 1,0,-1
139 1268 m 1,4,-1
 139 1465 l 1,5,-1
 303 1465 l 1,6,-1
 303 1268 l 1,7,-1
 139 1268 l 1,4,-1
EndSplineSet
EndChar

StartChar: cent
Encoding: 162 162 100
Width: 993
GlyphClass: 2
Flags: HW
LayerCount: 2
Fore
SplineSet
484 -208 m 1,0,-1
 577 -208 l 1,1,-1
 577 -22 l 1,2,3
 694 -10 694 -10 784 67.5 c 128,-1,4
 874 145 874 145 906 289 c 1,5,-1
 805 323 l 1,6,7
 741 108 741 108 577 84 c 1,8,-1
 577 938 l 1,9,10
 741 919 741 919 798 701 c 1,11,-1
 909 733 l 1,12,13
 873 887 873 887 784.5 959.5 c 128,-1,14
 696 1032 696 1032 577 1042 c 1,15,-1
 577 1253 l 1,16,-1
 484 1253 l 1,17,-1
 484 1042 l 1,18,19
 357 1030 357 1030 268 957 c 0,20,21
 94 814 94 814 94 509 c 0,22,23
 94 283 94 283 194.5 139.5 c 128,-1,24
 295 -4 295 -4 484 -22 c 1,25,-1
 484 -208 l 1,0,-1
484 935 m 1,26,-1
 484 85 l 1,27,28
 360 105 360 105 298.5 218.5 c 128,-1,29
 237 332 237 332 237 511.5 c 128,-1,30
 237 691 237 691 298.5 802.5 c 128,-1,31
 360 914 360 914 484 935 c 1,26,-1
EndSplineSet
EndChar

StartChar: sterling
Encoding: 163 163 101
Width: 1168
GlyphClass: 2
Flags: HW
LayerCount: 2
Fore
SplineSet
219 -26 m 1,0,1
 520 42 520 42 677 42 c 0,2,3
 778 42 778 42 831.5 31 c 128,-1,4
 885 20 885 20 923.5 11.5 c 128,-1,5
 962 3 962 3 979 0 c 1,6,-1
 1006 129 l 1,7,8
 861 167 861 167 745 167 c 128,-1,9
 629 167 629 167 530.5 152.5 c 128,-1,10
 432 138 432 138 307 92 c 1,11,12
 375 225 375 225 385 320 c 128,-1,13
 395 415 395 415 395 471 c 128,-1,14
 395 527 395 527 381 695 c 1,15,-1
 773 695 l 1,16,-1
 773 797 l 1,17,-1
 374 797 l 1,18,19
 355 968 355 968 355 1007 c 0,20,21
 355 1196 355 1196 426.5 1285 c 128,-1,22
 498 1374 498 1374 651 1374 c 0,23,24
 754 1374 754 1374 810 1312 c 0,25,26
 864 1253 864 1253 884 1134 c 1,27,-1
 1003 1152 l 1,28,29
 978 1320 978 1320 894.5 1405.5 c 128,-1,30
 811 1491 811 1491 645 1491 c 0,31,32
 215 1491 215 1491 215 988 c 1,33,-1
 233 797 l 1,34,-1
 66 797 l 1,35,-1
 66 695 l 1,36,-1
 242 695 l 1,37,38
 260 558 260 558 260 470 c 0,39,40
 260 274 260 274 156 60 c 1,41,-1
 219 -26 l 1,0,1
EndSplineSet
EndChar

StartChar: currency
Encoding: 164 164 102
Width: 1068
GlyphClass: 2
Flags: HW
LayerCount: 2
Fore
SplineSet
705.5 846 m 128,-1,1
 769 767 769 767 769 657.5 c 128,-1,2
 769 548 769 548 704.5 466.5 c 128,-1,3
 640 385 640 385 534 385 c 128,-1,4
 428 385 428 385 365.5 464.5 c 128,-1,5
 303 544 303 544 303 655 c 128,-1,6
 303 766 303 766 365.5 845.5 c 128,-1,7
 428 925 428 925 535 925 c 128,-1,0
 642 925 642 925 705.5 846 c 128,-1,1
934 246 m 1,8,-1
 990 309 l 1,9,-1
 831 449 l 1,10,11
 883 540 883 540 883 667 c 128,-1,12
 883 794 883 794 805 896 c 1,13,-1
 942 1052 l 1,14,-1
 878 1108 l 1,15,-1
 745 956 l 1,16,17
 659 1023 659 1023 520.5 1023 c 128,-1,18
 382 1023 382 1023 287 926 c 1,19,-1
 134 1061 l 1,20,-1
 78 997 l 1,21,-1
 236 859 l 1,22,23
 183 771 183 771 183 642.5 c 128,-1,24
 183 514 183 514 264 410 c 1,25,-1
 126 253 l 1,26,-1
 190 197 l 1,27,-1
 324 350 l 1,28,29
 413 284 413 284 549 284 c 128,-1,30
 685 284 685 284 780 381 c 1,31,-1
 934 246 l 1,8,-1
EndSplineSet
EndChar

StartChar: yen
Encoding: 165 165 103
Width: 1358
GlyphClass: 2
Flags: HW
LayerCount: 2
Fore
SplineSet
348 544 m 1,0,-1
 348 630 l 1,1,-1
 559 630 l 1,2,-1
 94 1436 l 1,3,-1
 252 1436 l 1,4,-1
 680 682 l 1,5,-1
 1107 1436 l 1,6,-1
 1264 1436 l 1,7,-1
 799 630 l 1,8,-1
 1002 630 l 1,9,-1
 1002 544 l 1,10,-1
 752 544 l 1,11,-1
 752 420 l 1,12,-1
 1002 420 l 1,13,-1
 1002 334 l 1,14,-1
 752 334 l 1,15,-1
 752 0 l 1,16,-1
 606 0 l 1,17,-1
 606 334 l 1,18,-1
 348 334 l 1,19,-1
 348 420 l 1,20,-1
 606 420 l 1,21,-1
 606 544 l 1,22,-1
 348 544 l 1,0,-1
EndSplineSet
EndChar

StartChar: brokenbar
Encoding: 166 166 104
Width: 416
GlyphClass: 2
Flags: HW
LayerCount: 2
Fore
SplineSet
135 -198 m 1,0,-1
 135 433 l 1,1,-1
 281 433 l 1,2,-1
 281 -198 l 1,3,-1
 135 -198 l 1,0,-1
281 883 m 1,4,-1
 135 883 l 1,5,-1
 135 1504 l 1,6,-1
 281 1504 l 1,7,-1
 281 883 l 1,4,-1
EndSplineSet
EndChar

StartChar: section
Encoding: 167 167 105
Width: 1005
GlyphClass: 2
Flags: HW
LayerCount: 2
Fore
SplineSet
342 674 m 0,0,1
 302 708 302 708 301 744 c 0,2,3
 301 824 301 824 391 939 c 1,4,5
 426 925 426 925 484.5 903.5 c 128,-1,6
 543 882 543 882 575.5 868.5 c 128,-1,7
 608 855 608 855 624.5 846.5 c 128,-1,8
 641 838 641 838 663.5 825 c 128,-1,9
 686 812 686 812 697 801 c 128,-1,10
 708 790 708 790 719 776 c 0,11,12
 739 750 739 750 739 711 c 0,13,14
 739 638 739 638 677 532 c 1,15,16
 435 597 435 597 342 674 c 0,0,1
770 251 m 1,17,18
 770 93 770 93 532 93 c 128,-1,19
 294 93 294 93 229 310 c 1,20,-1
 127 273 l 1,21,22
 158 92 158 92 331 16 c 0,23,24
 423 -24 423 -24 535 -25 c 0,25,26
 715 -25 715 -25 806.5 48 c 128,-1,27
 898 121 898 121 898 261.5 c 128,-1,28
 898 402 898 402 783 479 c 1,29,30
 873 622 873 622 873 718 c 128,-1,31
 873 814 873 814 804 874.5 c 128,-1,32
 735 935 735 935 575.5 996.5 c 128,-1,33
 416 1058 416 1058 390 1071 c 0,34,35
 300 1117 300 1117 300 1197 c 1,36,37
 304 1374 304 1374 535 1374 c 0,38,39
 635 1374 635 1374 691 1343 c 128,-1,40
 747 1312 747 1312 793 1229 c 1,41,-1
 884 1286 l 1,42,43
 829 1398 829 1398 745.5 1444.5 c 128,-1,44
 662 1491 662 1491 511 1491 c 128,-1,45
 360 1491 360 1491 263.5 1416.5 c 128,-1,46
 167 1342 167 1342 167 1203 c 0,47,48
 167 1120 167 1120 195.5 1073 c 128,-1,49
 224 1026 224 1026 281 992 c 1,50,51
 174 859 174 859 174 757 c 128,-1,52
 174 655 174 655 239.5 595 c 128,-1,53
 305 535 305 535 475.5 473.5 c 128,-1,54
 646 412 646 412 696 386 c 0,55,56
 768 348 768 348 770 251 c 1,17,18
EndSplineSet
EndChar

StartChar: dieresis
Encoding: 168 168 106
Width: 860
GlyphClass: 2
Flags: HW
LayerCount: 2
Fore
SplineSet
680 1365 m 1,0,-1
 680 1191 l 1,1,-1
 514 1191 l 1,2,-1
 514 1365 l 1,3,-1
 680 1365 l 1,0,-1
135 1365 m 1,4,-1
 301 1365 l 1,5,-1
 301 1191 l 1,6,-1
 135 1191 l 1,7,-1
 135 1365 l 1,4,-1
EndSplineSet
EndChar

StartChar: copyright
Encoding: 169 169 107
Width: 1702
GlyphClass: 2
Flags: HW
LayerCount: 2
Fore
SplineSet
656 508 m 128,-1,1
 714 415 714 415 863 415 c 128,-1,2
 1012 415 1012 415 1066 584 c 1,3,-1
 1132 561 l 1,4,5
 1067 344 1067 344 850 344 c 0,6,7
 685 344 685 344 601 453 c 128,-1,8
 517 562 517 562 517 794.5 c 128,-1,9
 517 1027 517 1027 607 1137 c 128,-1,10
 697 1247 697 1247 856 1247 c 0,11,12
 1073 1247 1073 1247 1129 1015 c 1,13,-1
 1058 997 l 1,14,15
 1017 1177 1017 1177 853 1177 c 0,16,17
 598 1177 598 1177 598 799 c 0,18,0
 598 601 598 601 656 508 c 128,-1,1
1481 1139 m 128,-1,20
 1579 971 1579 971 1579 774.5 c 128,-1,21
 1579 578 1579 578 1481 410.5 c 128,-1,22
 1383 243 1383 243 1215 145 c 128,-1,23
 1047 47 1047 47 850.5 47 c 128,-1,24
 654 47 654 47 486.5 145 c 128,-1,25
 319 243 319 243 221 410.5 c 128,-1,26
 123 578 123 578 123 774.5 c 128,-1,27
 123 971 123 971 221 1139 c 128,-1,28
 319 1307 319 1307 486.5 1405 c 128,-1,29
 654 1503 654 1503 850.5 1503 c 128,-1,30
 1047 1503 1047 1503 1215 1405 c 128,-1,19
 1383 1307 1383 1307 1481 1139 c 128,-1,20
849 100 m 128,-1,32
 1031 100 1031 100 1186.5 190.5 c 128,-1,33
 1342 281 1342 281 1432.5 436 c 128,-1,34
 1523 591 1523 591 1523 750.5 c 128,-1,35
 1523 910 1523 910 1469.5 1035.5 c 128,-1,36
 1416 1161 1416 1161 1326 1252 c 128,-1,37
 1236 1343 1236 1343 1111.5 1397.5 c 128,-1,38
 987 1452 987 1452 850.5 1452 c 128,-1,39
 714 1452 714 1452 589 1397.5 c 128,-1,40
 464 1343 464 1343 373.5 1252 c 128,-1,41
 283 1161 283 1161 229.5 1035.5 c 128,-1,42
 176 910 176 910 176 750.5 c 128,-1,43
 176 591 176 591 266.5 436 c 128,-1,44
 357 281 357 281 512 190.5 c 128,-1,31
 667 100 667 100 849 100 c 128,-1,32
EndSplineSet
EndChar

StartChar: ordfeminine
Encoding: 170 170 108
Width: 946
GlyphClass: 2
Flags: HW
LayerCount: 2
Fore
SplineSet
671 192 m 1,0,1
 532 68 532 68 396 68 c 0,2,3
 269 68 269 68 269 229 c 0,4,5
 269 303 269 303 346 341 c 128,-1,6
 423 379 423 379 595 406 c 1,7,-1
 671 419 l 1,8,-1
 671 192 l 1,0,1
676 97 m 1,9,-1
 690 0 l 1,10,-1
 794 0 l 1,11,-1
 794 544 l 2,12,13
 794 706 794 706 716.5 788.5 c 128,-1,14
 639 871 639 871 492 871 c 0,15,16
 416 871 416 871 326 833.5 c 128,-1,17
 236 796 236 796 182 737 c 1,18,19
 260 667 260 667 260 666 c 1,20,21
 306 711 306 711 369 740.5 c 128,-1,22
 432 770 432 770 502 770 c 128,-1,23
 572 770 572 770 621.5 722.5 c 128,-1,24
 671 675 671 675 671 573 c 2,25,-1
 671 507 l 1,26,-1
 594 495 l 1,27,28
 436 469 436 469 390.5 454.5 c 128,-1,29
 345 440 345 440 311 426.5 c 128,-1,30
 277 413 277 413 256.5 398.5 c 128,-1,31
 236 384 236 384 214 363.5 c 0,32,33
 192 344 192 344 180 320 c 0,34,35
 152 268 152 268 152 201 c 0,36,37
 152 95 152 95 222 37.5 c 128,-1,38
 292 -20 292 -20 393 -20 c 0,39,40
 544 -20 544 -20 676 97 c 1,9,-1
EndSplineSet
EndChar

StartChar: guillemotleft
Encoding: 171 171 109
Width: 946
GlyphClass: 2
Flags: HW
LayerCount: 2
Fore
SplineSet
894 251 m 1,0,-1
 449 552 l 1,1,-1
 449 749 l 1,2,-1
 894 1050 l 1,3,-1
 894 909 l 1,4,-1
 547 650 l 1,5,-1
 894 393 l 1,6,-1
 894 251 l 1,0,-1
51 552 m 1,7,-1
 51 749 l 1,8,-1
 496 1050 l 1,9,-1
 496 909 l 1,10,-1
 149 650 l 1,11,-1
 496 393 l 1,12,-1
 496 251 l 1,13,-1
 51 552 l 1,7,-1
EndSplineSet
EndChar

StartChar: logicalnot
Encoding: 172 172 110
Width: 1024
GlyphClass: 2
Flags: HW
LayerCount: 2
Fore
SplineSet
803 335 m 1,0,-1
 889 335 l 1,1,-1
 889 756 l 1,2,-1
 135 756 l 1,3,-1
 135 670 l 1,4,-1
 803 670 l 1,5,-1
 803 335 l 1,0,-1
EndSplineSet
EndChar

StartChar: registered
Encoding: 174 174 111
Width: 1702
GlyphClass: 2
Flags: HW
LayerCount: 2
Fore
SplineSet
1481 1139 m 128,-1,1
 1579 971 1579 971 1579 774.5 c 128,-1,2
 1579 578 1579 578 1481 410.5 c 128,-1,3
 1383 243 1383 243 1215 145 c 128,-1,4
 1047 47 1047 47 850.5 47 c 128,-1,5
 654 47 654 47 486.5 145 c 128,-1,6
 319 243 319 243 221 410.5 c 128,-1,7
 123 578 123 578 123 774.5 c 128,-1,8
 123 971 123 971 221 1139 c 128,-1,9
 319 1307 319 1307 486.5 1405 c 128,-1,10
 654 1503 654 1503 850.5 1503 c 128,-1,11
 1047 1503 1047 1503 1215 1405 c 128,-1,0
 1383 1307 1383 1307 1481 1139 c 128,-1,1
664 1184 m 1,12,-1
 664 846 l 1,13,-1
 849 846 l 2,14,15
 987 846 987 846 1041 890 c 0,16,17
 1092 932 1092 932 1092 1015 c 0,18,19
 1092 1168 1092 1168 917 1182 c 0,20,21
 887 1184 887 1184 848 1184 c 2,22,-1
 664 1184 l 1,12,-1
857 1248 m 2,23,24
 1179 1248 1179 1248 1179 1017 c 0,25,26
 1179 849 1179 849 1000 793 c 1,27,28
 1017 739 1017 739 1144 466 c 1,29,-1
 1186 379 l 1,30,-1
 1099 379 l 1,31,-1
 916 779 l 1,32,-1
 661 779 l 1,33,-1
 661 381 l 1,34,-1
 578 381 l 1,35,-1
 578 1248 l 1,36,-1
 857 1248 l 2,23,24
849 100 m 128,-1,38
 1031 100 1031 100 1186.5 190.5 c 128,-1,39
 1342 281 1342 281 1432.5 436 c 128,-1,40
 1523 591 1523 591 1523 773 c 128,-1,41
 1523 955 1523 955 1432.5 1110.5 c 128,-1,42
 1342 1266 1342 1266 1186.5 1356.5 c 128,-1,43
 1031 1447 1031 1447 849 1447 c 128,-1,44
 667 1447 667 1447 512 1356.5 c 128,-1,45
 357 1266 357 1266 266.5 1110.5 c 128,-1,46
 176 955 176 955 176 773 c 128,-1,47
 176 591 176 591 266.5 436 c 128,-1,48
 357 281 357 281 512 190.5 c 128,-1,37
 667 100 667 100 849 100 c 128,-1,38
EndSplineSet
EndChar

StartChar: macron
Encoding: 175 175 112
Width: 724
GlyphClass: 2
Flags: HW
LayerCount: 2
Fore
SplineSet
135 1219 m 1,0,-1
 135 1329 l 1,1,-1
 589 1329 l 1,2,-1
 589 1219 l 1,3,-1
 135 1219 l 1,0,-1
EndSplineSet
EndChar

StartChar: degree
Encoding: 176 176 113
Width: 483
GlyphClass: 2
Flags: HW
LayerCount: 2
Fore
SplineSet
416.5 1101.5 m 128,-1,1
 483 1171 483 1171 483 1268.5 c 128,-1,2
 483 1366 483 1366 416.5 1435 c 128,-1,3
 350 1504 350 1504 241.5 1504 c 128,-1,4
 133 1504 133 1504 66.5 1435 c 128,-1,5
 0 1366 0 1366 0 1268 c 128,-1,6
 0 1170 0 1170 66.5 1101 c 128,-1,7
 133 1032 133 1032 241.5 1032 c 128,-1,0
 350 1032 350 1032 416.5 1101.5 c 128,-1,1
341 1372.5 m 128,-1,9
 379 1327 379 1327 379 1267.5 c 128,-1,10
 379 1208 379 1208 342 1162.5 c 128,-1,11
 305 1117 305 1117 239.5 1117 c 128,-1,12
 174 1117 174 1117 136 1162.5 c 128,-1,13
 98 1208 98 1208 98 1267.5 c 128,-1,14
 98 1327 98 1327 136 1372.5 c 128,-1,15
 174 1418 174 1418 238.5 1418 c 128,-1,8
 303 1418 303 1418 341 1372.5 c 128,-1,9
EndSplineSet
EndChar

StartChar: plusminus
Encoding: 177 177 114
Width: 860
GlyphClass: 2
Flags: HW
LayerCount: 2
Fore
SplineSet
129 247 m 1,0,-1
 129 333 l 1,1,-1
 730 333 l 1,2,-1
 730 247 l 1,3,-1
 129 247 l 1,0,-1
130 673 m 1,4,-1
 130 773 l 1,5,-1
 379 773 l 1,6,-1
 379 1023 l 1,7,-1
 481 1023 l 1,8,-1
 481 773 l 1,9,-1
 730 773 l 1,10,-1
 730 673 l 1,11,-1
 481 673 l 1,12,-1
 481 423 l 1,13,-1
 379 423 l 1,14,-1
 379 673 l 1,15,-1
 130 673 l 1,4,-1
EndSplineSet
EndChar

StartChar: uni00B2
Encoding: 178 178 115
Width: 1230
GlyphClass: 2
Flags: HW
LayerCount: 2
Fore
SplineSet
860 859 m 1,0,-1
 530 859 l 1,1,2
 570 926 570 926 686 1011 c 0,3,4
 728 1042 728 1042 768 1078 c 0,5,6
 858 1160 858 1160 858 1268.5 c 128,-1,7
 858 1377 858 1377 786.5 1434 c 128,-1,8
 715 1491 715 1491 624.5 1491 c 128,-1,9
 534 1491 534 1491 464.5 1446.5 c 128,-1,10
 395 1402 395 1402 364 1316 c 1,11,12
 388 1306 388 1306 435 1281 c 2,13,-1
 454 1271 l 1,14,15
 467 1330 467 1330 514 1363 c 128,-1,16
 561 1396 561 1396 617 1396 c 128,-1,17
 673 1396 673 1396 711.5 1363 c 128,-1,18
 750 1330 750 1330 750 1269 c 2,19,-1
 750 1266 l 2,20,21
 750 1198 750 1198 657 1122 c 0,22,23
 552 1037 552 1037 497 986 c 0,24,25
 389 885 389 885 385 779 c 1,26,-1
 860 779 l 1,27,-1
 860 859 l 1,0,-1
EndSplineSet
EndChar

StartChar: uni00B3
Encoding: 179 179 116
Width: 772
GlyphClass: 2
Flags: HW
LayerCount: 2
Fore
SplineSet
615 949 m 0,0,1
 615 955 615 955 615 960 c 0,2,3
 607 1101 607 1101 459 1144 c 1,4,5
 517 1165 517 1165 549 1210.5 c 128,-1,6
 581 1256 581 1256 581 1317.5 c 128,-1,7
 581 1379 581 1379 522.5 1430 c 128,-1,8
 464 1481 464 1481 380 1481 c 128,-1,9
 296 1481 296 1481 233.5 1448.5 c 128,-1,10
 171 1416 171 1416 150 1358 c 1,11,-1
 223 1307 l 1,12,13
 243 1351 243 1351 282 1373.5 c 128,-1,14
 321 1396 321 1396 369.5 1396 c 128,-1,15
 418 1396 418 1396 444.5 1369.5 c 128,-1,16
 471 1343 471 1343 471 1298 c 0,17,18
 471 1184 471 1184 318 1182 c 1,19,-1
 318 1095 l 1,20,21
 506 1095 506 1095 506 953 c 0,22,23
 506 907 506 907 469.5 870.5 c 128,-1,24
 433 834 433 834 376 834 c 0,25,26
 244 834 244 834 208 950 c 1,27,-1
 130 910 l 1,28,29
 150 828 150 828 219 787 c 128,-1,30
 288 746 288 746 385.5 745.5 c 128,-1,31
 483 745 483 745 549 805 c 128,-1,32
 615 865 615 865 615 949 c 0,0,1
EndSplineSet
EndChar

StartChar: acute
Encoding: 180 180 117
Width: 494
GlyphClass: 2
Flags: HW
LayerCount: 2
Fore
SplineSet
254 1492 m 1,0,-1
 449 1492 l 1,1,-1
 141 1172 l 1,2,-1
 49 1172 l 1,3,-1
 254 1492 l 1,0,-1
EndSplineSet
EndChar

StartChar: uni00B5
Encoding: 181 181 118
Width: 1122
GlyphClass: 2
Flags: HW
LayerCount: 2
Fore
SplineSet
261 -350 m 1,0,-1
 261 57 l 1,1,2
 292 22 292 22 348 -1 c 128,-1,3
 404 -24 404 -24 467 -24 c 0,4,5
 712 -24 712 -24 829 159 c 1,6,-1
 833 0 l 1,7,-1
 970 0 l 1,8,-1
 970 1023 l 1,9,-1
 828 1023 l 1,10,-1
 828 436 l 2,11,12
 828 353 828 353 794.5 286 c 0,13,14
 760 220 760 220 724 180 c 0,15,16
 639 88 639 88 504.5 87.5 c 128,-1,17
 370 87 370 87 319 168 c 128,-1,18
 268 249 268 249 268 406 c 2,19,-1
 268 1023 l 1,20,-1
 121 1023 l 1,21,-1
 121 481 l 1,22,-1
 119 481 l 1,23,-1
 119 -350 l 1,24,-1
 261 -350 l 1,0,-1
EndSplineSet
EndChar

StartChar: paragraph
Encoding: 182 182 119
Width: 1038
GlyphClass: 2
Flags: HW
LayerCount: 2
Fore
SplineSet
465 0 m 1,0,-1
 465 799 l 1,1,2
 303 799 303 799 195 894 c 128,-1,3
 87 989 87 989 87 1135 c 0,4,5
 87 1322 87 1322 246 1400 c 0,6,7
 376 1464 376 1464 626 1464 c 2,8,-1
 994 1464 l 1,9,-1
 994 1349 l 1,10,-1
 824 1349 l 1,11,-1
 824 0 l 1,12,-1
 698 0 l 1,13,-1
 698 799 l 1,14,-1
 595 799 l 1,15,-1
 595 0 l 1,16,-1
 465 0 l 1,0,-1
EndSplineSet
EndChar

StartChar: periodcentered
Encoding: 183 183 120
Width: 434
GlyphClass: 2
Flags: HW
LayerCount: 2
Fore
SplineSet
135 758 m 1,0,-1
 299 758 l 1,1,-1
 299 543 l 1,2,-1
 135 543 l 1,3,-1
 135 758 l 1,0,-1
EndSplineSet
EndChar

StartChar: cedilla
Encoding: 184 184 121
Width: 435
GlyphClass: 2
Flags: HW
LayerCount: 2
Fore
SplineSet
150 -174 m 1,0,-1
 150 -10 l 1,1,-1
 350 -10 l 1,2,-1
 350 -189 l 2,3,4
 350 -269 350 -269 316 -329.5 c 128,-1,5
 282 -390 282 -390 214 -390 c 0,6,7
 193 -390 193 -390 172 -381 c 1,8,-1
 172 -316 l 1,9,10
 202 -324 202 -324 209 -324 c 0,11,12
 231 -324 231 -324 240 -293 c 128,-1,13
 249 -262 249 -262 249 -174 c 1,14,-1
 150 -174 l 1,0,-1
EndSplineSet
EndChar

StartChar: uni00B9
Encoding: 185 185 122
Width: 546
GlyphClass: 2
Flags: HW
LayerCount: 2
Fore
SplineSet
262 769 m 1,0,-1
 375 769 l 1,1,-1
 375 1464 l 1,2,-1
 272 1464 l 1,3,-1
 124 1397 l 1,4,-1
 145 1307 l 1,5,-1
 262 1365 l 1,6,-1
 262 769 l 1,0,-1
EndSplineSet
EndChar

StartChar: ordmasculine
Encoding: 186 186 123
Width: 1000
GlyphClass: 2
Flags: HW
LayerCount: 2
Fore
SplineSet
228.5 756.5 m 128,-1,1
 123 642 123 642 123 427 c 128,-1,2
 123 212 123 212 226.5 96 c 128,-1,3
 330 -20 330 -20 500 -20 c 128,-1,4
 670 -20 670 -20 773.5 97 c 128,-1,5
 877 214 877 214 877 429 c 128,-1,6
 877 644 877 644 771.5 757.5 c 128,-1,7
 666 871 666 871 500 871 c 128,-1,0
 334 871 334 871 228.5 756.5 c 128,-1,1
500 79 m 0,8,9
 437 79 437 79 388.5 108.5 c 128,-1,10
 340 138 340 138 312 188 c 0,11,12
 254 289 254 289 254 428 c 0,13,14
 254 566 254 566 310 665 c 0,15,16
 372 773 372 773 500 773 c 0,17,18
 582 774 582 774 640 722 c 0,19,20
 746 627 746 627 747 426 c 0,21,22
 748 288 748 288 690 187 c 0,23,24
 628 79 628 79 500 79 c 0,8,9
EndSplineSet
EndChar

StartChar: guillemotright
Encoding: 187 187 124
Width: 946
GlyphClass: 2
Flags: HW
LayerCount: 2
Fore
SplineSet
53 1049 m 1,0,-1
 498 748 l 1,1,-1
 498 551 l 1,2,-1
 53 250 l 1,3,-1
 53 391 l 1,4,-1
 400 650 l 1,5,-1
 53 907 l 1,6,-1
 53 1049 l 1,0,-1
896 748 m 1,7,-1
 896 551 l 1,8,-1
 451 250 l 1,9,-1
 451 391 l 1,10,-1
 798 650 l 1,11,-1
 451 907 l 1,12,-1
 451 1049 l 1,13,-1
 896 748 l 1,7,-1
EndSplineSet
EndChar

StartChar: onequarter
Encoding: 188 188 125
Width: 1403
GlyphClass: 3
Flags: HW
LayerCount: 2
Fore
SplineSet
68 52 m 1,0,-1
 146 -14 l 1,1,-1
 1381 1415 l 1,2,-1
 1304 1481 l 1,3,-1
 68 52 l 1,0,-1
302 1365 m 1,4,-1
 302 769 l 1,5,-1
 415 769 l 1,6,-1
 415 1464 l 1,7,-1
 312 1464 l 1,8,-1
 164 1397 l 1,9,-1
 185 1307 l 1,10,-1
 302 1365 l 1,4,-1
707 152 m 1,11,-1
 1058 152 l 1,12,-1
 1058 0 l 1,13,-1
 1173 0 l 1,14,-1
 1173 152 l 1,15,-1
 1273 152 l 1,16,-1
 1273 234 l 1,17,-1
 1173 234 l 1,18,-1
 1173 693 l 1,19,-1
 1027 693 l 1,20,-1
 707 220 l 1,21,-1
 707 152 l 1,11,-1
1058 234 m 1,22,-1
 821 234 l 1,23,-1
 1058 585 l 1,24,-1
 1058 234 l 1,22,-1
EndSplineSet
Ligature2: "'liga' Standard Ligatures in Latin lookup 0 subtable" one slash four
EndChar

StartChar: onehalf
Encoding: 189 189 126
Width: 1361
GlyphClass: 3
Flags: HW
LayerCount: 2
Fore
SplineSet
86 -14 m 1,0,-1
 1321 1415 l 1,1,-1
 1244 1481 l 1,2,-1
 8 52 l 1,3,-1
 86 -14 l 1,0,-1
302 1365 m 1,4,-1
 302 769 l 1,5,-1
 415 769 l 1,6,-1
 415 1464 l 1,7,-1
 312 1464 l 1,8,-1
 164 1397 l 1,9,-1
 185 1307 l 1,10,-1
 302 1365 l 1,4,-1
1231 0 m 1,11,-1
 1231 80 l 1,12,-1
 901 80 l 1,13,14
 940 147 940 147 1056 232 c 0,15,16
 1098 264 1098 264 1139 300 c 0,17,18
 1229 382 1229 382 1229 490 c 128,-1,19
 1229 598 1229 598 1157.5 655 c 128,-1,20
 1086 712 1086 712 995.5 712 c 128,-1,21
 905 712 905 712 835.5 667.5 c 128,-1,22
 766 623 766 623 735 537 c 1,23,24
 759 527 759 527 806 502 c 2,25,-1
 825 492 l 1,26,27
 838 551 838 551 885 584 c 128,-1,28
 932 617 932 617 988 617 c 128,-1,29
 1044 617 1044 617 1082.5 584 c 128,-1,30
 1121 551 1121 551 1121 490 c 2,31,-1
 1121 487 l 2,32,33
 1121 420 1121 420 1028 344 c 0,34,35
 923 259 923 259 868 207 c 0,36,37
 760 106 760 106 756 0 c 1,38,-1
 1231 0 l 1,11,-1
EndSplineSet
Ligature2: "'liga' Standard Ligatures in Latin lookup 0 subtable" one slash two
EndChar

StartChar: threequarters
Encoding: 190 190 127
Width: 1441
GlyphClass: 3
Flags: HW
LayerCount: 2
Fore
SplineSet
189 -14 m 1,0,-1
 1424 1415 l 1,1,-1
 1347 1481 l 1,2,-1
 111 52 l 1,3,-1
 189 -14 l 1,0,-1
1096 152 m 1,4,-1
 1096 0 l 1,5,-1
 1211 0 l 1,6,-1
 1211 152 l 1,7,-1
 1311 152 l 1,8,-1
 1311 234 l 1,9,-1
 1211 234 l 1,10,-1
 1211 693 l 1,11,-1
 1065 693 l 1,12,-1
 745 220 l 1,13,-1
 745 152 l 1,14,-1
 1096 152 l 1,4,-1
859 234 m 1,15,-1
 1096 585 l 1,16,-1
 1096 234 l 1,17,-1
 859 234 l 1,15,-1
615 949 m 0,18,19
 615 955 615 955 615 960 c 0,20,21
 607 1101 607 1101 459 1144 c 1,22,23
 517 1165 517 1165 549 1210.5 c 128,-1,24
 581 1256 581 1256 581 1317.5 c 128,-1,25
 581 1379 581 1379 522.5 1430 c 128,-1,26
 464 1481 464 1481 380 1481 c 128,-1,27
 296 1481 296 1481 233.5 1448.5 c 128,-1,28
 171 1416 171 1416 150 1358 c 1,29,-1
 223 1307 l 1,30,31
 243 1351 243 1351 282 1373.5 c 128,-1,32
 321 1396 321 1396 369.5 1396 c 128,-1,33
 418 1396 418 1396 444.5 1369.5 c 128,-1,34
 471 1343 471 1343 471 1298 c 0,35,36
 471 1184 471 1184 318 1182 c 1,37,-1
 318 1095 l 1,38,39
 506 1095 506 1095 506 953 c 0,40,41
 506 907 506 907 469.5 870.5 c 128,-1,42
 433 834 433 834 376 834 c 0,43,44
 244 834 244 834 208 950 c 1,45,-1
 130 910 l 1,46,47
 150 828 150 828 219 787 c 128,-1,48
 288 746 288 746 385.5 745.5 c 128,-1,49
 483 745 483 745 549 805 c 128,-1,50
 615 865 615 865 615 949 c 0,18,19
EndSplineSet
Ligature2: "'liga' Standard Ligatures in Latin lookup 0 subtable" three slash four
EndChar

StartChar: questiondown
Encoding: 191 191 128
Width: 1099
GlyphClass: 2
Flags: HW
LayerCount: 2
Fore
SplineSet
295 507 m 128,-1,1
 317 566 317 566 360 624 c 0,2,3
 402 682 402 682 452 741 c 0,4,5
 594 910 594 910 702 1109 c 1,6,-1
 553 1109 l 1,7,8
 464 957 464 957 312 774 c 0,9,10
 184 619 184 619 155.5 535.5 c 128,-1,11
 127 452 127 452 127 383 c 128,-1,12
 127 314 127 314 142 258 c 128,-1,13
 157 202 157 202 191.5 150.5 c 0,14,15
 226 98 226 98 276 60 c 0,16,17
 387 -24 387 -24 571 -24 c 0,18,19
 881 -24 881 -24 1033 217 c 1,20,-1
 934 290 l 1,21,22
 804 87 804 87 580 87 c 0,23,24
 388 86 388 86 314 214 c 0,25,26
 274 283 274 283 273.5 365.5 c 128,-1,0
 273 448 273 448 295 507 c 128,-1,1
718 1467 m 1,27,-1
 554 1467 l 1,28,-1
 554 1252 l 1,29,-1
 718 1252 l 1,30,-1
 718 1467 l 1,27,-1
EndSplineSet
EndChar

StartChar: AE
Encoding: 198 198 135
Width: 2030
GlyphClass: 2
Flags: HW
LayerCount: 2
Fore
SplineSet
432 508 m 1,0,-1
 974 508 l 1,1,-1
 974 1406 l 1,2,3
 977 1403 977 1403 915 1300 c 128,-1,4
 853 1197 853 1197 832 1167 c 1,5,6
 479 586 479 586 432 508 c 1,0,-1
1843 838 m 1,7,-1
 1842 723 l 1,8,-1
 1118 723 l 1,9,-1
 1118 113 l 1,10,-1
 2015 113 l 1,11,-1
 2015 0 l 1,12,-1
 971 0 l 1,13,-1
 971 399 l 1,14,-1
 371 399 l 1,15,-1
 124 0 l 1,16,-1
 -37 0 l 1,17,-1
 870 1464 l 1,18,-1
 2005 1464 l 1,19,-1
 2005 1352 l 1,20,-1
 1118 1352 l 1,21,-1
 1118 838 l 1,22,-1
 1843 838 l 1,7,-1
EndSplineSet
EndChar

StartChar: Idieresis
Encoding: 207 207 144
Width: 464
GlyphClass: 2
Flags: HW
LayerCount: 2
Fore
SplineSet
503 1806 m 1,0,-1
 503 1632 l 1,1,-1
 337 1632 l 1,2,-1
 337 1806 l 1,3,-1
 503 1806 l 1,0,-1
-42 1806 m 1,4,-1
 124 1806 l 1,5,-1
 124 1632 l 1,6,-1
 -42 1632 l 1,7,-1
 -42 1806 l 1,4,-1
309 0 m 1,8,-1
 163 0 l 1,9,-1
 163 1464 l 1,10,-1
 309 1464 l 1,11,-1
 309 0 l 1,8,-1
EndSplineSet
EndChar

StartChar: Eth
Encoding: 208 208 145
Width: 1391
GlyphClass: 2
Flags: HW
LayerCount: 2
Fore
SplineSet
0 702 m 1,0,-1
 0 788 l 1,1,-1
 140 788 l 1,2,-1
 140 1464 l 1,3,-1
 644 1464 l 2,4,5
 803 1464 803 1464 916.5 1426.5 c 0,6,7
 1030 1388 1030 1388 1111 1304 c 0,8,9
 1270 1138 1270 1138 1270 739.5 c 128,-1,10
 1270 341 1270 341 1120 170.5 c 128,-1,11
 970 0 970 0 637 0 c 2,12,-1
 140 0 l 1,13,-1
 140 702 l 1,14,-1
 0 702 l 1,0,-1
645 1350 m 2,15,-1
 286 1350 l 1,16,-1
 286 788 l 1,17,-1
 550 788 l 1,18,-1
 550 702 l 1,19,-1
 286 702 l 1,20,-1
 286 114 l 1,21,-1
 589 114 l 2,22,23
 744 114 744 114 846.5 147.5 c 128,-1,24
 949 181 949 181 1012 258 c 128,-1,25
 1075 335 1075 335 1101 449.5 c 128,-1,26
 1127 564 1127 564 1127 712 c 128,-1,27
 1127 860 1127 860 1114 952 c 128,-1,28
 1101 1044 1101 1044 1068 1121.5 c 0,29,30
 1034 1199 1034 1199 980 1248 c 0,31,32
 866 1350 866 1350 645 1350 c 2,15,-1
EndSplineSet
EndChar

StartChar: multiply
Encoding: 215 215 152
Width: 734
GlyphClass: 2
Flags: HW
LayerCount: 2
Fore
SplineSet
190 203 m 1,0,-1
 120 273 l 1,1,-1
 296 449 l 1,2,-1
 119 626 l 1,3,-1
 191 698 l 1,4,-1
 368 521 l 1,5,-1
 544 697 l 1,6,-1
 614 627 l 1,7,-1
 438 451 l 1,8,-1
 615 274 l 1,9,-1
 543 202 l 1,10,-1
 366 379 l 1,11,-1
 190 203 l 1,0,-1
EndSplineSet
EndChar

StartChar: Oslash
Encoding: 216 216 153
Width: 1463
GlyphClass: 2
Flags: HW
LayerCount: 2
Fore
SplineSet
740 1374 m 0,0,1
 862 1374 862 1374 961 1321 c 1,2,-1
 411 200 l 1,3,4
 267 344 267 344 267 741 c 0,5,6
 268 1118 268 1118 410 1264 c 0,7,8
 518 1374 518 1374 740 1374 c 0,0,1
723 93 m 0,9,10
 583 93 583 93 489 142 c 1,11,-1
 1038 1262 l 1,12,13
 1180 1116 1180 1116 1180 758.5 c 128,-1,14
 1180 401 1180 401 1076 247 c 128,-1,15
 972 93 972 93 723 93 c 0,9,10
1335 741 m 0,16,17
 1335 1211 1335 1211 1098 1386 c 1,18,-1
 1210 1614 l 1,19,-1
 1126 1658 l 1,20,-1
 1016 1434 l 1,21,22
 895 1491 895 1491 736.5 1491 c 128,-1,23
 578 1491 578 1491 467.5 1449.5 c 128,-1,24
 357 1408 357 1408 277 1320 c 0,25,26
 114 1140 114 1140 114 740 c 0,27,28
 114 251 114 251 352 78 c 1,29,-1
 235 -160 l 1,30,-1
 320 -204 l 1,31,-1
 434 30 l 1,32,33
 553 -25 553 -25 722 -25 c 0,34,35
 1025 -25 1025 -25 1180 158 c 128,-1,36
 1335 341 1335 341 1335 741 c 0,16,17
EndSplineSet
EndChar

StartChar: Thorn
Encoding: 222 222 159
Width: 1261
GlyphClass: 2
Flags: HW
LayerCount: 2
Fore
SplineSet
140 0 m 1,0,-1
 140 1464 l 1,1,-1
 296 1464 l 1,2,-1
 296 1194 l 1,3,-1
 561 1194 l 2,4,5
 1014 1194 1014 1194 1140 1011 c 0,6,7
 1202 920 1202 920 1203 773 c 0,8,9
 1203 528 1203 528 1044.5 431.5 c 128,-1,10
 886 335 886 335 502 335 c 2,11,-1
 290 335 l 1,12,-1
 290 0 l 1,13,-1
 140 0 l 1,0,-1
296 1080 m 1,14,-1
 296 449 l 1,15,-1
 558 449 l 1,16,17
 829 450 829 450 942 519 c 128,-1,18
 1055 588 1055 588 1055 765.5 c 128,-1,19
 1055 943 1055 943 939.5 1011.5 c 128,-1,20
 824 1080 824 1080 538 1080 c 2,21,-1
 296 1080 l 1,14,-1
EndSplineSet
EndChar

StartChar: germandbls
Encoding: 223 223 160
Width: 1199
GlyphClass: 2
Flags: HW
LayerCount: 2
Fore
SplineSet
130 0 m 1,0,-1
 130 1151 l 2,1,2
 130 1231 130 1231 167.5 1297.5 c 0,3,4
 206 1364 206 1364 268 1406 c 0,5,6
 398 1492 398 1492 576 1492 c 128,-1,7
 754 1492 754 1492 847 1411 c 128,-1,8
 940 1330 940 1330 940 1203 c 0,9,10
 940 1086 940 1086 848 1006 c 0,11,12
 769 938 769 938 703 908 c 0,13,14
 585 853 585 853 585 828 c 2,15,-1
 585 823 l 2,16,17
 586 772 586 772 692 722 c 0,18,19
 740 700 740 700 796.5 674.5 c 128,-1,20
 853 649 853 649 910 617.5 c 0,21,22
 966 586 966 586 1014 548 c 0,23,24
 1120 463 1120 463 1121 336 c 0,25,26
 1121 262 1121 262 1108.5 213.5 c 128,-1,27
 1096 165 1096 165 1057.5 121 c 0,28,29
 1019 76 1019 76 949 52 c 0,30,31
 799 0 799 0 481 0 c 2,32,-1
 441 0 l 1,33,-1
 441 117 l 1,34,35
 773 117 773 117 879 174 c 0,36,37
 935 204 935 204 955 240.5 c 128,-1,38
 975 277 975 277 975 329 c 128,-1,39
 975 381 975 381 945.5 422.5 c 128,-1,40
 916 464 916 464 869 494 c 128,-1,41
 822 524 822 524 765 551.5 c 128,-1,42
 708 579 708 579 651 606 c 128,-1,43
 594 633 594 633 547 662 c 0,44,45
 441 727 441 727 441 816 c 0,46,47
 441 906 441 906 569 974 c 0,48,49
 622 1002 622 1002 676 1031 c 0,50,51
 804 1101 804 1101 804 1209 c 0,52,53
 804 1294 804 1294 742.5 1341 c 128,-1,54
 681 1388 681 1388 564.5 1388 c 128,-1,55
 448 1388 448 1388 362 1322 c 128,-1,56
 276 1256 276 1256 276 1140 c 2,57,-1
 276 0 l 1,58,-1
 130 0 l 1,0,-1
EndSplineSet
EndChar

StartChar: ae
Encoding: 230 230 167
Width: 1667
GlyphClass: 2
Flags: HW
LayerCount: 2
Fore
SplineSet
400.5 562.5 m 128,-1,1
 491 579 491 579 624 580 c 128,-1,2
 757 581 757 581 752 586 c 1,3,4
 752 821 752 821 691 884 c 0,5,6
 637 940 637 940 523 940 c 0,7,8
 407 940 407 940 350 916 c 0,9,10
 276 885 276 885 203 838 c 1,11,-1
 133 927 l 1,12,13
 302 1044 302 1044 518 1044 c 0,14,15
 647 1044 647 1044 734.5 991 c 128,-1,16
 822 938 822 938 842 832 c 1,17,18
 887 931 887 931 982 987.5 c 128,-1,19
 1077 1044 1077 1044 1186 1044 c 128,-1,20
 1295 1044 1295 1044 1372.5 1009 c 128,-1,21
 1450 974 1450 974 1496 910 c 0,22,23
 1586 784 1586 784 1587 572 c 0,24,25
 1587 534 1587 534 1584 508 c 1,26,-1
 900 494 l 1,27,28
 900 81 900 81 1191 81 c 0,29,30
 1315 82 1315 82 1384 158 c 0,31,32
 1440 221 1440 221 1455 273 c 1,33,-1
 1570 234 l 1,34,35
 1528 120 1528 120 1426 48.5 c 128,-1,36
 1324 -23 1324 -23 1198 -23.5 c 128,-1,37
 1072 -24 1072 -24 976.5 32.5 c 128,-1,38
 881 89 881 89 845 195 c 1,39,40
 777 72 777 72 672 23.5 c 128,-1,41
 567 -25 567 -25 452 -25 c 128,-1,42
 337 -25 337 -25 261.5 2.5 c 128,-1,43
 186 30 186 30 135 94.5 c 128,-1,44
 84 159 84 159 84 251.5 c 128,-1,45
 84 344 84 344 122.5 409 c 128,-1,46
 161 474 161 474 235.5 510 c 128,-1,0
 310 546 310 546 400.5 562.5 c 128,-1,1
771 318 m 1,47,-1
 761 487 l 1,48,-1
 620 482 l 1,49,50
 382 470 382 470 301 412 c 0,51,52
 226 359 226 359 226 264.5 c 128,-1,53
 226 170 226 170 289 125 c 128,-1,54
 352 80 352 80 428 80 c 128,-1,55
 504 80 504 80 562.5 95 c 128,-1,56
 621 110 621 110 668 138 c 0,57,58
 771 200 771 200 771 318 c 1,47,-1
1450 606 m 1,59,60
 1449 770 1449 770 1387 855.5 c 128,-1,61
 1325 941 1325 941 1191 941 c 128,-1,62
 1057 941 1057 941 983 840.5 c 128,-1,63
 909 740 909 740 901 592 c 1,64,-1
 1450 606 l 1,59,60
EndSplineSet
EndChar

StartChar: eth
Encoding: 240 240 177
Width: 1053
GlyphClass: 2
Flags: HW
LayerCount: 2
Fore
SplineSet
368 1101 m 1,0,-1
 559 1225 l 1,1,2
 408 1339 408 1339 169 1339 c 1,3,-1
 169 1432 l 1,4,5
 460 1432 460 1432 648 1283 c 1,6,-1
 854 1418 l 1,7,-1
 907 1343 l 1,8,-1
 715 1218 l 1,9,10
 817 1112 817 1112 888 920.5 c 128,-1,11
 959 729 959 729 959 529 c 0,12,13
 960 284 960 284 858 134 c 0,14,15
 750 -25 750 -25 518 -25 c 0,16,17
 414 -25 414 -25 331.5 15 c 0,18,19
 249 54 249 54 198 122 c 0,20,21
 94 260 94 260 94 454 c 0,22,23
 94 560 94 560 128.5 647.5 c 0,24,25
 162 735 162 735 220 791 c 0,26,27
 340 908 340 908 510 908 c 128,-1,28
 680 908 680 908 810 774 c 1,29,30
 796 878 796 878 738 988.5 c 128,-1,31
 680 1099 680 1099 618 1155 c 1,32,-1
 421 1026 l 1,33,-1
 368 1101 l 1,0,-1
523 798 m 0,34,35
 400 798 400 798 317.5 701.5 c 128,-1,36
 235 605 235 605 235 440 c 128,-1,37
 235 275 235 275 314 179.5 c 128,-1,38
 393 84 393 84 531.5 84 c 128,-1,39
 670 84 670 84 746.5 199.5 c 128,-1,40
 823 315 823 315 823 511 c 0,41,42
 823 620 823 620 816 650 c 1,43,44
 681 798 681 798 523 798 c 0,34,35
EndSplineSet
EndChar

StartChar: divide
Encoding: 247 247 184
Width: 1024
GlyphClass: 2
Flags: HW
LayerCount: 2
Fore
SplineSet
565 385 m 1,0,-1
 565 171 l 1,1,-1
 392 171 l 1,2,-1
 392 385 l 1,3,-1
 565 385 l 1,0,-1
392 1024 m 1,4,-1
 565 1024 l 1,5,-1
 565 808 l 1,6,-1
 392 808 l 1,7,-1
 392 1024 l 1,4,-1
850 551 m 1,8,-1
 850 649 l 1,9,-1
 100 649 l 1,10,-1
 100 551 l 1,11,-1
 850 551 l 1,8,-1
EndSplineSet
EndChar

StartChar: oslash
Encoding: 248 248 185
Width: 1064
GlyphClass: 2
Flags: HW
LayerCount: 2
Fore
SplineSet
534 940 m 0,0,1
 620 940 620 940 683 898 c 1,2,-1
 334 164 l 1,3,4
 237 273 237 273 237 513 c 0,5,6
 236 682 236 682 296 803 c 0,7,8
 362 940 362 940 534 940 c 0,0,1
652 106 m 0,9,10
 600 81 600 81 528.5 81 c 128,-1,11
 457 81 457 81 400 112 c 1,12,-1
 745 838 l 1,13,14
 828 727 828 727 828 511 c 0,15,16
 828 190 828 190 652 106 c 0,9,10
972 513 m 0,17,18
 972 818 972 818 801 956 c 1,19,-1
 906 1178 l 1,20,-1
 834 1216 l 1,21,-1
 732 1001 l 1,22,23
 645 1044 645 1044 533 1044 c 0,24,25
 334 1044 334 1044 213 908 c 128,-1,26
 92 772 92 772 92 510 c 0,27,28
 92 187 92 187 280 50 c 1,29,-1
 181 -159 l 1,30,-1
 254 -197 l 1,31,-1
 352 10 l 1,32,33
 432 -24 432 -24 532 -24 c 0,34,35
 735 -24 735 -24 853.5 115.5 c 128,-1,36
 972 255 972 255 972 513 c 0,17,18
EndSplineSet
EndChar

StartChar: thorn
Encoding: 254 254 191
Width: 1058
GlyphClass: 2
Flags: HW
LayerCount: 2
Fore
SplineSet
272 1464 m 1,0,-1
 272 874 l 1,1,2
 371 1044 371 1044 573 1044 c 0,3,4
 864 1044 864 1044 944 726 c 0,5,6
 968 632 968 632 967.5 518 c 128,-1,7
 967 404 967 404 943.5 307 c 128,-1,8
 920 210 920 210 874 136 c 0,9,10
 775 -22 775 -22 580 -24 c 1,11,12
 476 -24 476 -24 396.5 22 c 128,-1,13
 317 68 317 68 273 154 c 1,14,-1
 273 -378 l 1,15,-1
 131 -394 l 1,16,-1
 131 1464 l 1,17,-1
 272 1464 l 1,0,-1
752.5 197 m 128,-1,19
 822 313 822 313 822 519 c 128,-1,20
 822 725 822 725 745 834 c 128,-1,21
 668 943 668 943 556.5 943 c 128,-1,22
 445 943 445 943 359 828.5 c 128,-1,23
 273 714 273 714 273 519 c 0,24,25
 273 81 273 81 559 81 c 0,26,18
 683 81 683 81 752.5 197 c 128,-1,19
EndSplineSet
EndChar

StartChar: Dcroat
Encoding: 272 272 209
Width: 1391
GlyphClass: 2
Flags: HW
LayerCount: 2
Fore
SplineSet
0 702 m 1,0,-1
 0 788 l 1,1,-1
 140 788 l 1,2,-1
 140 1464 l 1,3,-1
 644 1464 l 2,4,5
 803 1464 803 1464 916.5 1426.5 c 0,6,7
 1030 1388 1030 1388 1111 1304 c 0,8,9
 1270 1138 1270 1138 1270 739.5 c 128,-1,10
 1270 341 1270 341 1120 170.5 c 128,-1,11
 970 0 970 0 637 0 c 2,12,-1
 140 0 l 1,13,-1
 140 702 l 1,14,-1
 0 702 l 1,0,-1
645 1350 m 2,15,-1
 286 1350 l 1,16,-1
 286 788 l 1,17,-1
 550 788 l 1,18,-1
 550 702 l 1,19,-1
 286 702 l 1,20,-1
 286 114 l 1,21,-1
 589 114 l 2,22,23
 744 114 744 114 846.5 147.5 c 128,-1,24
 949 181 949 181 1012 258 c 128,-1,25
 1075 335 1075 335 1101 449.5 c 128,-1,26
 1127 564 1127 564 1127 712 c 128,-1,27
 1127 860 1127 860 1114 952 c 128,-1,28
 1101 1044 1101 1044 1068 1121.5 c 0,29,30
 1034 1199 1034 1199 980 1248 c 0,31,32
 866 1350 866 1350 645 1350 c 2,15,-1
EndSplineSet
EndChar

StartChar: dcroat
Encoding: 273 273 210
Width: 1024
GlyphClass: 2
Flags: HW
LayerCount: 2
Fore
SplineSet
506 81 m 0,0,1
 665 80 665 80 735 190 c 0,2,3
 800 291 800 291 800 499 c 0,4,5
 800 822 800 822 648 907 c 0,6,7
 588 940 588 940 504 940 c 0,8,9
 378 940 378 940 310 821.5 c 128,-1,10
 242 703 242 703 242 509 c 128,-1,11
 242 315 242 315 312 198 c 128,-1,12
 382 81 382 81 506 81 c 0,0,1
200 119 m 128,-1,14
 96 262 96 262 96 507.5 c 128,-1,15
 96 753 96 753 196.5 898.5 c 128,-1,16
 297 1044 297 1044 484 1044 c 0,17,18
 596 1044 596 1044 678 998.5 c 128,-1,19
 760 953 760 953 794 863 c 1,20,-1
 794 1196 l 1,21,-1
 504 1196 l 1,22,-1
 504 1282 l 1,23,-1
 794 1282 l 1,24,-1
 794 1474 l 1,25,-1
 937 1474 l 1,26,-1
 937 1282 l 1,27,-1
 1024 1282 l 1,28,-1
 1024 1196 l 1,29,-1
 937 1196 l 1,30,-1
 937 0 l 1,31,-1
 823 0 l 1,32,-1
 804 172 l 1,33,34
 765 82 765 82 679.5 29 c 128,-1,35
 594 -24 594 -24 488 -24 c 0,36,13
 304 -24 304 -24 200 119 c 128,-1,14
EndSplineSet
EndChar

StartChar: gcommaaccent
Encoding: 291 291 224
Width: 1077
GlyphClass: 2
Flags: HW
LayerCount: 2
Fore
SplineSet
818 543 m 2,0,1
 818 810 818 810 672 898 c 0,2,3
 603 940 603 940 524 940 c 128,-1,4
 445 940 445 940 389 905.5 c 0,5,6
 332 871 332 871 300 812 c 0,7,8
 236 695 236 695 236 505 c 128,-1,9
 236 315 236 315 310.5 198 c 128,-1,10
 385 81 385 81 513 81 c 0,11,12
 672 82 672 82 750 202 c 0,13,14
 818 308 818 308 818 509 c 2,15,-1
 818 543 l 2,0,1
527 -429 m 0,16,17
 261 -429 261 -429 164 -267 c 1,18,-1
 247 -188 l 1,19,20
 329 -320 329 -320 534 -320 c 0,21,22
 677 -320 677 -320 747.5 -229 c 128,-1,23
 818 -138 818 -138 818 28 c 2,24,-1
 818 130 l 1,25,26
 701 -24 701 -24 506.5 -24 c 128,-1,27
 312 -24 312 -24 203 127.5 c 128,-1,28
 94 279 94 279 94 526 c 0,29,30
 94 841 94 841 278 976 c 0,31,32
 371 1044 371 1044 502 1044 c 0,33,34
 701 1044 701 1044 829 891 c 1,35,-1
 837 1023 l 1,36,-1
 951 1023 l 1,37,-1
 951 20 l 2,38,39
 952 -175 952 -175 846 -300 c 0,40,41
 738 -429 738 -429 527 -429 c 0,16,17
625 1123 m 1,42,-1
 425 1123 l 1,43,-1
 425 1208 l 1,44,45
 430 1361 430 1361 444 1420 c 0,46,47
 472 1534 472 1534 562 1596 c 1,48,-1
 611 1534 l 1,49,50
 585 1514 585 1514 559 1455 c 128,-1,51
 533 1396 533 1396 531 1316 c 1,52,-1
 625 1316 l 1,53,-1
 625 1123 l 1,42,-1
506 1023 m 0,54,-1
EndSplineSet
EndChar

StartChar: Hbar
Encoding: 294 294 226
Width: 1457
GlyphClass: 2
Flags: HW
LayerCount: 2
Fore
SplineSet
48 1144 m 1,0,-1
 48 1230 l 1,1,-1
 148 1230 l 1,2,-1
 148 1464 l 1,3,-1
 294 1464 l 1,4,-1
 294 1230 l 1,5,-1
 1164 1230 l 1,6,-1
 1164 1464 l 1,7,-1
 1309 1464 l 1,8,-1
 1309 1230 l 1,9,-1
 1400 1230 l 1,10,-1
 1400 1144 l 1,11,-1
 1309 1144 l 1,12,-1
 1309 0 l 1,13,-1
 1164 0 l 1,14,-1
 1164 720 l 1,15,-1
 294 720 l 1,16,-1
 294 0 l 1,17,-1
 148 0 l 1,18,-1
 148 1144 l 1,19,-1
 48 1144 l 1,0,-1
1164 1144 m 1,20,-1
 294 1144 l 1,21,-1
 294 836 l 1,22,-1
 1164 836 l 1,23,-1
 1164 1144 l 1,20,-1
EndSplineSet
EndChar

StartChar: hbar
Encoding: 295 295 227
Width: 1117
GlyphClass: 2
Flags: HW
LayerCount: 2
Fore
SplineSet
-1 1205 m 1,0,-1
 -1 1299 l 1,1,-1
 140 1299 l 1,2,-1
 140 1473 l 1,3,-1
 283 1473 l 1,4,-1
 283 1299 l 1,5,-1
 550 1299 l 1,6,-1
 550 1205 l 1,7,-1
 283 1205 l 1,8,-1
 283 1053 l 2,9,10
 283 925 283 925 282 862 c 1,11,12
 399 1044 399 1044 634 1044 c 0,13,14
 964 1044 964 1044 988 672 c 0,15,16
 990 632 990 632 991 583 c 2,17,-1
 991 0 l 1,18,-1
 849 0 l 1,19,-1
 849 594 l 2,20,21
 849 765 849 765 796.5 852.5 c 128,-1,22
 744 940 744 940 613 940 c 0,23,24
 404 940 404 940 326 748 c 0,25,26
 283 641 283 641 283 483 c 2,27,-1
 283 0 l 1,28,-1
 140 0 l 1,29,-1
 140 1205 l 1,30,-1
 -1 1205 l 1,0,-1
EndSplineSet
EndChar

StartChar: dotlessi
Encoding: 305 305 237
Width: 411
GlyphClass: 2
Flags: HW
LayerCount: 2
Fore
SplineSet
140 0 m 1,0,-1
 140 1023 l 1,1,-1
 282 1023 l 1,2,-1
 282 0 l 1,3,-1
 140 0 l 1,0,-1
EndSplineSet
EndChar

StartChar: IJ
Encoding: 306 306 238
Width: 1418
GlyphClass: 2
Flags: HW
LayerCount: 2
Fore
SplineSet
485 334 m 1,0,-1
 615 369 l 1,1,2
 646 231 646 231 706 162 c 128,-1,3
 766 93 766 93 881 93 c 0,4,5
 998 93 998 93 1054 159 c 0,6,7
 1110 226 1110 226 1121 302 c 0,8,9
 1137 413 1137 413 1137 541 c 2,10,-1
 1137 1464 l 1,11,-1
 1282 1464 l 1,12,-1
 1282 544 l 2,13,14
 1282 250 1282 250 1189.5 112.5 c 128,-1,15
 1097 -25 1097 -25 869 -25 c 0,16,17
 556 -25 556 -25 485 334 c 1,0,-1
309 0 m 1,18,-1
 163 0 l 1,19,-1
 163 1464 l 1,20,-1
 309 1464 l 1,21,-1
 309 0 l 1,18,-1
EndSplineSet
EndChar

StartChar: ij
Encoding: 307 307 239
Width: 883
GlyphClass: 2
Flags: HW
LayerCount: 2
Fore
SplineSet
615 -91 m 2,0,-1
 615 1023 l 1,1,-1
 757 1023 l 1,2,-1
 757 -12 l 2,3,4
 757 -172 757 -172 727 -229.5 c 128,-1,5
 697 -287 697 -287 653 -306 c 128,-1,6
 609 -325 609 -325 527.5 -325 c 128,-1,7
 446 -325 446 -325 376 -284 c 1,8,-1
 400 -177 l 1,9,10
 484 -208 484 -208 525 -208 c 0,11,12
 615 -208 615 -208 615 -91 c 2,0,-1
617 1242 m 1,13,-1
 617 1421 l 1,14,-1
 758 1421 l 1,15,-1
 758 1242 l 1,16,-1
 617 1242 l 1,13,-1
135 1242 m 1,17,-1
 135 1421 l 1,18,-1
 276 1421 l 1,19,-1
 276 1242 l 1,20,-1
 135 1242 l 1,17,-1
137 0 m 1,21,-1
 137 1023 l 1,22,-1
 279 1023 l 1,23,-1
 279 0 l 1,24,-1
 137 0 l 1,21,-1
EndSplineSet
EndChar

StartChar: kgreenlandic
Encoding: 312 312 244
Width: 1010
GlyphClass: 2
Flags: HW
LayerCount: 2
Fore
SplineSet
797 1023 m 1,0,-1
 959 1023 l 1,1,-1
 599 621 l 1,2,-1
 1018 0 l 1,3,-1
 858 0 l 1,4,-1
 504 544 l 1,5,-1
 272 299 l 1,6,-1
 272 0 l 1,7,-1
 130 0 l 1,8,-1
 130 1024 l 1,9,-1
 271 1024 l 1,10,-1
 271 446 l 1,11,-1
 797 1023 l 1,0,-1
EndSplineSet
EndChar

StartChar: Lslash
Encoding: 321 321 253
Width: 1055
GlyphClass: 2
Flags: HW
LayerCount: 2
Fore
SplineSet
-1 658 m 1,0,-1
 -1 784 l 1,1,-1
 140 847 l 1,2,-1
 140 1464 l 1,3,-1
 286 1464 l 1,4,-1
 286 913 l 1,5,-1
 532 1024 l 1,6,-1
 532 898 l 1,7,-1
 286 787 l 1,8,-1
 286 113 l 1,9,-1
 1033 113 l 1,10,-1
 1033 0 l 1,11,-1
 140 0 l 1,12,-1
 140 721 l 1,13,-1
 -1 658 l 1,0,-1
EndSplineSet
EndChar

StartChar: lslash
Encoding: 322 322 254
Width: 421
GlyphClass: 2
Flags: HW
LayerCount: 2
Fore
SplineSet
-26 652 m 1,0,-1
 -26 787 l 1,1,-1
 140 879 l 1,2,-1
 140 1474 l 1,3,-1
 283 1474 l 1,4,-1
 283 949 l 1,5,-1
 448 1034 l 1,6,-1
 448 899 l 1,7,-1
 283 814 l 1,8,-1
 283 -1 l 1,9,-1
 140 -1 l 1,10,-1
 140 744 l 1,11,-1
 -26 652 l 1,0,-1
EndSplineSet
EndChar

StartChar: OE
Encoding: 338 338 267
Width: 2171
GlyphClass: 2
Flags: HW
LayerCount: 2
Fore
SplineSet
720 1374 m 0,0,1
 824 1374 824 1374 902 1345 c 128,-1,2
 980 1316 980 1316 1029.5 1264 c 0,3,4
 1080 1212 1080 1212 1110 1131 c 0,5,6
 1164 986 1164 986 1164 777.5 c 128,-1,7
 1164 569 1164 569 1142.5 451.5 c 128,-1,8
 1121 334 1121 334 1070 252 c 0,9,10
 972 94 972 94 722.5 93.5 c 128,-1,11
 473 93 473 93 369 248.5 c 128,-1,12
 265 404 265 404 265 741 c 0,13,14
 266 1118 266 1118 408 1264 c 0,15,16
 516 1374 516 1374 720 1374 c 0,0,1
1164 180 m 1,17,-1
 1164 0 l 1,18,-1
 2121 0 l 1,19,-1
 2121 113 l 1,20,-1
 1310 113 l 1,21,-1
 1310 723 l 1,22,-1
 1996 723 l 1,23,-1
 1996 838 l 1,24,-1
 1310 838 l 1,25,-1
 1310 1352 l 1,26,-1
 2110 1352 l 1,27,-1
 2110 1464 l 1,28,-1
 1163 1464 l 1,29,-1
 1163 1288 l 1,30,31
 1034 1491 1034 1491 721 1491 c 0,32,33
 270 1492 270 1492 154 1086 c 0,34,35
 112 940 112 940 112 737.5 c 128,-1,36
 112 535 112 535 152.5 387 c 128,-1,37
 193 239 193 239 273 149 c 0,38,39
 428 -25 428 -25 731 -25 c 128,-1,40
 1034 -25 1034 -25 1164 180 c 1,17,-1
1086 1464 m 0,41,-1
EndSplineSet
EndChar

StartChar: oe
Encoding: 339 339 268
Width: 1878
GlyphClass: 2
Flags: HW
LayerCount: 2
Fore
SplineSet
870 352 m 0,0,1
 884 424 884 424 884 509.5 c 128,-1,2
 884 595 884 595 870 667 c 128,-1,3
 856 739 856 739 824 803 c 0,4,5
 757 940 757 940 591 940 c 0,6,7
 349 940 349 940 307 636 c 0,8,9
 299 578 299 578 299 502.5 c 128,-1,10
 299 427 299 427 312.5 355 c 0,11,12
 326 282 326 282 358 218 c 0,13,14
 426 80 426 80 592 80 c 0,15,16
 819 80 819 80 870 352 c 0,0,1
1520 849.5 m 128,-1,18
 1453 942 1453 942 1318 942 c 128,-1,19
 1183 942 1183 942 1109.5 845.5 c 128,-1,20
 1036 749 1036 749 1028 592 c 1,21,-1
 1589 592 l 1,22,17
 1587 757 1587 757 1520 849.5 c 128,-1,18
1726 558 m 0,23,24
 1726 536 1726 536 1722 500 c 1,25,-1
 1026 500 l 1,26,27
 1026 184 1026 184 1208 104 c 0,28,29
 1262 80 1262 80 1330 80 c 0,30,31
 1434 80 1434 80 1502 147.5 c 128,-1,32
 1570 215 1570 215 1608 317 c 1,33,-1
 1704 276 l 1,34,35
 1666 133 1666 133 1564.5 55.5 c 128,-1,36
 1463 -22 1463 -22 1332 -24 c 1,37,38
 1067 -24 1067 -24 957 199 c 1,39,40
 904 89 904 89 809.5 32.5 c 128,-1,41
 715 -24 715 -24 591 -24 c 0,42,43
 390 -24 390 -24 273 115 c 128,-1,44
 156 254 156 254 156 513.5 c 128,-1,45
 156 773 156 773 275.5 908.5 c 128,-1,46
 395 1044 395 1044 593 1044 c 0,47,48
 714 1044 714 1044 809.5 987 c 128,-1,49
 905 930 905 930 959 819 c 1,50,51
 1012 927 1012 927 1104 985.5 c 128,-1,52
 1196 1044 1196 1044 1326 1044 c 128,-1,53
 1456 1044 1456 1044 1550 978 c 0,54,55
 1726 852 1726 852 1726 558 c 0,23,24
939 1023 m 0,56,-1
EndSplineSet
EndChar

StartChar: uni01C4
Encoding: 452 452 302
Width: 2576
GlyphClass: 2
Flags: HW
LayerCount: 2
Fore
SplineSet
2145 1613 m 1,0,-1
 1950 1613 l 1,1,-1
 1805 1933 l 1,2,-1
 1897 1933 l 1,3,-1
 2047 1705 l 1,4,-1
 2198 1933 l 1,5,-1
 2290 1933 l 1,6,-1
 2145 1613 l 1,0,-1
1530 1356 m 1,7,-1
 1530 1464 l 1,8,-1
 2536 1464 l 1,9,-1
 2536 1383 l 1,10,-1
 1628 107 l 1,11,-1
 2541 107 l 1,12,-1
 2534 0 l 1,13,-1
 1447 0 l 1,14,-1
 1447 98 l 1,15,-1
 2345 1356 l 1,16,-1
 1530 1356 l 1,7,-1
653 1350 m 2,17,-1
 294 1350 l 1,18,-1
 294 114 l 1,19,-1
 597 114 l 2,20,21
 752 114 752 114 856 147.5 c 128,-1,22
 960 181 960 181 1024.5 258 c 128,-1,23
 1089 335 1089 335 1116.5 450 c 128,-1,24
 1144 565 1144 565 1144 728 c 128,-1,25
 1144 891 1144 891 1121 999.5 c 128,-1,26
 1098 1108 1098 1108 1043 1190 c 0,27,28
 935 1350 935 1350 653 1350 c 2,17,-1
148 1464 m 1,29,-1
 652 1464 l 2,30,31
 968 1464 968 1464 1124 1304 c 0,32,33
 1288 1137 1288 1137 1287 738 c 0,34,35
 1288 219 1288 219 1008 73 c 0,36,37
 868 0 868 0 645 0 c 2,38,-1
 148 0 l 1,39,-1
 148 1464 l 1,29,-1
700 1464 m 0,40,-1
EndSplineSet
EndChar

StartChar: uni01C5
Encoding: 453 453 303
Width: 2278
GlyphClass: 2
Flags: HW
LayerCount: 2
Fore
SplineSet
1981 1172 m 1,0,-1
 1786 1172 l 1,1,-1
 1641 1492 l 1,2,-1
 1733 1492 l 1,3,-1
 1883 1264 l 1,4,-1
 2034 1492 l 1,5,-1
 2126 1492 l 1,6,-1
 1981 1172 l 1,0,-1
1486 919 m 1,7,-1
 1486 1023 l 1,8,-1
 2236 1023 l 1,9,-1
 2236 928 l 1,10,-1
 1627 103 l 1,11,-1
 2234 103 l 1,12,-1
 2234 0 l 1,13,-1
 1466 0 l 1,14,-1
 1466 94 l 1,15,-1
 2067 919 l 1,16,-1
 1486 919 l 1,7,-1
653 1350 m 2,17,-1
 294 1350 l 1,18,-1
 294 114 l 1,19,-1
 597 114 l 2,20,21
 752 114 752 114 856 147.5 c 128,-1,22
 960 181 960 181 1024.5 258 c 128,-1,23
 1089 335 1089 335 1116.5 450 c 128,-1,24
 1144 565 1144 565 1144 728 c 128,-1,25
 1144 891 1144 891 1121 999.5 c 128,-1,26
 1098 1108 1098 1108 1043 1190 c 0,27,28
 935 1350 935 1350 653 1350 c 2,17,-1
148 1464 m 1,29,-1
 652 1464 l 2,30,31
 968 1464 968 1464 1124 1304 c 0,32,33
 1288 1137 1288 1137 1287 738 c 0,34,35
 1288 219 1288 219 1008 73 c 0,36,37
 868 0 868 0 645 0 c 2,38,-1
 148 0 l 1,39,-1
 148 1464 l 1,29,-1
700 1464 m 0,40,-1
EndSplineSet
EndChar

StartChar: uni01C7
Encoding: 455 455 304
Width: 1974
GlyphClass: 2
Flags: HW
LayerCount: 2
Fore
SplineSet
1041 334 m 1,0,-1
 1171 369 l 1,1,2
 1202 231 1202 231 1262 162 c 128,-1,3
 1322 93 1322 93 1437 93 c 0,4,5
 1554 93 1554 93 1610 159 c 0,6,7
 1666 226 1666 226 1677 302 c 0,8,9
 1693 413 1693 413 1693 541 c 2,10,-1
 1693 1464 l 1,11,-1
 1838 1464 l 1,12,-1
 1838 544 l 2,13,14
 1838 250 1838 250 1745.5 112.5 c 128,-1,15
 1653 -25 1653 -25 1425 -25 c 0,16,17
 1112 -25 1112 -25 1041 334 c 1,0,-1
1041 0 m 1,18,-1
 148 0 l 1,19,-1
 148 1464 l 1,20,-1
 294 1464 l 1,21,-1
 294 113 l 1,22,-1
 1041 113 l 1,23,-1
 1041 0 l 1,18,-1
EndSplineSet
EndChar

StartChar: uni01C8
Encoding: 456 456 305
Width: 1502
GlyphClass: 2
Flags: HW
LayerCount: 2
Fore
SplineSet
1234 -91 m 2,0,-1
 1234 1023 l 1,1,-1
 1376 1023 l 1,2,-1
 1376 -12 l 2,3,4
 1376 -172 1376 -172 1346 -229.5 c 128,-1,5
 1316 -287 1316 -287 1272 -306 c 128,-1,6
 1228 -325 1228 -325 1146.5 -325 c 128,-1,7
 1065 -325 1065 -325 995 -284 c 1,8,-1
 1019 -177 l 1,9,10
 1103 -208 1103 -208 1144 -208 c 0,11,12
 1234 -208 1234 -208 1234 -91 c 2,0,-1
1236 1242 m 1,13,-1
 1236 1421 l 1,14,-1
 1377 1421 l 1,15,-1
 1377 1242 l 1,16,-1
 1236 1242 l 1,13,-1
1041 0 m 1,17,-1
 148 0 l 1,18,-1
 148 1464 l 1,19,-1
 294 1464 l 1,20,-1
 294 113 l 1,21,-1
 1041 113 l 1,22,-1
 1041 0 l 1,17,-1
EndSplineSet
EndChar

StartChar: uni01CA
Encoding: 458 458 306
Width: 2445
GlyphClass: 2
Flags: HW
LayerCount: 2
Fore
SplineSet
1512 334 m 1,0,-1
 1642 369 l 1,1,2
 1673 231 1673 231 1733 162 c 128,-1,3
 1793 93 1793 93 1908 93 c 0,4,5
 2026 93 2026 93 2082 159 c 0,6,7
 2138 226 2138 226 2148 302 c 0,8,9
 2164 413 2164 413 2164 541 c 2,10,-1
 2164 1464 l 1,11,-1
 2309 1464 l 1,12,-1
 2309 544 l 2,13,14
 2309 250 2309 250 2216.5 112.5 c 128,-1,15
 2124 -25 2124 -25 1896 -25 c 0,16,17
 1583 -25 1583 -25 1512 334 c 1,0,-1
148 0 m 1,18,-1
 148 1464 l 1,19,-1
 311 1464 l 1,20,-1
 1214 221 l 1,21,-1
 1214 1464 l 1,22,-1
 1343 1464 l 1,23,-1
 1343 0 l 1,24,-1
 1211 0 l 1,25,-1
 281 1290 l 1,26,-1
 281 0 l 1,27,-1
 148 0 l 1,18,-1
EndSplineSet
EndChar

StartChar: uni01CB
Encoding: 459 459 307
Width: 1973
GlyphClass: 2
Flags: HW
LayerCount: 2
Fore
SplineSet
1705 -91 m 2,0,-1
 1705 1023 l 1,1,-1
 1847 1023 l 1,2,-1
 1847 -12 l 2,3,4
 1847 -172 1847 -172 1817 -229.5 c 128,-1,5
 1787 -287 1787 -287 1743 -306 c 128,-1,6
 1699 -325 1699 -325 1617.5 -325 c 128,-1,7
 1536 -325 1536 -325 1466 -284 c 1,8,-1
 1490 -177 l 1,9,10
 1574 -208 1574 -208 1615 -208 c 0,11,12
 1705 -208 1705 -208 1705 -91 c 2,0,-1
1707 1242 m 1,13,-1
 1707 1421 l 1,14,-1
 1848 1421 l 1,15,-1
 1848 1242 l 1,16,-1
 1707 1242 l 1,13,-1
148 0 m 1,17,-1
 148 1464 l 1,18,-1
 311 1464 l 1,19,-1
 1214 221 l 1,20,-1
 1214 1464 l 1,21,-1
 1343 1464 l 1,22,-1
 1343 0 l 1,23,-1
 1211 0 l 1,24,-1
 281 1290 l 1,25,-1
 281 0 l 1,26,-1
 148 0 l 1,17,-1
EndSplineSet
EndChar

StartChar: uni01F1
Encoding: 497 497 308
Width: 2576
GlyphClass: 2
Flags: HW
LayerCount: 2
Fore
SplineSet
1530 1356 m 1,0,-1
 1530 1464 l 1,1,-1
 2536 1464 l 1,2,-1
 2536 1383 l 1,3,-1
 1628 107 l 1,4,-1
 2541 107 l 1,5,-1
 2534 0 l 1,6,-1
 1447 0 l 1,7,-1
 1447 98 l 1,8,-1
 2345 1356 l 1,9,-1
 1530 1356 l 1,0,-1
653 1350 m 2,10,-1
 294 1350 l 1,11,-1
 294 114 l 1,12,-1
 597 114 l 2,13,14
 752 114 752 114 856 147.5 c 128,-1,15
 960 181 960 181 1024.5 258 c 128,-1,16
 1089 335 1089 335 1116.5 450 c 128,-1,17
 1144 565 1144 565 1144 728 c 128,-1,18
 1144 891 1144 891 1121 999.5 c 128,-1,19
 1098 1108 1098 1108 1043 1190 c 0,20,21
 935 1350 935 1350 653 1350 c 2,10,-1
148 1464 m 1,22,-1
 652 1464 l 2,23,24
 968 1464 968 1464 1124 1304 c 0,25,26
 1288 1137 1288 1137 1287 738 c 0,27,28
 1288 219 1288 219 1008 73 c 0,29,30
 868 0 868 0 645 0 c 2,31,-1
 148 0 l 1,32,-1
 148 1464 l 1,22,-1
700 1464 m 0,33,-1
EndSplineSet
EndChar

StartChar: uni01F2
Encoding: 498 498 309
Width: 2278
GlyphClass: 2
Flags: HW
LayerCount: 2
Fore
SplineSet
1486 919 m 1,0,-1
 1486 1023 l 1,1,-1
 2236 1023 l 1,2,-1
 2236 928 l 1,3,-1
 1627 103 l 1,4,-1
 2234 103 l 1,5,-1
 2234 0 l 1,6,-1
 1466 0 l 1,7,-1
 1466 94 l 1,8,-1
 2067 919 l 1,9,-1
 1486 919 l 1,0,-1
653 1350 m 2,10,-1
 294 1350 l 1,11,-1
 294 114 l 1,12,-1
 597 114 l 2,13,14
 752 114 752 114 856 147.5 c 128,-1,15
 960 181 960 181 1024.5 258 c 128,-1,16
 1089 335 1089 335 1116.5 450 c 128,-1,17
 1144 565 1144 565 1144 728 c 128,-1,18
 1144 891 1144 891 1121 999.5 c 128,-1,19
 1098 1108 1098 1108 1043 1190 c 0,20,21
 935 1350 935 1350 653 1350 c 2,10,-1
148 1464 m 1,22,-1
 652 1464 l 2,23,24
 968 1464 968 1464 1124 1304 c 0,25,26
 1288 1137 1288 1137 1287 738 c 0,27,28
 1288 219 1288 219 1008 73 c 0,29,30
 868 0 868 0 645 0 c 2,31,-1
 148 0 l 1,32,-1
 148 1464 l 1,22,-1
700 1464 m 0,33,-1
EndSplineSet
EndChar

StartChar: uni0237
Encoding: 567 567 332
Width: 530
GlyphClass: 2
Flags: HW
LayerCount: 2
Fore
SplineSet
262 -87 m 2,0,-1
 262 1023 l 1,1,-1
 404 1023 l 1,2,-1
 404 -12 l 2,3,4
 404 -172 404 -172 374 -229.5 c 128,-1,5
 344 -287 344 -287 300 -306 c 128,-1,6
 256 -325 256 -325 182 -325 c 128,-1,7
 108 -325 108 -325 33 -281 c 1,8,-1
 57 -191 l 1,9,10
 119 -214 119 -214 166 -214 c 0,11,12
 262 -214 262 -214 262 -87 c 2,0,-1
EndSplineSet
EndChar

StartChar: circumflex
Encoding: 710 710 333
Width: 838
GlyphClass: 2
Flags: HW
LayerCount: 2
Fore
SplineSet
327 1492 m 1,0,-1
 522 1492 l 1,1,-1
 697 1172 l 1,2,-1
 605 1172 l 1,3,-1
 424 1390 l 1,4,-1
 244 1172 l 1,5,-1
 152 1172 l 1,6,-1
 327 1492 l 1,0,-1
EndSplineSet
EndChar

StartChar: caron
Encoding: 711 711 334
Width: 835
GlyphClass: 2
Flags: HW
LayerCount: 2
Fore
SplineSet
523 1172 m 1,0,-1
 328 1172 l 1,1,-1
 183 1492 l 1,2,-1
 275 1492 l 1,3,-1
 425 1264 l 1,4,-1
 576 1492 l 1,5,-1
 668 1492 l 1,6,-1
 523 1172 l 1,0,-1
EndSplineSet
EndChar

StartChar: breve
Encoding: 728 728 335
Width: 805
GlyphClass: 2
Flags: HW
LayerCount: 2
Fore
SplineSet
402 1287 m 128,-1,1
 562 1287 562 1287 562 1438 c 1,2,-1
 678 1438 l 1,3,4
 675 1317 675 1317 594 1250 c 128,-1,5
 513 1183 513 1183 402 1183 c 128,-1,6
 291 1183 291 1183 210 1250 c 128,-1,7
 129 1317 129 1317 126 1438 c 1,8,-1
 242 1438 l 1,9,0
 242 1287 242 1287 402 1287 c 128,-1,1
EndSplineSet
EndChar

StartChar: dotaccent
Encoding: 729 729 336
Width: 539
GlyphClass: 2
Flags: HW
LayerCount: 2
Fore
SplineSet
275 1301 m 128,-1,1
 218 1301 218 1301 185.5 1338 c 0,2,3
 153 1376 153 1376 153 1426 c 128,-1,4
 153 1476 153 1476 185.5 1513 c 128,-1,5
 218 1550 218 1550 275 1550 c 128,-1,6
 332 1550 332 1550 364.5 1513 c 128,-1,7
 397 1476 397 1476 397 1426 c 128,-1,8
 397 1376 397 1376 364.5 1338.5 c 128,-1,0
 332 1301 332 1301 275 1301 c 128,-1,1
EndSplineSet
EndChar

StartChar: ring
Encoding: 730 730 337
Width: 728
GlyphClass: 2
Flags: HW
LayerCount: 2
Fore
SplineSet
531.5 1528 m 128,-1,1
 472 1592 472 1592 366 1592 c 128,-1,2
 260 1592 260 1592 201.5 1527 c 128,-1,3
 143 1462 143 1462 143 1374 c 128,-1,4
 143 1286 143 1286 201 1223 c 128,-1,5
 259 1160 259 1160 365 1160 c 128,-1,6
 471 1160 471 1160 531 1224 c 128,-1,7
 591 1288 591 1288 591 1376 c 128,-1,0
 591 1464 591 1464 531.5 1528 c 128,-1,1
241 1376 m 128,-1,9
 241 1428 241 1428 273.5 1468 c 128,-1,10
 306 1508 306 1508 364 1508 c 128,-1,11
 422 1508 422 1508 454.5 1468 c 128,-1,12
 487 1428 487 1428 487 1376 c 128,-1,13
 487 1324 487 1324 454.5 1283.5 c 128,-1,14
 422 1243 422 1243 364 1243 c 128,-1,15
 306 1243 306 1243 273.5 1283.5 c 128,-1,8
 241 1324 241 1324 241 1376 c 128,-1,9
EndSplineSet
EndChar

StartChar: ogonek
Encoding: 731 731 338
Width: 462
GlyphClass: 2
Flags: HW
LayerCount: 2
Fore
SplineSet
315 0 m 1,0,1
 238 -154 238 -154 238 -218.5 c 128,-1,2
 238 -283 238 -283 311 -283 c 0,3,4
 324 -283 324 -283 346 -278 c 1,5,-1
 346 -361 l 1,6,7
 314 -369 314 -369 259.5 -369 c 128,-1,8
 205 -369 205 -369 161 -332 c 128,-1,9
 117 -295 117 -295 117 -237 c 128,-1,10
 117 -179 117 -179 160.5 -104 c 128,-1,11
 204 -29 204 -29 244 0 c 1,12,-1
 315 0 l 1,0,1
EndSplineSet
EndChar

StartChar: tilde
Encoding: 732 732 339
Width: 798
GlyphClass: 2
Flags: HW
LayerCount: 2
Fore
SplineSet
236.5 1265.5 m 128,-1,1
 250 1288 250 1288 270 1287.5 c 128,-1,2
 290 1287 290 1287 388.5 1244.5 c 128,-1,3
 487 1202 487 1202 540 1202 c 128,-1,4
 593 1202 593 1202 634 1240 c 128,-1,5
 675 1278 675 1278 675 1360 c 0,6,7
 675 1371 675 1371 673 1395 c 1,8,-1
 576 1395 l 1,9,10
 576 1299 576 1299 537 1299 c 0,11,12
 516 1299 516 1299 406 1345 c 128,-1,13
 296 1391 296 1391 253 1391 c 0,14,15
 125 1391 125 1391 125 1241 c 0,16,17
 125 1215 125 1215 127 1200 c 1,18,-1
 223 1200 l 1,19,0
 223 1243 223 1243 236.5 1265.5 c 128,-1,1
EndSplineSet
EndChar

StartChar: hungarumlaut
Encoding: 733 733 340
Width: 745
GlyphClass: 2
Flags: HW
LayerCount: 2
Fore
SplineSet
192 1492 m 1,0,-1
 381 1492 l 1,1,-1
 153 1172 l 1,2,-1
 87 1172 l 1,3,-1
 192 1492 l 1,0,-1
490 1492 m 1,4,-1
 685 1492 l 1,5,-1
 428 1172 l 1,6,-1
 355 1172 l 1,7,-1
 490 1492 l 1,4,-1
EndSplineSet
EndChar

StartChar: uni0307
Encoding: 775 775 341
Width: 539
GlyphClass: 2
Flags: HW
LayerCount: 2
Fore
SplineSet
270 1268 m 128,-1,1
 213 1268 213 1268 180.5 1305.5 c 128,-1,2
 148 1343 148 1343 148 1393 c 128,-1,3
 148 1443 148 1443 180.5 1480 c 128,-1,4
 213 1517 213 1517 270 1517 c 128,-1,5
 327 1517 327 1517 359.5 1480 c 128,-1,6
 392 1443 392 1443 392 1393 c 128,-1,7
 392 1343 392 1343 359.5 1305.5 c 128,-1,0
 327 1268 327 1268 270 1268 c 128,-1,1
EndSplineSet
EndChar

StartChar: uni030F
Encoding: 783 783 342
Width: 744
GlyphClass: 2
Flags: HW
LayerCount: 2
Fore
SplineSet
74 1492 m 1,0,-1
 256 1492 l 1,1,-1
 381 1172 l 1,2,-1
 306 1172 l 1,3,-1
 74 1492 l 1,0,-1
372 1492 m 1,4,-1
 554 1492 l 1,5,-1
 679 1172 l 1,6,-1
 610 1172 l 1,7,-1
 372 1492 l 1,4,-1
EndSplineSet
EndChar

StartChar: uni0311
Encoding: 785 785 343
Width: 805
GlyphClass: 2
Flags: HW
LayerCount: 2
Fore
SplineSet
402 1438 m 128,-1,1
 513 1438 513 1438 594 1371 c 128,-1,2
 675 1304 675 1304 678 1183 c 1,3,-1
 562 1183 l 1,4,5
 560 1255 560 1255 512 1293.5 c 128,-1,6
 464 1332 464 1332 402 1332 c 128,-1,7
 340 1332 340 1332 292 1293.5 c 128,-1,8
 244 1255 244 1255 242 1183 c 1,9,-1
 126 1183 l 1,10,11
 129 1304 129 1304 210 1371 c 128,-1,0
 291 1438 291 1438 402 1438 c 128,-1,1
EndSplineSet
EndChar

StartChar: uni0326
Encoding: 806 806 344
Width: 409
GlyphClass: 2
Flags: HW
LayerCount: 2
Fore
SplineSet
210 -168 m 1,0,-1
 100 -168 l 1,1,-1
 100 0 l 1,2,-1
 300 0 l 1,3,-1
 300 -160 l 2,4,5
 300 -245 300 -245 262 -321 c 128,-1,6
 224 -397 224 -397 190 -397 c 1,7,-1
 143 -375 l 1,8,9
 207 -328 207 -328 210 -168 c 1,0,-1
EndSplineSet
EndChar

StartChar: mu
Encoding: 956 956 345
Width: 1119
GlyphClass: 2
Flags: HW
LayerCount: 2
Fore
SplineSet
842 1023 m 1,0,-1
 984 1023 l 1,1,-1
 984 0 l 1,2,-1
 864 0 l 1,3,-1
 843 159 l 1,4,5
 737 -27 737 -27 524 -27 c 0,6,7
 383 -27 383 -27 282 87 c 1,8,-1
 282 -224 l 1,9,-1
 135 -224 l 1,10,-1
 135 1023 l 1,11,-1
 282 1023 l 1,12,-1
 282 436 l 2,13,14
 282 276 282 276 340 181.5 c 128,-1,15
 398 87 398 87 520 87 c 0,16,17
 595 87 595 87 654 113.5 c 128,-1,18
 713 140 713 140 747.5 179 c 128,-1,19
 782 218 782 218 804 268 c 0,20,21
 842 354 842 354 842 436 c 2,22,-1
 842 1023 l 1,0,-1
EndSplineSet
EndChar

StartChar: endash
Encoding: 8211 8211 346
Width: 1024
GlyphClass: 2
Flags: HW
LayerCount: 2
Fore
SplineSet
135 334 m 1,0,-1
 135 420 l 1,1,-1
 889 420 l 1,2,-1
 889 334 l 1,3,-1
 135 334 l 1,0,-1
EndSplineSet
EndChar

StartChar: emdash
Encoding: 8212 8212 347
Width: 2048
GlyphClass: 2
Flags: HW
LayerCount: 2
Fore
SplineSet
135 334 m 1,0,-1
 135 420 l 1,1,-1
 1913 420 l 1,2,-1
 1913 334 l 1,3,-1
 135 334 l 1,0,-1
EndSplineSet
EndChar

StartChar: quoteleft
Encoding: 8216 8216 348
Width: 330
GlyphClass: 2
Flags: HW
LayerCount: 2
Fore
SplineSet
145 1469 m 1,0,1
 145 1468 145 1468 179 1449.5 c 128,-1,2
 213 1431 213 1431 214 1431 c 1,3,4
 166 1351 166 1351 151 1310 c 128,-1,5
 136 1269 136 1269 136 1200 c 1,6,-1
 230 1187 l 1,7,8
 230 992 l 1,9,-1
 30 992 l 1,10,-1
 30 1103 l 2,11,12
 30 1250 30 1250 41.5 1290.5 c 0,13,14
 53 1330 53 1330 65 1362 c 0,15,16
 87 1418 87 1418 145 1469 c 1,0,1
EndSplineSet
EndChar

StartChar: quoteright
Encoding: 8217 8217 349
Width: 330
GlyphClass: 2
Flags: HW
LayerCount: 2
Fore
SplineSet
100 1292 m 1,0,-1
 100 1464 l 1,1,-1
 300 1464 l 1,2,3
 299 1441 299 1441 299 1388.5 c 128,-1,4
 299 1336 299 1336 298 1310 c 128,-1,5
 297 1284 297 1284 293.5 1239.5 c 128,-1,6
 290 1195 290 1195 281 1167 c 128,-1,7
 272 1139 272 1139 257 1104 c 0,8,9
 231 1042 231 1042 160 991 c 1,10,-1
 111 1054 l 1,11,12
 137 1078 137 1078 162.5 1136 c 128,-1,13
 188 1194 188 1194 190 1274 c 1,14,-1
 168 1278 l 2,15,16
 145 1282 145 1282 122 1287 c 2,17,-1
 100 1292 l 1,0,-1
EndSplineSet
EndChar

StartChar: quotesinglbase
Encoding: 8218 8218 350
Width: 436
GlyphClass: 2
Flags: HW
LayerCount: 2
Fore
SplineSet
128 -81 m 2,0,-1
 128 93 l 1,1,-1
 320 93 l 1,2,3
 316 -77 316 -77 304 -144 c 0,4,5
 274 -301 274 -301 159 -382 c 1,6,-1
 110 -319 l 1,7,8
 136 -295 136 -295 161.5 -237 c 128,-1,9
 187 -179 187 -179 189 -99 c 1,10,11
 128 -82 128 -82 128 -81 c 2,0,-1
EndSplineSet
EndChar

StartChar: quotedblleft
Encoding: 8220 8220 351
Width: 630
GlyphClass: 2
Flags: HW
LayerCount: 2
Fore
SplineSet
459 1473 m 1,0,-1
 508 1410 l 1,1,2
 480 1384 480 1384 454.5 1330.5 c 128,-1,3
 429 1277 429 1277 427 1196 c 1,4,-1
 530 1183 l 1,5,-1
 530 995 l 1,6,-1
 330 995 l 1,7,-1
 330 1084 l 2,8,9
 330 1146 330 1146 332 1173 c 128,-1,10
 334 1200 334 1200 336 1233 c 128,-1,11
 338 1266 338 1266 342 1281 c 128,-1,12
 346 1296 346 1296 352 1323 c 128,-1,13
 358 1350 358 1350 367.5 1366 c 0,14,15
 378 1382 378 1382 390 1403 c 0,16,17
 410 1437 410 1437 459 1473 c 1,0,-1
165 1473 m 1,18,-1
 214 1410 l 1,19,20
 186 1384 186 1384 160.5 1330.5 c 128,-1,21
 135 1277 135 1277 133 1197 c 1,22,-1
 230 1183 l 1,23,-1
 230 995 l 1,24,-1
 30 995 l 1,25,-1
 30 1084 l 2,26,27
 30 1272 30 1272 60 1342 c 0,28,29
 94 1424 94 1424 165 1473 c 1,18,-1
EndSplineSet
EndChar

StartChar: quotedblright
Encoding: 8221 8221 352
Width: 631
GlyphClass: 2
Flags: HW
LayerCount: 2
Fore
SplineSet
401 1292 m 1,0,-1
 401 1464 l 1,1,-1
 601 1464 l 1,2,3
 601 1269 601 1269 590 1224 c 128,-1,4
 579 1179 579 1179 568.5 1144 c 128,-1,5
 558 1109 558 1109 542 1086 c 0,6,7
 500 1024 500 1024 453 991 c 1,8,-1
 402 1054 l 1,9,10
 428 1076 428 1076 454 1134.5 c 128,-1,11
 480 1193 480 1193 482 1273 c 1,12,-1
 401 1292 l 1,0,-1
100 1292 m 1,13,-1
 100 1464 l 1,14,-1
 301 1464 l 1,15,16
 301 1223 301 1223 286.5 1181 c 128,-1,17
 272 1139 272 1139 257 1104 c 0,18,19
 231 1042 231 1042 160 991 c 1,20,-1
 110 1054 l 1,21,22
 136 1077 136 1077 162 1135.5 c 128,-1,23
 188 1194 188 1194 190 1274 c 1,24,-1
 168 1278 l 2,25,26
 145 1282 145 1282 122 1287 c 2,27,-1
 100 1292 l 1,13,-1
EndSplineSet
EndChar

StartChar: quotedblbase
Encoding: 8222 8222 353
Width: 744
GlyphClass: 2
Flags: HW
LayerCount: 2
Fore
SplineSet
434 -81 m 2,0,-1
 434 93 l 1,1,-1
 628 93 l 1,2,3
 624 -77 624 -77 612 -144 c 0,4,5
 582 -301 582 -301 467 -382 c 1,6,-1
 418 -319 l 1,7,8
 444 -295 444 -295 469.5 -237 c 128,-1,9
 495 -179 495 -179 497 -99 c 1,10,11
 434 -82 434 -82 434 -81 c 2,0,-1
126 -81 m 1,12,-1
 126 93 l 1,13,-1
 320 93 l 1,14,15
 316 -77 316 -77 304 -144 c 0,16,17
 274 -301 274 -301 159 -382 c 1,18,-1
 110 -319 l 1,19,20
 136 -295 136 -295 161.5 -237 c 128,-1,21
 187 -179 187 -179 189 -99 c 1,22,23
 187 -99 187 -99 175.5 -95.5 c 128,-1,24
 164 -92 164 -92 157.5 -90.5 c 0,25,26
 152 -90 152 -90 146 -88 c 0,27,28
 132 -84 132 -84 126 -81 c 1,12,-1
EndSplineSet
EndChar

StartChar: guilsinglleft
Encoding: 8249 8249 354
Width: 528
GlyphClass: 2
Flags: HW
LayerCount: 2
Fore
SplineSet
51 552 m 1,0,-1
 51 749 l 1,1,-1
 435 1050 l 1,2,-1
 435 909 l 1,3,-1
 149 650 l 1,4,-1
 435 393 l 1,5,-1
 435 251 l 1,6,-1
 51 552 l 1,0,-1
EndSplineSet
EndChar

StartChar: guilsinglright
Encoding: 8250 8250 355
Width: 528
GlyphClass: 2
Flags: HW
LayerCount: 2
Fore
SplineSet
435 552 m 1,0,-1
 435 749 l 1,1,-1
 51 1050 l 1,2,-1
 51 909 l 1,3,-1
 337 650 l 1,4,-1
 51 393 l 1,5,-1
 51 251 l 1,6,-1
 435 552 l 1,0,-1
EndSplineSet
EndChar

StartChar: uni2074
Encoding: 8308 8308 356
Width: 1441
GlyphClass: 2
Flags: HW
LayerCount: 2
Fore
SplineSet
590 924 m 1,0,-1
 590 772 l 1,1,-1
 705 772 l 1,2,-1
 705 924 l 1,3,-1
 805 924 l 1,4,-1
 805 1006 l 1,5,-1
 705 1006 l 1,6,-1
 705 1465 l 1,7,-1
 559 1465 l 1,8,-1
 239 992 l 1,9,-1
 239 924 l 1,10,-1
 590 924 l 1,0,-1
353 1006 m 1,11,-1
 590 1357 l 1,12,-1
 590 1006 l 1,13,-1
 353 1006 l 1,11,-1
EndSplineSet
EndChar

StartChar: Euro
Encoding: 8364 8364 357
Width: 1275
GlyphClass: 2
Flags: HW
LayerCount: 2
Fore
SplineSet
1154 340 m 1,0,-1
 1032 379 l 1,1,2
 975 220 975 220 921 172 c 0,3,4
 863 120 863 120 803.5 107.5 c 128,-1,5
 744 95 744 95 689 95 c 0,6,7
 501 95 501 95 401.5 217 c 128,-1,8
 302 339 302 339 275 586 c 1,9,-1
 641 586 l 1,10,-1
 641 672 l 1,11,-1
 268 672 l 1,12,13
 267 689 267 689 267 735.5 c 128,-1,14
 267 782 267 782 268 796 c 1,15,-1
 641 796 l 1,16,-1
 641 882 l 1,17,-1
 274 882 l 1,18,19
 310 1252 310 1252 512 1342 c 0,20,21
 586 1376 586 1376 666 1376 c 128,-1,22
 746 1376 746 1376 790.5 1367 c 128,-1,23
 835 1358 835 1358 867.5 1337 c 128,-1,24
 900 1316 900 1316 922 1293 c 128,-1,25
 944 1270 944 1270 962 1231 c 0,26,27
 988 1174 988 1174 1015 1073 c 1,28,-1
 1149 1104 l 1,29,30
 1100 1324 1100 1324 978 1412 c 0,31,32
 865 1494 865 1494 682 1493 c 0,33,34
 440 1493 440 1493 296 1341.5 c 128,-1,35
 152 1190 152 1190 121 882 c 1,36,-1
 -13 882 l 1,37,-1
 -13 796 l 1,38,-1
 115 796 l 1,39,40
 114 783 114 783 114 735.5 c 128,-1,41
 114 688 114 688 115 672 c 1,42,-1
 -13 672 l 1,43,-1
 -13 586 l 1,44,-1
 122 586 l 1,45,46
 155 276 155 276 302 126.5 c 128,-1,47
 449 -23 449 -23 686 -23 c 0,48,49
 903 -24 903 -24 1005 72 c 0,50,51
 1058 122 1058 122 1091.5 184.5 c 128,-1,52
 1125 247 1125 247 1154 340 c 1,0,-1
EndSplineSet
EndChar

StartChar: trademark
Encoding: 8482 8482 358
Width: 1847
GlyphClass: 2
Flags: HW
LayerCount: 2
Fore
SplineSet
116 1370 m 1,0,-1
 116 1465 l 1,1,-1
 757 1465 l 1,2,-1
 757 1370 l 1,3,-1
 492 1370 l 1,4,-1
 492 616 l 1,5,-1
 378 616 l 1,6,-1
 378 1370 l 1,7,-1
 116 1370 l 1,0,-1
1331 876 m 1,8,-1
 1587 1464 l 1,9,-1
 1718 1464 l 1,10,-1
 1718 616 l 1,11,-1
 1614 616 l 1,12,-1
 1614 1267 l 1,13,-1
 1373 732 l 1,14,-1
 1280 732 l 1,15,-1
 1046 1270 l 1,16,-1
 1046 616 l 1,17,-1
 938 616 l 1,18,-1
 938 1465 l 1,19,-1
 1081 1465 l 1,20,-1
 1331 876 l 1,8,-1
EndSplineSet
EndChar

StartChar: minus
Encoding: 8722 8722 359
Width: 1024
GlyphClass: 2
Flags: HW
LayerCount: 2
Fore
SplineSet
803 670 m 1,0,-1
 803 756 l 1,1,-1
 135 756 l 1,2,-1
 135 670 l 1,3,-1
 803 670 l 1,0,-1
EndSplineSet
EndChar

StartChar: uniFB01
Encoding: 64257 64257 360
Width: 1071
GlyphClass: 3
Flags: HW
LayerCount: 2
Fore
SplineSet
793 1242 m 1,0,-1
 793 1421 l 1,1,-1
 934 1421 l 1,2,-1
 934 1242 l 1,3,-1
 793 1242 l 1,0,-1
581 1338 m 1,4,5
 509 1365 509 1365 476 1365 c 128,-1,6
 443 1365 443 1365 425.5 1358.5 c 128,-1,7
 408 1352 408 1352 397 1335.5 c 128,-1,8
 386 1319 386 1319 380 1303.5 c 128,-1,9
 374 1288 374 1288 371 1256 c 0,10,11
 367 1214 367 1214 367 1137 c 2,12,-1
 367 1023 l 1,13,-1
 937 1023 l 1,14,-1
 937 0 l 1,15,-1
 795 0 l 1,16,-1
 795 917 l 1,17,-1
 367 917 l 1,18,-1
 367 -1 l 1,19,-1
 225 -1 l 1,20,-1
 225 917 l 1,21,-1
 52 917 l 1,22,-1
 52 1023 l 1,23,-1
 225 1023 l 1,24,-1
 225 1140 l 2,25,26
 225 1311 225 1311 278 1391 c 128,-1,27
 331 1471 331 1471 459 1471 c 0,28,29
 540 1471 540 1471 615 1430 c 1,30,-1
 581 1338 l 1,4,5
EndSplineSet
Ligature2: "'liga' Standard Ligatures in Latin lookup 0 subtable" f i
EndChar

StartChar: uniFB02
Encoding: 64258 64258 361
Width: 1072
GlyphClass: 3
Flags: HW
LayerCount: 2
Fore
SplineSet
581 1338 m 1,0,1
 509 1365 509 1365 476 1365 c 128,-1,2
 443 1365 443 1365 425.5 1358.5 c 128,-1,3
 408 1352 408 1352 397 1335.5 c 128,-1,4
 386 1319 386 1319 380 1303.5 c 128,-1,5
 374 1288 374 1288 371 1256 c 0,6,7
 367 1214 367 1214 367 1137 c 2,8,-1
 367 1023 l 1,9,-1
 795 1023 l 1,10,-1
 795 1474 l 1,11,-1
 937 1474 l 1,12,-1
 937 0 l 1,13,-1
 795 0 l 1,14,-1
 795 917 l 1,15,-1
 367 917 l 1,16,-1
 367 -1 l 1,17,-1
 225 -1 l 1,18,-1
 225 917 l 1,19,-1
 52 917 l 1,20,-1
 52 1023 l 1,21,-1
 225 1023 l 1,22,-1
 225 1140 l 2,23,24
 225 1311 225 1311 278 1391 c 128,-1,25
 331 1471 331 1471 459 1471 c 0,26,27
 540 1471 540 1471 615 1430 c 1,28,-1
 581 1338 l 1,0,1
EndSplineSet
Ligature2: "'liga' Standard Ligatures in Latin lookup 0 subtable" f l
EndChar
